<mxfile host="app.diagrams.net" modified="2021-10-17T14:07:15.209Z" agent="5.0 (Windows NT 10.0; Win64; x64) AppleWebKit/537.36 (KHTML, like Gecko) Chrome/94.0.4606.81 Safari/537.36 Edg/94.0.992.47" etag="HdsktKz-aXlLtwPnBPtj" version="15.5.4" type="github">
  <diagram id="pbuFdkifVELAItHDQR79" name="Page-1">
    <mxGraphModel dx="3234" dy="3216" grid="1" gridSize="10" guides="1" tooltips="1" connect="1" arrows="1" fold="1" page="1" pageScale="1" pageWidth="827" pageHeight="1169" math="0" shadow="0">
      <root>
        <mxCell id="0" />
        <mxCell id="1" parent="0" />
        <mxCell id="uAtIhjqp2DDbtPSCuf9U-86" value="" style="rounded=1;whiteSpace=wrap;html=1;" vertex="1" parent="1">
          <mxGeometry x="-1160" y="-875" width="1650" height="355" as="geometry" />
        </mxCell>
        <mxCell id="uAtIhjqp2DDbtPSCuf9U-74" value="" style="shape=image;verticalLabelPosition=bottom;labelBackgroundColor=#ffffff;verticalAlign=top;aspect=fixed;imageAspect=0;image=data:image/png,iVBORw0KGgoAAAANSUhEUgAAASQAAADjCAYAAAAsY2lUAAAM2klEQVR4Ae2XPW6UWRREvSw2Q8IK2MAkE0I80YgVWJpoVjCaBBDRrAYIeuTgSmXjn3Z3f1+/qjpI1jMiuadcdWjfHML//P3Pf4c3bz/wRQZ0wKADN8k+QkaImP+MvDoQKyRk5FVExMHP664DkUJ6KKP3H28P33/8TP4wCBsJWCXw51//PvordJyQkJFVLzm2MIGnZBT3CQkZFbYbZKsEHsro3W+f7n1SivmEhIysesmxhQk8JqPPX77mCQkZFbYbZKsEnpLRt2/fsoSEjKx6ybGFCTwnoyghIaPCdoNslcBLMooREjKy6iXHFiZwjIwihISMCtsNslUCx8rIXkjIyKqXHFuYwGtkZC0kZFTYbpCtEnitjGyFhIysesmxhQmcIiNLISGjwnaDbJXAqTKyExIysuolxxYmcI6MrISEjArbDbJVAufKyEZIyMiqlxxbmMAlZGQhJGRU2G6QrRK4lIyWFxIysuolxxYmcEkZLS0kZFTYbpCtEri0jJYVEjKy6iXHFiawhYyWFBIyKmw3yFYJbCWj5YSEjKx6ybGFCWwpo6WEhIwK2w2yVQJby2gZISEjq15ybGECe8hoCSEho8J2g2yVwF4yurqQkJFVLzm2MIE9ZXRVISGjwnaDbJXA3jK6mpCQkVUvObYwgWvI6CpCQkaF7QbZKoFryWh3ISEjq15ybGEC15TRrkJCRoXtBtkqgWvLaDchISOrXnJsYQIryGgXISGjwnaDbJXAKjLaXEjIyKqXHFuYwEoy2lRIyKiw3SBbJbCajDYTEjKy6iXHFiawoow2ERIyKmw3yFYJrCqjiwsJGVn1kmMLE1hZRhcVEjIqbDfIVgmsLqOLCQkZWfWSYwsTcJDRRYSEjArbDbJVAi4yOltIyMiqlxxbmICTjM4SEjIqbDfIVgm4yehkISEjq15ybGECjjI6SUjIqLDdIFsl4CqjVwsJGVn1kmMLE3CW0auEhIwK2w2yVQLuMjpaSMjIqpccW5hAgoyOEhIyKmw3yFYJpMjoRSEhI6tecmxhAkkyelZIyKiw3SBbJZAmoyeFhIysesmxhQkkyuhRISGjwnaDbJVAqox+EdJDGb15++HAFxnQgXU78O63T4fPX74e7sac8KVdu9G/8P26JeRnw8/mrgNpMvrlExJFp+h0wKcDSZ+M5tOd9u/eJySrX6o5lgRKEtDBzoiTXuVDSCWlBtM3AR1skoiGRfkQkm9PubwkAR3sjDjpVT6EVFJqMH0T0MEmiWhYlA8h+faUy0sS0MHOiJNe5UNIJaUG0zcBHWySiIZF+RCSb0+5vCQBHeyMOOlVPoRUUmowfRPQwSaJaFiUDyH59pTLSxLQwc6Ik17lQ0glpQbTNwEdbJKIhkX5EJJvT7m8JAEd7Iw46VU+hFRSajB9E9DBJoloWJQPIfn2lMtLEtDBzoiTXuVDSCWlBtM3AR1skoiGRfkQkm9PubwkAR3sjDjpVT6EVFJqMH0T0MEmiWhYlA8h+faUy0sS0MHOiJNe5UNIJaUG0zcBHWySiIZF+RCSb0+5vCQBHeyMOOlVPoRUUmowfRPQwSaJaFiUDyH59pTLSxLQwc6Ik17lQ0glpQbTNwEdbJKIhkX5EJJvT7m8JAEd7Iw46VU+hFRSajB9E9DBJoloWJQPIfn2lMtLEtDBzoiTXuVDSCWlBtM3AR1skoiGRfkQkm9PubwkAR3sjDjpVT6EVFJqMH0T0MEmiWhYlA8h+faUy0sS0MHOiJNe5UNIJaUG0zcBHWySiIZF+RCSb0+5vCQBHeyMOOlVPoRUUmowfRPQwSaJaFiUDyH59pTLSxLQwc6Ik17lQ0glpQbTNwEdbJKIhkX5EJJvT7m8JAEd7Iw46VU+hFRSajB9E9DBJoloWJQPIfn2lMtLEtDBzoiTXuVDSCWlBtM3AR1skoiGRfkQkm9PubwkAR3sjDjpVT6EVFJqMH0T0MEmiWhYlA8h+faUy0sS0MHOiJNe5UNIJaUG0zcBHWySiIZF+RCSb0+5vCQBHeyMOOlVPoRUUmowfRPQwSaJaFiUDyH59pTLSxLQwc6Ik17lQ0glpQbTNwEdbJKIhkX5EJJvT7m8JAEd7Iw46VU+hFRSajB9E9DBJoloWJQPIfn2lMtLEtDBzoiTXuVDSCWlBtM3AR1skoiGRfkQkm9PubwkAR3sjDjpVT6EVFJqMH0T0MEmiWhYlA8h+faUy0sS0MHOiJNe5UNIJaUG0zcBHWySiIZF+RCSb0+5vCQBHeyMOOlVPoRUUmowfRPQwSaJaFiUDyH59pTLSxLQwc6Ik17lQ0glpQbTNwEdbJKIhkX5EJJvT7m8JAEd7Iw46VU+hFRSajB9E9DBJoloWJQPIfn2lMtLEtDBzoiTXuVDSCWlBtM3AR1skoiGRfkQkm9PubwkAR3sjDjpVT6EVFJqMH0T0MEmiWhYlA8h+faUy0sS0MHOiJNe5UNIJaUG0zcBHWySiIZF+RCSb0+5vCQBHeyMOOlVPoRUUmowfRPQwSaJaFiUDyH59pTLSxLQwc6Ik17lQ0glpQbTNwEdbJKIhkX5EJJvT7m8JAEd7Iw46VU+hFRSajB9E9DBJoloWJQPIfn2lMtLEtDBzoiTXuVDSCWlBtM3AR1skoiGRfkQkm9PubwkAR3sjDjpVT6EVFJqMH0T0MEmiWhYlA8h+faUy0sS0MHOiJNe5UNIJaUG0zcBHWySiIZF+RCSb0+5vCQBHeyMOOlVPoRUUmowfRPQwSaJaFiUDyH59pTLSxLQwc6Ik17lQ0glpQbTNwEdbJKIhkX5EJJvT7m8JAEd7Iw46VU+hFRSajB9E9DBJoloWJQPIfn2lMtLEtDBzoiTXuVDSCWlBtM3AR1skoiGRfkQkm9PubwkAR3sjDjpVT6EVFJqMH0T0MEmiWhYlA8h+faUy0sS0MHOiJNe5UNIJaUG0zcBHWySiIZF+RCSb0+5vCQBHeyMOOlVPoRUUmowfRPQwSaJaFiUDyH59pTLSxLQwc6Ik17lQ0glpQbTNwEdbJKIhkX5EJJvT7m8JAEd7Iw46VU+hFRSajB9E9DBJoloWJQPIfn2lMtLEtDBzoiTXuVDSCWlBtM3AR1skoiGRfkQkm9PubwkAR3sjDjpVT6EVFJqMH0T0MEmiWhYlA8h+faUy0sS0MHOiJNe5UNIJaUG0zcBHWySiIZF+RCSb0+5vCQBHeyMOOlVPoRUUmowfRPQwSaJaFiUDyH59pTLSxLQwc6Ik17lQ0glpQbTNwEdbJKIhkX5EJJvT7m8JAEd7Iw46VU+hFRSajB9E9DBJoloWJQPIfn2lMtLEtDBzoiTXuVDSCWlBtM3AR1skoiGRfkQkm9PubwkAR3sjDjl/f2P24PyIaSSUoPpm4AONkVEdxwPZfT+4+0BIfn2lMtLEkgU0mMy+v7jJ0Iq6TSYxgmkCekpGd39iPiEZFxUTu9IIElIz8kIIXX0GUrzBFKE9JKMEJJ5UTm/I4EEIR0jI4TU0WcozRNwF9KxMkJI5kXl/I4EnIX0GhkhpI4+Q2megKuQXisjhGReVM7vSMBRSKfICCF19BlK8wTchHSqjBCSeVE5vyMBJyGdIyOE1NFnKM0TcBHSuTJCSOZF5fyOBByEdAkZIaSOPkNpnsDqQrqUjBCSeVE5vyOBlYV0SRkhpI4+Q2mewKpCurSMEJJ5UTm/I4EVhbSFjBBSR5+hNE9gNSFtJSOEZF5Uzu9IYCUhbSkjhNTRZyjNE1hFSFvLCCGZF5XzOxJYQUh7yAghdfQZSvMEri2kvWSEkMyLyvkdCVxTSHvKCCF19BlK8wSuJaS9ZYSQzIvK+R0JXENI15ARQuroM5TmCewtpGvJCCGZF5XzOxLYU0jXlBFC6ugzlOYJ7CWka8sIIZkXlfM7EthDSCvICCF19BlK8wS2FtIqMkJI5kXl/I4EthTSSjJCSB19htI8ga2EtJqMEJJ5UTm/I4EthLSijBBSR5+hNE/g0kJaVUYIybyonN+RwCWFtLKMEFJHn6E0T+BSQlpdRgjJvKic35HAJYTkICOE1NFnKM0TOFdILjJCSOZF5fyOBM4RkpOMEFJHn6E0T+BUIbnJCCGZF5XzOxI4RUiOMkJIHX2G0jyB1wrJVUYIybyonN+RwGuE5CwjhNTRZyjNEzhWSO4yQkjmReX8jgSOEVKCjBBSR5+hNE/gJSGlyAghmReV8zsSeE5ISTJCSB19htI8gaeElCYjhGReVM7vSOAxISXKCCF19BlK8wQeCilVRgjJvKic35GACilZRgipo89QmiegQtLv33+8PXz/8dOc7v75Nwp4/5/4GwmQwAoJ6Ebn+0QZ3WV9T0gDy/vhQAZksGoHUmWEkN4yulVHx12PdzNZRggJIfFJ0KgD6TK6E9L/uiW3Gxsaa9IAAAAASUVORK5CYII=;" vertex="1" parent="1">
          <mxGeometry x="-490" y="-840" width="347.32" height="270" as="geometry" />
        </mxCell>
        <mxCell id="uAtIhjqp2DDbtPSCuf9U-75" value="" style="shape=image;verticalLabelPosition=bottom;labelBackgroundColor=#ffffff;verticalAlign=top;aspect=fixed;imageAspect=0;image=data:image/png,iVBORw0KGgoAAAANSUhEUgAAASQAAADjCAYAAAAsY2lUAAAM2klEQVR4Ae2XPW6UWRREvSw2Q8IK2MAkE0I80YgVWJpoVjCaBBDRrAYIeuTgSmXjn3Z3f1+/qjpI1jMiuadcdWjfHML//P3Pf4c3bz/wRQZ0wKADN8k+QkaImP+MvDoQKyRk5FVExMHP664DkUJ6KKP3H28P33/8TP4wCBsJWCXw51//PvordJyQkJFVLzm2MIGnZBT3CQkZFbYbZKsEHsro3W+f7n1SivmEhIysesmxhQk8JqPPX77mCQkZFbYbZKsEnpLRt2/fsoSEjKx6ybGFCTwnoyghIaPCdoNslcBLMooREjKy6iXHFiZwjIwihISMCtsNslUCx8rIXkjIyKqXHFuYwGtkZC0kZFTYbpCtEnitjGyFhIysesmxhQmcIiNLISGjwnaDbJXAqTKyExIysuolxxYmcI6MrISEjArbDbJVAufKyEZIyMiqlxxbmMAlZGQhJGRU2G6QrRK4lIyWFxIysuolxxYmcEkZLS0kZFTYbpCtEri0jJYVEjKy6iXHFiawhYyWFBIyKmw3yFYJbCWj5YSEjKx6ybGFCWwpo6WEhIwK2w2yVQJby2gZISEjq15ybGECe8hoCSEho8J2g2yVwF4yurqQkJFVLzm2MIE9ZXRVISGjwnaDbJXA3jK6mpCQkVUvObYwgWvI6CpCQkaF7QbZKoFryWh3ISEjq15ybGEC15TRrkJCRoXtBtkqgWvLaDchISOrXnJsYQIryGgXISGjwnaDbJXAKjLaXEjIyKqXHFuYwEoy2lRIyKiw3SBbJbCajDYTEjKy6iXHFiawoow2ERIyKmw3yFYJrCqjiwsJGVn1kmMLE1hZRhcVEjIqbDfIVgmsLqOLCQkZWfWSYwsTcJDRRYSEjArbDbJVAi4yOltIyMiqlxxbmICTjM4SEjIqbDfIVgm4yehkISEjq15ybGECjjI6SUjIqLDdIFsl4CqjVwsJGVn1kmMLE3CW0auEhIwK2w2yVQLuMjpaSMjIqpccW5hAgoyOEhIyKmw3yFYJpMjoRSEhI6tecmxhAkkyelZIyKiw3SBbJZAmoyeFhIysesmxhQkkyuhRISGjwnaDbJVAqox+EdJDGb15++HAFxnQgXU78O63T4fPX74e7sac8KVdu9G/8P26JeRnw8/mrgNpMvrlExJFp+h0wKcDSZ+M5tOd9u/eJySrX6o5lgRKEtDBzoiTXuVDSCWlBtM3AR1skoiGRfkQkm9PubwkAR3sjDjpVT6EVFJqMH0T0MEmiWhYlA8h+faUy0sS0MHOiJNe5UNIJaUG0zcBHWySiIZF+RCSb0+5vCQBHeyMOOlVPoRUUmowfRPQwSaJaFiUDyH59pTLSxLQwc6Ik17lQ0glpQbTNwEdbJKIhkX5EJJvT7m8JAEd7Iw46VU+hFRSajB9E9DBJoloWJQPIfn2lMtLEtDBzoiTXuVDSCWlBtM3AR1skoiGRfkQkm9PubwkAR3sjDjpVT6EVFJqMH0T0MEmiWhYlA8h+faUy0sS0MHOiJNe5UNIJaUG0zcBHWySiIZF+RCSb0+5vCQBHeyMOOlVPoRUUmowfRPQwSaJaFiUDyH59pTLSxLQwc6Ik17lQ0glpQbTNwEdbJKIhkX5EJJvT7m8JAEd7Iw46VU+hFRSajB9E9DBJoloWJQPIfn2lMtLEtDBzoiTXuVDSCWlBtM3AR1skoiGRfkQkm9PubwkAR3sjDjpVT6EVFJqMH0T0MEmiWhYlA8h+faUy0sS0MHOiJNe5UNIJaUG0zcBHWySiIZF+RCSb0+5vCQBHeyMOOlVPoRUUmowfRPQwSaJaFiUDyH59pTLSxLQwc6Ik17lQ0glpQbTNwEdbJKIhkX5EJJvT7m8JAEd7Iw46VU+hFRSajB9E9DBJoloWJQPIfn2lMtLEtDBzoiTXuVDSCWlBtM3AR1skoiGRfkQkm9PubwkAR3sjDjpVT6EVFJqMH0T0MEmiWhYlA8h+faUy0sS0MHOiJNe5UNIJaUG0zcBHWySiIZF+RCSb0+5vCQBHeyMOOlVPoRUUmowfRPQwSaJaFiUDyH59pTLSxLQwc6Ik17lQ0glpQbTNwEdbJKIhkX5EJJvT7m8JAEd7Iw46VU+hFRSajB9E9DBJoloWJQPIfn2lMtLEtDBzoiTXuVDSCWlBtM3AR1skoiGRfkQkm9PubwkAR3sjDjpVT6EVFJqMH0T0MEmiWhYlA8h+faUy0sS0MHOiJNe5UNIJaUG0zcBHWySiIZF+RCSb0+5vCQBHeyMOOlVPoRUUmowfRPQwSaJaFiUDyH59pTLSxLQwc6Ik17lQ0glpQbTNwEdbJKIhkX5EJJvT7m8JAEd7Iw46VU+hFRSajB9E9DBJoloWJQPIfn2lMtLEtDBzoiTXuVDSCWlBtM3AR1skoiGRfkQkm9PubwkAR3sjDjpVT6EVFJqMH0T0MEmiWhYlA8h+faUy0sS0MHOiJNe5UNIJaUG0zcBHWySiIZF+RCSb0+5vCQBHeyMOOlVPoRUUmowfRPQwSaJaFiUDyH59pTLSxLQwc6Ik17lQ0glpQbTNwEdbJKIhkX5EJJvT7m8JAEd7Iw46VU+hFRSajB9E9DBJoloWJQPIfn2lMtLEtDBzoiTXuVDSCWlBtM3AR1skoiGRfkQkm9PubwkAR3sjDjpVT6EVFJqMH0T0MEmiWhYlA8h+faUy0sS0MHOiJNe5UNIJaUG0zcBHWySiIZF+RCSb0+5vCQBHeyMOOlVPoRUUmowfRPQwSaJaFiUDyH59pTLSxLQwc6Ik17lQ0glpQbTNwEdbJKIhkX5EJJvT7m8JAEd7Iw46VU+hFRSajB9E9DBJoloWJQPIfn2lMtLEtDBzoiTXuVDSCWlBtM3AR1skoiGRfkQkm9PubwkAR3sjDjpVT6EVFJqMH0T0MEmiWhYlA8h+faUy0sS0MHOiJNe5UNIJaUG0zcBHWySiIZF+RCSb0+5vCQBHeyMOOlVPoRUUmowfRPQwSaJaFiUDyH59pTLSxLQwc6Ik17lQ0glpQbTNwEdbJKIhkX5EJJvT7m8JAEd7Iw46VU+hFRSajB9E9DBJoloWJQPIfn2lMtLEtDBzoiTXuVDSCWlBtM3AR1skoiGRfkQkm9PubwkAR3sjDjpVT6EVFJqMH0T0MEmiWhYlA8h+faUy0sS0MHOiJNe5UNIJaUG0zcBHWySiIZF+RCSb0+5vCQBHeyMOOlVPoRUUmowfRPQwSaJaFiUDyH59pTLSxLQwc6Ik17lQ0glpQbTNwEdbJKIhkX5EJJvT7m8JAEd7Iw46VU+hFRSajB9E9DBJoloWJQPIfn2lMtLEtDBzoiTXuVDSCWlBtM3AR1skoiGRfkQkm9PubwkAR3sjDjl/f2P24PyIaSSUoPpm4AONkVEdxwPZfT+4+0BIfn2lMtLEkgU0mMy+v7jJ0Iq6TSYxgmkCekpGd39iPiEZFxUTu9IIElIz8kIIXX0GUrzBFKE9JKMEJJ5UTm/I4EEIR0jI4TU0WcozRNwF9KxMkJI5kXl/I4EnIX0GhkhpI4+Q2megKuQXisjhGReVM7vSMBRSKfICCF19BlK8wTchHSqjBCSeVE5vyMBJyGdIyOE1NFnKM0TcBHSuTJCSOZF5fyOBByEdAkZIaSOPkNpnsDqQrqUjBCSeVE5vyOBlYV0SRkhpI4+Q2mewKpCurSMEJJ5UTm/I4EVhbSFjBBSR5+hNE9gNSFtJSOEZF5Uzu9IYCUhbSkjhNTRZyjNE1hFSFvLCCGZF5XzOxJYQUh7yAghdfQZSvMEri2kvWSEkMyLyvkdCVxTSHvKCCF19BlK8wSuJaS9ZYSQzIvK+R0JXENI15ARQuroM5TmCewtpGvJCCGZF5XzOxLYU0jXlBFC6ugzlOYJ7CWka8sIIZkXlfM7EthDSCvICCF19BlK8wS2FtIqMkJI5kXl/I4EthTSSjJCSB19htI8ga2EtJqMEJJ5UTm/I4EthLSijBBSR5+hNE/g0kJaVUYIybyonN+RwCWFtLKMEFJHn6E0T+BSQlpdRgjJvKic35HAJYTkICOE1NFnKM0TOFdILjJCSOZF5fyOBM4RkpOMEFJHn6E0T+BUIbnJCCGZF5XzOxI4RUiOMkJIHX2G0jyB1wrJVUYIybyonN+RwGuE5CwjhNTRZyjNEzhWSO4yQkjmReX8jgSOEVKCjBBSR5+hNE/gJSGlyAghmReV8zsSeE5ISTJCSB19htI8gaeElCYjhGReVM7vSOAxISXKCCF19BlK8wQeCilVRgjJvKic35GACilZRgipo89QmiegQtLv33+8PXz/8dOc7v75Nwp4/5/4GwmQwAoJ6Ebn+0QZ3WV9T0gDy/vhQAZksGoHUmWEkN4yulVHx12PdzNZRggJIfFJ0KgD6TK6E9L/uiW3Gxsaa9IAAAAASUVORK5CYII=;" vertex="1" parent="1">
          <mxGeometry x="-910" y="-1169" width="347.32" height="270" as="geometry" />
        </mxCell>
        <mxCell id="uAtIhjqp2DDbtPSCuf9U-84" value="" style="rounded=0;whiteSpace=wrap;html=1;" vertex="1" parent="1">
          <mxGeometry x="-1070" y="-130" width="1490" height="950" as="geometry" />
        </mxCell>
        <mxCell id="uAtIhjqp2DDbtPSCuf9U-1" value="" style="shape=image;verticalLabelPosition=bottom;labelBackgroundColor=#ffffff;verticalAlign=top;aspect=fixed;imageAspect=0;image=data:image/png,iVBORw0KGgoAAAANSUhEUgAAASQAAADjCAYAAAAsY2lUAAAM2klEQVR4Ae2XPW6UWRREvSw2Q8IK2MAkE0I80YgVWJpoVjCaBBDRrAYIeuTgSmXjn3Z3f1+/qjpI1jMiuadcdWjfHML//P3Pf4c3bz/wRQZ0wKADN8k+QkaImP+MvDoQKyRk5FVExMHP664DkUJ6KKP3H28P33/8TP4wCBsJWCXw51//PvordJyQkJFVLzm2MIGnZBT3CQkZFbYbZKsEHsro3W+f7n1SivmEhIysesmxhQk8JqPPX77mCQkZFbYbZKsEnpLRt2/fsoSEjKx6ybGFCTwnoyghIaPCdoNslcBLMooREjKy6iXHFiZwjIwihISMCtsNslUCx8rIXkjIyKqXHFuYwGtkZC0kZFTYbpCtEnitjGyFhIysesmxhQmcIiNLISGjwnaDbJXAqTKyExIysuolxxYmcI6MrISEjArbDbJVAufKyEZIyMiqlxxbmMAlZGQhJGRU2G6QrRK4lIyWFxIysuolxxYmcEkZLS0kZFTYbpCtEri0jJYVEjKy6iXHFiawhYyWFBIyKmw3yFYJbCWj5YSEjKx6ybGFCWwpo6WEhIwK2w2yVQJby2gZISEjq15ybGECe8hoCSEho8J2g2yVwF4yurqQkJFVLzm2MIE9ZXRVISGjwnaDbJXA3jK6mpCQkVUvObYwgWvI6CpCQkaF7QbZKoFryWh3ISEjq15ybGEC15TRrkJCRoXtBtkqgWvLaDchISOrXnJsYQIryGgXISGjwnaDbJXAKjLaXEjIyKqXHFuYwEoy2lRIyKiw3SBbJbCajDYTEjKy6iXHFiawoow2ERIyKmw3yFYJrCqjiwsJGVn1kmMLE1hZRhcVEjIqbDfIVgmsLqOLCQkZWfWSYwsTcJDRRYSEjArbDbJVAi4yOltIyMiqlxxbmICTjM4SEjIqbDfIVgm4yehkISEjq15ybGECjjI6SUjIqLDdIFsl4CqjVwsJGVn1kmMLE3CW0auEhIwK2w2yVQLuMjpaSMjIqpccW5hAgoyOEhIyKmw3yFYJpMjoRSEhI6tecmxhAkkyelZIyKiw3SBbJZAmoyeFhIysesmxhQkkyuhRISGjwnaDbJVAqox+EdJDGb15++HAFxnQgXU78O63T4fPX74e7sac8KVdu9G/8P26JeRnw8/mrgNpMvrlExJFp+h0wKcDSZ+M5tOd9u/eJySrX6o5lgRKEtDBzoiTXuVDSCWlBtM3AR1skoiGRfkQkm9PubwkAR3sjDjpVT6EVFJqMH0T0MEmiWhYlA8h+faUy0sS0MHOiJNe5UNIJaUG0zcBHWySiIZF+RCSb0+5vCQBHeyMOOlVPoRUUmowfRPQwSaJaFiUDyH59pTLSxLQwc6Ik17lQ0glpQbTNwEdbJKIhkX5EJJvT7m8JAEd7Iw46VU+hFRSajB9E9DBJoloWJQPIfn2lMtLEtDBzoiTXuVDSCWlBtM3AR1skoiGRfkQkm9PubwkAR3sjDjpVT6EVFJqMH0T0MEmiWhYlA8h+faUy0sS0MHOiJNe5UNIJaUG0zcBHWySiIZF+RCSb0+5vCQBHeyMOOlVPoRUUmowfRPQwSaJaFiUDyH59pTLSxLQwc6Ik17lQ0glpQbTNwEdbJKIhkX5EJJvT7m8JAEd7Iw46VU+hFRSajB9E9DBJoloWJQPIfn2lMtLEtDBzoiTXuVDSCWlBtM3AR1skoiGRfkQkm9PubwkAR3sjDjpVT6EVFJqMH0T0MEmiWhYlA8h+faUy0sS0MHOiJNe5UNIJaUG0zcBHWySiIZF+RCSb0+5vCQBHeyMOOlVPoRUUmowfRPQwSaJaFiUDyH59pTLSxLQwc6Ik17lQ0glpQbTNwEdbJKIhkX5EJJvT7m8JAEd7Iw46VU+hFRSajB9E9DBJoloWJQPIfn2lMtLEtDBzoiTXuVDSCWlBtM3AR1skoiGRfkQkm9PubwkAR3sjDjpVT6EVFJqMH0T0MEmiWhYlA8h+faUy0sS0MHOiJNe5UNIJaUG0zcBHWySiIZF+RCSb0+5vCQBHeyMOOlVPoRUUmowfRPQwSaJaFiUDyH59pTLSxLQwc6Ik17lQ0glpQbTNwEdbJKIhkX5EJJvT7m8JAEd7Iw46VU+hFRSajB9E9DBJoloWJQPIfn2lMtLEtDBzoiTXuVDSCWlBtM3AR1skoiGRfkQkm9PubwkAR3sjDjpVT6EVFJqMH0T0MEmiWhYlA8h+faUy0sS0MHOiJNe5UNIJaUG0zcBHWySiIZF+RCSb0+5vCQBHeyMOOlVPoRUUmowfRPQwSaJaFiUDyH59pTLSxLQwc6Ik17lQ0glpQbTNwEdbJKIhkX5EJJvT7m8JAEd7Iw46VU+hFRSajB9E9DBJoloWJQPIfn2lMtLEtDBzoiTXuVDSCWlBtM3AR1skoiGRfkQkm9PubwkAR3sjDjpVT6EVFJqMH0T0MEmiWhYlA8h+faUy0sS0MHOiJNe5UNIJaUG0zcBHWySiIZF+RCSb0+5vCQBHeyMOOlVPoRUUmowfRPQwSaJaFiUDyH59pTLSxLQwc6Ik17lQ0glpQbTNwEdbJKIhkX5EJJvT7m8JAEd7Iw46VU+hFRSajB9E9DBJoloWJQPIfn2lMtLEtDBzoiTXuVDSCWlBtM3AR1skoiGRfkQkm9PubwkAR3sjDjpVT6EVFJqMH0T0MEmiWhYlA8h+faUy0sS0MHOiJNe5UNIJaUG0zcBHWySiIZF+RCSb0+5vCQBHeyMOOlVPoRUUmowfRPQwSaJaFiUDyH59pTLSxLQwc6Ik17lQ0glpQbTNwEdbJKIhkX5EJJvT7m8JAEd7Iw46VU+hFRSajB9E9DBJoloWJQPIfn2lMtLEtDBzoiTXuVDSCWlBtM3AR1skoiGRfkQkm9PubwkAR3sjDjpVT6EVFJqMH0T0MEmiWhYlA8h+faUy0sS0MHOiJNe5UNIJaUG0zcBHWySiIZF+RCSb0+5vCQBHeyMOOlVPoRUUmowfRPQwSaJaFiUDyH59pTLSxLQwc6Ik17lQ0glpQbTNwEdbJKIhkX5EJJvT7m8JAEd7Iw46VU+hFRSajB9E9DBJoloWJQPIfn2lMtLEtDBzoiTXuVDSCWlBtM3AR1skoiGRfkQkm9PubwkAR3sjDjpVT6EVFJqMH0T0MEmiWhYlA8h+faUy0sS0MHOiJNe5UNIJaUG0zcBHWySiIZF+RCSb0+5vCQBHeyMOOlVPoRUUmowfRPQwSaJaFiUDyH59pTLSxLQwc6Ik17lQ0glpQbTNwEdbJKIhkX5EJJvT7m8JAEd7Iw46VU+hFRSajB9E9DBJoloWJQPIfn2lMtLEtDBzoiTXuVDSCWlBtM3AR1skoiGRfkQkm9PubwkAR3sjDjl/f2P24PyIaSSUoPpm4AONkVEdxwPZfT+4+0BIfn2lMtLEkgU0mMy+v7jJ0Iq6TSYxgmkCekpGd39iPiEZFxUTu9IIElIz8kIIXX0GUrzBFKE9JKMEJJ5UTm/I4EEIR0jI4TU0WcozRNwF9KxMkJI5kXl/I4EnIX0GhkhpI4+Q2megKuQXisjhGReVM7vSMBRSKfICCF19BlK8wTchHSqjBCSeVE5vyMBJyGdIyOE1NFnKM0TcBHSuTJCSOZF5fyOBByEdAkZIaSOPkNpnsDqQrqUjBCSeVE5vyOBlYV0SRkhpI4+Q2mewKpCurSMEJJ5UTm/I4EVhbSFjBBSR5+hNE9gNSFtJSOEZF5Uzu9IYCUhbSkjhNTRZyjNE1hFSFvLCCGZF5XzOxJYQUh7yAghdfQZSvMEri2kvWSEkMyLyvkdCVxTSHvKCCF19BlK8wSuJaS9ZYSQzIvK+R0JXENI15ARQuroM5TmCewtpGvJCCGZF5XzOxLYU0jXlBFC6ugzlOYJ7CWka8sIIZkXlfM7EthDSCvICCF19BlK8wS2FtIqMkJI5kXl/I4EthTSSjJCSB19htI8ga2EtJqMEJJ5UTm/I4EthLSijBBSR5+hNE/g0kJaVUYIybyonN+RwCWFtLKMEFJHn6E0T+BSQlpdRgjJvKic35HAJYTkICOE1NFnKM0TOFdILjJCSOZF5fyOBM4RkpOMEFJHn6E0T+BUIbnJCCGZF5XzOxI4RUiOMkJIHX2G0jyB1wrJVUYIybyonN+RwGuE5CwjhNTRZyjNEzhWSO4yQkjmReX8jgSOEVKCjBBSR5+hNE/gJSGlyAghmReV8zsSeE5ISTJCSB19htI8gaeElCYjhGReVM7vSOAxISXKCCF19BlK8wQeCilVRgjJvKic35GACilZRgipo89QmiegQtLv33+8PXz/8dOc7v75Nwp4/5/4GwmQwAoJ6Ebn+0QZ3WV9T0gDy/vhQAZksGoHUmWEkN4yulVHx12PdzNZRggJIfFJ0KgD6TK6E9L/uiW3Gxsaa9IAAAAASUVORK5CYII=;" vertex="1" parent="1">
          <mxGeometry x="-300" y="1.5" width="292" height="227" as="geometry" />
        </mxCell>
        <mxCell id="uAtIhjqp2DDbtPSCuf9U-2" value="&lt;h2&gt;图书数据库服务器&lt;/h2&gt;" style="text;html=1;strokeColor=none;fillColor=none;align=center;verticalAlign=middle;whiteSpace=wrap;rounded=0;" vertex="1" parent="1">
          <mxGeometry x="-240" y="21.5" width="150" height="30" as="geometry" />
        </mxCell>
        <mxCell id="uAtIhjqp2DDbtPSCuf9U-7" value="" style="shape=image;verticalLabelPosition=bottom;labelBackgroundColor=#ffffff;verticalAlign=top;aspect=fixed;imageAspect=0;image=data:image/png,iVBORw0KGgoAAAANSUhEUgAAASQAAADjCAYAAAAsY2lUAAAM2klEQVR4Ae2XPW6UWRREvSw2Q8IK2MAkE0I80YgVWJpoVjCaBBDRrAYIeuTgSmXjn3Z3f1+/qjpI1jMiuadcdWjfHML//P3Pf4c3bz/wRQZ0wKADN8k+QkaImP+MvDoQKyRk5FVExMHP664DkUJ6KKP3H28P33/8TP4wCBsJWCXw51//PvordJyQkJFVLzm2MIGnZBT3CQkZFbYbZKsEHsro3W+f7n1SivmEhIysesmxhQk8JqPPX77mCQkZFbYbZKsEnpLRt2/fsoSEjKx6ybGFCTwnoyghIaPCdoNslcBLMooREjKy6iXHFiZwjIwihISMCtsNslUCx8rIXkjIyKqXHFuYwGtkZC0kZFTYbpCtEnitjGyFhIysesmxhQmcIiNLISGjwnaDbJXAqTKyExIysuolxxYmcI6MrISEjArbDbJVAufKyEZIyMiqlxxbmMAlZGQhJGRU2G6QrRK4lIyWFxIysuolxxYmcEkZLS0kZFTYbpCtEri0jJYVEjKy6iXHFiawhYyWFBIyKmw3yFYJbCWj5YSEjKx6ybGFCWwpo6WEhIwK2w2yVQJby2gZISEjq15ybGECe8hoCSEho8J2g2yVwF4yurqQkJFVLzm2MIE9ZXRVISGjwnaDbJXA3jK6mpCQkVUvObYwgWvI6CpCQkaF7QbZKoFryWh3ISEjq15ybGEC15TRrkJCRoXtBtkqgWvLaDchISOrXnJsYQIryGgXISGjwnaDbJXAKjLaXEjIyKqXHFuYwEoy2lRIyKiw3SBbJbCajDYTEjKy6iXHFiawoow2ERIyKmw3yFYJrCqjiwsJGVn1kmMLE1hZRhcVEjIqbDfIVgmsLqOLCQkZWfWSYwsTcJDRRYSEjArbDbJVAi4yOltIyMiqlxxbmICTjM4SEjIqbDfIVgm4yehkISEjq15ybGECjjI6SUjIqLDdIFsl4CqjVwsJGVn1kmMLE3CW0auEhIwK2w2yVQLuMjpaSMjIqpccW5hAgoyOEhIyKmw3yFYJpMjoRSEhI6tecmxhAkkyelZIyKiw3SBbJZAmoyeFhIysesmxhQkkyuhRISGjwnaDbJVAqox+EdJDGb15++HAFxnQgXU78O63T4fPX74e7sac8KVdu9G/8P26JeRnw8/mrgNpMvrlExJFp+h0wKcDSZ+M5tOd9u/eJySrX6o5lgRKEtDBzoiTXuVDSCWlBtM3AR1skoiGRfkQkm9PubwkAR3sjDjpVT6EVFJqMH0T0MEmiWhYlA8h+faUy0sS0MHOiJNe5UNIJaUG0zcBHWySiIZF+RCSb0+5vCQBHeyMOOlVPoRUUmowfRPQwSaJaFiUDyH59pTLSxLQwc6Ik17lQ0glpQbTNwEdbJKIhkX5EJJvT7m8JAEd7Iw46VU+hFRSajB9E9DBJoloWJQPIfn2lMtLEtDBzoiTXuVDSCWlBtM3AR1skoiGRfkQkm9PubwkAR3sjDjpVT6EVFJqMH0T0MEmiWhYlA8h+faUy0sS0MHOiJNe5UNIJaUG0zcBHWySiIZF+RCSb0+5vCQBHeyMOOlVPoRUUmowfRPQwSaJaFiUDyH59pTLSxLQwc6Ik17lQ0glpQbTNwEdbJKIhkX5EJJvT7m8JAEd7Iw46VU+hFRSajB9E9DBJoloWJQPIfn2lMtLEtDBzoiTXuVDSCWlBtM3AR1skoiGRfkQkm9PubwkAR3sjDjpVT6EVFJqMH0T0MEmiWhYlA8h+faUy0sS0MHOiJNe5UNIJaUG0zcBHWySiIZF+RCSb0+5vCQBHeyMOOlVPoRUUmowfRPQwSaJaFiUDyH59pTLSxLQwc6Ik17lQ0glpQbTNwEdbJKIhkX5EJJvT7m8JAEd7Iw46VU+hFRSajB9E9DBJoloWJQPIfn2lMtLEtDBzoiTXuVDSCWlBtM3AR1skoiGRfkQkm9PubwkAR3sjDjpVT6EVFJqMH0T0MEmiWhYlA8h+faUy0sS0MHOiJNe5UNIJaUG0zcBHWySiIZF+RCSb0+5vCQBHeyMOOlVPoRUUmowfRPQwSaJaFiUDyH59pTLSxLQwc6Ik17lQ0glpQbTNwEdbJKIhkX5EJJvT7m8JAEd7Iw46VU+hFRSajB9E9DBJoloWJQPIfn2lMtLEtDBzoiTXuVDSCWlBtM3AR1skoiGRfkQkm9PubwkAR3sjDjpVT6EVFJqMH0T0MEmiWhYlA8h+faUy0sS0MHOiJNe5UNIJaUG0zcBHWySiIZF+RCSb0+5vCQBHeyMOOlVPoRUUmowfRPQwSaJaFiUDyH59pTLSxLQwc6Ik17lQ0glpQbTNwEdbJKIhkX5EJJvT7m8JAEd7Iw46VU+hFRSajB9E9DBJoloWJQPIfn2lMtLEtDBzoiTXuVDSCWlBtM3AR1skoiGRfkQkm9PubwkAR3sjDjpVT6EVFJqMH0T0MEmiWhYlA8h+faUy0sS0MHOiJNe5UNIJaUG0zcBHWySiIZF+RCSb0+5vCQBHeyMOOlVPoRUUmowfRPQwSaJaFiUDyH59pTLSxLQwc6Ik17lQ0glpQbTNwEdbJKIhkX5EJJvT7m8JAEd7Iw46VU+hFRSajB9E9DBJoloWJQPIfn2lMtLEtDBzoiTXuVDSCWlBtM3AR1skoiGRfkQkm9PubwkAR3sjDjpVT6EVFJqMH0T0MEmiWhYlA8h+faUy0sS0MHOiJNe5UNIJaUG0zcBHWySiIZF+RCSb0+5vCQBHeyMOOlVPoRUUmowfRPQwSaJaFiUDyH59pTLSxLQwc6Ik17lQ0glpQbTNwEdbJKIhkX5EJJvT7m8JAEd7Iw46VU+hFRSajB9E9DBJoloWJQPIfn2lMtLEtDBzoiTXuVDSCWlBtM3AR1skoiGRfkQkm9PubwkAR3sjDjpVT6EVFJqMH0T0MEmiWhYlA8h+faUy0sS0MHOiJNe5UNIJaUG0zcBHWySiIZF+RCSb0+5vCQBHeyMOOlVPoRUUmowfRPQwSaJaFiUDyH59pTLSxLQwc6Ik17lQ0glpQbTNwEdbJKIhkX5EJJvT7m8JAEd7Iw46VU+hFRSajB9E9DBJoloWJQPIfn2lMtLEtDBzoiTXuVDSCWlBtM3AR1skoiGRfkQkm9PubwkAR3sjDjpVT6EVFJqMH0T0MEmiWhYlA8h+faUy0sS0MHOiJNe5UNIJaUG0zcBHWySiIZF+RCSb0+5vCQBHeyMOOlVPoRUUmowfRPQwSaJaFiUDyH59pTLSxLQwc6Ik17lQ0glpQbTNwEdbJKIhkX5EJJvT7m8JAEd7Iw46VU+hFRSajB9E9DBJoloWJQPIfn2lMtLEtDBzoiTXuVDSCWlBtM3AR1skoiGRfkQkm9PubwkAR3sjDjl/f2P24PyIaSSUoPpm4AONkVEdxwPZfT+4+0BIfn2lMtLEkgU0mMy+v7jJ0Iq6TSYxgmkCekpGd39iPiEZFxUTu9IIElIz8kIIXX0GUrzBFKE9JKMEJJ5UTm/I4EEIR0jI4TU0WcozRNwF9KxMkJI5kXl/I4EnIX0GhkhpI4+Q2megKuQXisjhGReVM7vSMBRSKfICCF19BlK8wTchHSqjBCSeVE5vyMBJyGdIyOE1NFnKM0TcBHSuTJCSOZF5fyOBByEdAkZIaSOPkNpnsDqQrqUjBCSeVE5vyOBlYV0SRkhpI4+Q2mewKpCurSMEJJ5UTm/I4EVhbSFjBBSR5+hNE9gNSFtJSOEZF5Uzu9IYCUhbSkjhNTRZyjNE1hFSFvLCCGZF5XzOxJYQUh7yAghdfQZSvMEri2kvWSEkMyLyvkdCVxTSHvKCCF19BlK8wSuJaS9ZYSQzIvK+R0JXENI15ARQuroM5TmCewtpGvJCCGZF5XzOxLYU0jXlBFC6ugzlOYJ7CWka8sIIZkXlfM7EthDSCvICCF19BlK8wS2FtIqMkJI5kXl/I4EthTSSjJCSB19htI8ga2EtJqMEJJ5UTm/I4EthLSijBBSR5+hNE/g0kJaVUYIybyonN+RwCWFtLKMEFJHn6E0T+BSQlpdRgjJvKic35HAJYTkICOE1NFnKM0TOFdILjJCSOZF5fyOBM4RkpOMEFJHn6E0T+BUIbnJCCGZF5XzOxI4RUiOMkJIHX2G0jyB1wrJVUYIybyonN+RwGuE5CwjhNTRZyjNEzhWSO4yQkjmReX8jgSOEVKCjBBSR5+hNE/gJSGlyAghmReV8zsSeE5ISTJCSB19htI8gaeElCYjhGReVM7vSOAxISXKCCF19BlK8wQeCilVRgjJvKic35GACilZRgipo89QmiegQtLv33+8PXz/8dOc7v75Nwp4/5/4GwmQwAoJ6Ebn+0QZ3WV9T0gDy/vhQAZksGoHUmWEkN4yulVHx12PdzNZRggJIfFJ0KgD6TK6E9L/uiW3Gxsaa9IAAAAASUVORK5CYII=;" vertex="1" parent="1">
          <mxGeometry x="-300" y="240" width="292" height="227" as="geometry" />
        </mxCell>
        <mxCell id="uAtIhjqp2DDbtPSCuf9U-8" value="&lt;h2&gt;用户数据库服务器&lt;/h2&gt;" style="text;html=1;strokeColor=none;fillColor=none;align=center;verticalAlign=middle;whiteSpace=wrap;rounded=0;" vertex="1" parent="1">
          <mxGeometry x="-240" y="260" width="150" height="30" as="geometry" />
        </mxCell>
        <mxCell id="uAtIhjqp2DDbtPSCuf9U-10" value="" style="shape=image;verticalLabelPosition=bottom;labelBackgroundColor=#ffffff;verticalAlign=top;aspect=fixed;imageAspect=0;image=data:image/png,iVBORw0KGgoAAAANSUhEUgAAASQAAADjCAYAAAAsY2lUAAAM2klEQVR4Ae2XPW6UWRREvSw2Q8IK2MAkE0I80YgVWJpoVjCaBBDRrAYIeuTgSmXjn3Z3f1+/qjpI1jMiuadcdWjfHML//P3Pf4c3bz/wRQZ0wKADN8k+QkaImP+MvDoQKyRk5FVExMHP664DkUJ6KKP3H28P33/8TP4wCBsJWCXw51//PvordJyQkJFVLzm2MIGnZBT3CQkZFbYbZKsEHsro3W+f7n1SivmEhIysesmxhQk8JqPPX77mCQkZFbYbZKsEnpLRt2/fsoSEjKx6ybGFCTwnoyghIaPCdoNslcBLMooREjKy6iXHFiZwjIwihISMCtsNslUCx8rIXkjIyKqXHFuYwGtkZC0kZFTYbpCtEnitjGyFhIysesmxhQmcIiNLISGjwnaDbJXAqTKyExIysuolxxYmcI6MrISEjArbDbJVAufKyEZIyMiqlxxbmMAlZGQhJGRU2G6QrRK4lIyWFxIysuolxxYmcEkZLS0kZFTYbpCtEri0jJYVEjKy6iXHFiawhYyWFBIyKmw3yFYJbCWj5YSEjKx6ybGFCWwpo6WEhIwK2w2yVQJby2gZISEjq15ybGECe8hoCSEho8J2g2yVwF4yurqQkJFVLzm2MIE9ZXRVISGjwnaDbJXA3jK6mpCQkVUvObYwgWvI6CpCQkaF7QbZKoFryWh3ISEjq15ybGEC15TRrkJCRoXtBtkqgWvLaDchISOrXnJsYQIryGgXISGjwnaDbJXAKjLaXEjIyKqXHFuYwEoy2lRIyKiw3SBbJbCajDYTEjKy6iXHFiawoow2ERIyKmw3yFYJrCqjiwsJGVn1kmMLE1hZRhcVEjIqbDfIVgmsLqOLCQkZWfWSYwsTcJDRRYSEjArbDbJVAi4yOltIyMiqlxxbmICTjM4SEjIqbDfIVgm4yehkISEjq15ybGECjjI6SUjIqLDdIFsl4CqjVwsJGVn1kmMLE3CW0auEhIwK2w2yVQLuMjpaSMjIqpccW5hAgoyOEhIyKmw3yFYJpMjoRSEhI6tecmxhAkkyelZIyKiw3SBbJZAmoyeFhIysesmxhQkkyuhRISGjwnaDbJVAqox+EdJDGb15++HAFxnQgXU78O63T4fPX74e7sac8KVdu9G/8P26JeRnw8/mrgNpMvrlExJFp+h0wKcDSZ+M5tOd9u/eJySrX6o5lgRKEtDBzoiTXuVDSCWlBtM3AR1skoiGRfkQkm9PubwkAR3sjDjpVT6EVFJqMH0T0MEmiWhYlA8h+faUy0sS0MHOiJNe5UNIJaUG0zcBHWySiIZF+RCSb0+5vCQBHeyMOOlVPoRUUmowfRPQwSaJaFiUDyH59pTLSxLQwc6Ik17lQ0glpQbTNwEdbJKIhkX5EJJvT7m8JAEd7Iw46VU+hFRSajB9E9DBJoloWJQPIfn2lMtLEtDBzoiTXuVDSCWlBtM3AR1skoiGRfkQkm9PubwkAR3sjDjpVT6EVFJqMH0T0MEmiWhYlA8h+faUy0sS0MHOiJNe5UNIJaUG0zcBHWySiIZF+RCSb0+5vCQBHeyMOOlVPoRUUmowfRPQwSaJaFiUDyH59pTLSxLQwc6Ik17lQ0glpQbTNwEdbJKIhkX5EJJvT7m8JAEd7Iw46VU+hFRSajB9E9DBJoloWJQPIfn2lMtLEtDBzoiTXuVDSCWlBtM3AR1skoiGRfkQkm9PubwkAR3sjDjpVT6EVFJqMH0T0MEmiWhYlA8h+faUy0sS0MHOiJNe5UNIJaUG0zcBHWySiIZF+RCSb0+5vCQBHeyMOOlVPoRUUmowfRPQwSaJaFiUDyH59pTLSxLQwc6Ik17lQ0glpQbTNwEdbJKIhkX5EJJvT7m8JAEd7Iw46VU+hFRSajB9E9DBJoloWJQPIfn2lMtLEtDBzoiTXuVDSCWlBtM3AR1skoiGRfkQkm9PubwkAR3sjDjpVT6EVFJqMH0T0MEmiWhYlA8h+faUy0sS0MHOiJNe5UNIJaUG0zcBHWySiIZF+RCSb0+5vCQBHeyMOOlVPoRUUmowfRPQwSaJaFiUDyH59pTLSxLQwc6Ik17lQ0glpQbTNwEdbJKIhkX5EJJvT7m8JAEd7Iw46VU+hFRSajB9E9DBJoloWJQPIfn2lMtLEtDBzoiTXuVDSCWlBtM3AR1skoiGRfkQkm9PubwkAR3sjDjpVT6EVFJqMH0T0MEmiWhYlA8h+faUy0sS0MHOiJNe5UNIJaUG0zcBHWySiIZF+RCSb0+5vCQBHeyMOOlVPoRUUmowfRPQwSaJaFiUDyH59pTLSxLQwc6Ik17lQ0glpQbTNwEdbJKIhkX5EJJvT7m8JAEd7Iw46VU+hFRSajB9E9DBJoloWJQPIfn2lMtLEtDBzoiTXuVDSCWlBtM3AR1skoiGRfkQkm9PubwkAR3sjDjpVT6EVFJqMH0T0MEmiWhYlA8h+faUy0sS0MHOiJNe5UNIJaUG0zcBHWySiIZF+RCSb0+5vCQBHeyMOOlVPoRUUmowfRPQwSaJaFiUDyH59pTLSxLQwc6Ik17lQ0glpQbTNwEdbJKIhkX5EJJvT7m8JAEd7Iw46VU+hFRSajB9E9DBJoloWJQPIfn2lMtLEtDBzoiTXuVDSCWlBtM3AR1skoiGRfkQkm9PubwkAR3sjDjpVT6EVFJqMH0T0MEmiWhYlA8h+faUy0sS0MHOiJNe5UNIJaUG0zcBHWySiIZF+RCSb0+5vCQBHeyMOOlVPoRUUmowfRPQwSaJaFiUDyH59pTLSxLQwc6Ik17lQ0glpQbTNwEdbJKIhkX5EJJvT7m8JAEd7Iw46VU+hFRSajB9E9DBJoloWJQPIfn2lMtLEtDBzoiTXuVDSCWlBtM3AR1skoiGRfkQkm9PubwkAR3sjDjpVT6EVFJqMH0T0MEmiWhYlA8h+faUy0sS0MHOiJNe5UNIJaUG0zcBHWySiIZF+RCSb0+5vCQBHeyMOOlVPoRUUmowfRPQwSaJaFiUDyH59pTLSxLQwc6Ik17lQ0glpQbTNwEdbJKIhkX5EJJvT7m8JAEd7Iw46VU+hFRSajB9E9DBJoloWJQPIfn2lMtLEtDBzoiTXuVDSCWlBtM3AR1skoiGRfkQkm9PubwkAR3sjDjpVT6EVFJqMH0T0MEmiWhYlA8h+faUy0sS0MHOiJNe5UNIJaUG0zcBHWySiIZF+RCSb0+5vCQBHeyMOOlVPoRUUmowfRPQwSaJaFiUDyH59pTLSxLQwc6Ik17lQ0glpQbTNwEdbJKIhkX5EJJvT7m8JAEd7Iw46VU+hFRSajB9E9DBJoloWJQPIfn2lMtLEtDBzoiTXuVDSCWlBtM3AR1skoiGRfkQkm9PubwkAR3sjDjl/f2P24PyIaSSUoPpm4AONkVEdxwPZfT+4+0BIfn2lMtLEkgU0mMy+v7jJ0Iq6TSYxgmkCekpGd39iPiEZFxUTu9IIElIz8kIIXX0GUrzBFKE9JKMEJJ5UTm/I4EEIR0jI4TU0WcozRNwF9KxMkJI5kXl/I4EnIX0GhkhpI4+Q2megKuQXisjhGReVM7vSMBRSKfICCF19BlK8wTchHSqjBCSeVE5vyMBJyGdIyOE1NFnKM0TcBHSuTJCSOZF5fyOBByEdAkZIaSOPkNpnsDqQrqUjBCSeVE5vyOBlYV0SRkhpI4+Q2mewKpCurSMEJJ5UTm/I4EVhbSFjBBSR5+hNE9gNSFtJSOEZF5Uzu9IYCUhbSkjhNTRZyjNE1hFSFvLCCGZF5XzOxJYQUh7yAghdfQZSvMEri2kvWSEkMyLyvkdCVxTSHvKCCF19BlK8wSuJaS9ZYSQzIvK+R0JXENI15ARQuroM5TmCewtpGvJCCGZF5XzOxLYU0jXlBFC6ugzlOYJ7CWka8sIIZkXlfM7EthDSCvICCF19BlK8wS2FtIqMkJI5kXl/I4EthTSSjJCSB19htI8ga2EtJqMEJJ5UTm/I4EthLSijBBSR5+hNE/g0kJaVUYIybyonN+RwCWFtLKMEFJHn6E0T+BSQlpdRgjJvKic35HAJYTkICOE1NFnKM0TOFdILjJCSOZF5fyOBM4RkpOMEFJHn6E0T+BUIbnJCCGZF5XzOxI4RUiOMkJIHX2G0jyB1wrJVUYIybyonN+RwGuE5CwjhNTRZyjNEzhWSO4yQkjmReX8jgSOEVKCjBBSR5+hNE/gJSGlyAghmReV8zsSeE5ISTJCSB19htI8gaeElCYjhGReVM7vSOAxISXKCCF19BlK8wQeCilVRgjJvKic35GACilZRgipo89QmiegQtLv33+8PXz/8dOc7v75Nwp4/5/4GwmQwAoJ6Ebn+0QZ3WV9T0gDy/vhQAZksGoHUmWEkN4yulVHx12PdzNZRggJIfFJ0KgD6TK6E9L/uiW3Gxsaa9IAAAAASUVORK5CYII=;" vertex="1" parent="1">
          <mxGeometry x="-300" y="480" width="292" height="227" as="geometry" />
        </mxCell>
        <mxCell id="uAtIhjqp2DDbtPSCuf9U-11" value="&lt;h2&gt;借阅数据库服务器&lt;/h2&gt;" style="text;html=1;strokeColor=none;fillColor=none;align=center;verticalAlign=middle;whiteSpace=wrap;rounded=0;" vertex="1" parent="1">
          <mxGeometry x="-240" y="500" width="150" height="30" as="geometry" />
        </mxCell>
        <mxCell id="uAtIhjqp2DDbtPSCuf9U-13" value="" style="shape=image;verticalLabelPosition=bottom;labelBackgroundColor=#ffffff;verticalAlign=top;aspect=fixed;imageAspect=0;image=data:image/png,iVBORw0KGgoAAAANSUhEUgAAASQAAADjCAYAAAAsY2lUAAAM2klEQVR4Ae2XPW6UWRREvSw2Q8IK2MAkE0I80YgVWJpoVjCaBBDRrAYIeuTgSmXjn3Z3f1+/qjpI1jMiuadcdWjfHML//P3Pf4c3bz/wRQZ0wKADN8k+QkaImP+MvDoQKyRk5FVExMHP664DkUJ6KKP3H28P33/8TP4wCBsJWCXw51//PvordJyQkJFVLzm2MIGnZBT3CQkZFbYbZKsEHsro3W+f7n1SivmEhIysesmxhQk8JqPPX77mCQkZFbYbZKsEnpLRt2/fsoSEjKx6ybGFCTwnoyghIaPCdoNslcBLMooREjKy6iXHFiZwjIwihISMCtsNslUCx8rIXkjIyKqXHFuYwGtkZC0kZFTYbpCtEnitjGyFhIysesmxhQmcIiNLISGjwnaDbJXAqTKyExIysuolxxYmcI6MrISEjArbDbJVAufKyEZIyMiqlxxbmMAlZGQhJGRU2G6QrRK4lIyWFxIysuolxxYmcEkZLS0kZFTYbpCtEri0jJYVEjKy6iXHFiawhYyWFBIyKmw3yFYJbCWj5YSEjKx6ybGFCWwpo6WEhIwK2w2yVQJby2gZISEjq15ybGECe8hoCSEho8J2g2yVwF4yurqQkJFVLzm2MIE9ZXRVISGjwnaDbJXA3jK6mpCQkVUvObYwgWvI6CpCQkaF7QbZKoFryWh3ISEjq15ybGEC15TRrkJCRoXtBtkqgWvLaDchISOrXnJsYQIryGgXISGjwnaDbJXAKjLaXEjIyKqXHFuYwEoy2lRIyKiw3SBbJbCajDYTEjKy6iXHFiawoow2ERIyKmw3yFYJrCqjiwsJGVn1kmMLE1hZRhcVEjIqbDfIVgmsLqOLCQkZWfWSYwsTcJDRRYSEjArbDbJVAi4yOltIyMiqlxxbmICTjM4SEjIqbDfIVgm4yehkISEjq15ybGECjjI6SUjIqLDdIFsl4CqjVwsJGVn1kmMLE3CW0auEhIwK2w2yVQLuMjpaSMjIqpccW5hAgoyOEhIyKmw3yFYJpMjoRSEhI6tecmxhAkkyelZIyKiw3SBbJZAmoyeFhIysesmxhQkkyuhRISGjwnaDbJVAqox+EdJDGb15++HAFxnQgXU78O63T4fPX74e7sac8KVdu9G/8P26JeRnw8/mrgNpMvrlExJFp+h0wKcDSZ+M5tOd9u/eJySrX6o5lgRKEtDBzoiTXuVDSCWlBtM3AR1skoiGRfkQkm9PubwkAR3sjDjpVT6EVFJqMH0T0MEmiWhYlA8h+faUy0sS0MHOiJNe5UNIJaUG0zcBHWySiIZF+RCSb0+5vCQBHeyMOOlVPoRUUmowfRPQwSaJaFiUDyH59pTLSxLQwc6Ik17lQ0glpQbTNwEdbJKIhkX5EJJvT7m8JAEd7Iw46VU+hFRSajB9E9DBJoloWJQPIfn2lMtLEtDBzoiTXuVDSCWlBtM3AR1skoiGRfkQkm9PubwkAR3sjDjpVT6EVFJqMH0T0MEmiWhYlA8h+faUy0sS0MHOiJNe5UNIJaUG0zcBHWySiIZF+RCSb0+5vCQBHeyMOOlVPoRUUmowfRPQwSaJaFiUDyH59pTLSxLQwc6Ik17lQ0glpQbTNwEdbJKIhkX5EJJvT7m8JAEd7Iw46VU+hFRSajB9E9DBJoloWJQPIfn2lMtLEtDBzoiTXuVDSCWlBtM3AR1skoiGRfkQkm9PubwkAR3sjDjpVT6EVFJqMH0T0MEmiWhYlA8h+faUy0sS0MHOiJNe5UNIJaUG0zcBHWySiIZF+RCSb0+5vCQBHeyMOOlVPoRUUmowfRPQwSaJaFiUDyH59pTLSxLQwc6Ik17lQ0glpQbTNwEdbJKIhkX5EJJvT7m8JAEd7Iw46VU+hFRSajB9E9DBJoloWJQPIfn2lMtLEtDBzoiTXuVDSCWlBtM3AR1skoiGRfkQkm9PubwkAR3sjDjpVT6EVFJqMH0T0MEmiWhYlA8h+faUy0sS0MHOiJNe5UNIJaUG0zcBHWySiIZF+RCSb0+5vCQBHeyMOOlVPoRUUmowfRPQwSaJaFiUDyH59pTLSxLQwc6Ik17lQ0glpQbTNwEdbJKIhkX5EJJvT7m8JAEd7Iw46VU+hFRSajB9E9DBJoloWJQPIfn2lMtLEtDBzoiTXuVDSCWlBtM3AR1skoiGRfkQkm9PubwkAR3sjDjpVT6EVFJqMH0T0MEmiWhYlA8h+faUy0sS0MHOiJNe5UNIJaUG0zcBHWySiIZF+RCSb0+5vCQBHeyMOOlVPoRUUmowfRPQwSaJaFiUDyH59pTLSxLQwc6Ik17lQ0glpQbTNwEdbJKIhkX5EJJvT7m8JAEd7Iw46VU+hFRSajB9E9DBJoloWJQPIfn2lMtLEtDBzoiTXuVDSCWlBtM3AR1skoiGRfkQkm9PubwkAR3sjDjpVT6EVFJqMH0T0MEmiWhYlA8h+faUy0sS0MHOiJNe5UNIJaUG0zcBHWySiIZF+RCSb0+5vCQBHeyMOOlVPoRUUmowfRPQwSaJaFiUDyH59pTLSxLQwc6Ik17lQ0glpQbTNwEdbJKIhkX5EJJvT7m8JAEd7Iw46VU+hFRSajB9E9DBJoloWJQPIfn2lMtLEtDBzoiTXuVDSCWlBtM3AR1skoiGRfkQkm9PubwkAR3sjDjpVT6EVFJqMH0T0MEmiWhYlA8h+faUy0sS0MHOiJNe5UNIJaUG0zcBHWySiIZF+RCSb0+5vCQBHeyMOOlVPoRUUmowfRPQwSaJaFiUDyH59pTLSxLQwc6Ik17lQ0glpQbTNwEdbJKIhkX5EJJvT7m8JAEd7Iw46VU+hFRSajB9E9DBJoloWJQPIfn2lMtLEtDBzoiTXuVDSCWlBtM3AR1skoiGRfkQkm9PubwkAR3sjDjpVT6EVFJqMH0T0MEmiWhYlA8h+faUy0sS0MHOiJNe5UNIJaUG0zcBHWySiIZF+RCSb0+5vCQBHeyMOOlVPoRUUmowfRPQwSaJaFiUDyH59pTLSxLQwc6Ik17lQ0glpQbTNwEdbJKIhkX5EJJvT7m8JAEd7Iw46VU+hFRSajB9E9DBJoloWJQPIfn2lMtLEtDBzoiTXuVDSCWlBtM3AR1skoiGRfkQkm9PubwkAR3sjDjpVT6EVFJqMH0T0MEmiWhYlA8h+faUy0sS0MHOiJNe5UNIJaUG0zcBHWySiIZF+RCSb0+5vCQBHeyMOOlVPoRUUmowfRPQwSaJaFiUDyH59pTLSxLQwc6Ik17lQ0glpQbTNwEdbJKIhkX5EJJvT7m8JAEd7Iw46VU+hFRSajB9E9DBJoloWJQPIfn2lMtLEtDBzoiTXuVDSCWlBtM3AR1skoiGRfkQkm9PubwkAR3sjDjl/f2P24PyIaSSUoPpm4AONkVEdxwPZfT+4+0BIfn2lMtLEkgU0mMy+v7jJ0Iq6TSYxgmkCekpGd39iPiEZFxUTu9IIElIz8kIIXX0GUrzBFKE9JKMEJJ5UTm/I4EEIR0jI4TU0WcozRNwF9KxMkJI5kXl/I4EnIX0GhkhpI4+Q2megKuQXisjhGReVM7vSMBRSKfICCF19BlK8wTchHSqjBCSeVE5vyMBJyGdIyOE1NFnKM0TcBHSuTJCSOZF5fyOBByEdAkZIaSOPkNpnsDqQrqUjBCSeVE5vyOBlYV0SRkhpI4+Q2mewKpCurSMEJJ5UTm/I4EVhbSFjBBSR5+hNE9gNSFtJSOEZF5Uzu9IYCUhbSkjhNTRZyjNE1hFSFvLCCGZF5XzOxJYQUh7yAghdfQZSvMEri2kvWSEkMyLyvkdCVxTSHvKCCF19BlK8wSuJaS9ZYSQzIvK+R0JXENI15ARQuroM5TmCewtpGvJCCGZF5XzOxLYU0jXlBFC6ugzlOYJ7CWka8sIIZkXlfM7EthDSCvICCF19BlK8wS2FtIqMkJI5kXl/I4EthTSSjJCSB19htI8ga2EtJqMEJJ5UTm/I4EthLSijBBSR5+hNE/g0kJaVUYIybyonN+RwCWFtLKMEFJHn6E0T+BSQlpdRgjJvKic35HAJYTkICOE1NFnKM0TOFdILjJCSOZF5fyOBM4RkpOMEFJHn6E0T+BUIbnJCCGZF5XzOxI4RUiOMkJIHX2G0jyB1wrJVUYIybyonN+RwGuE5CwjhNTRZyjNEzhWSO4yQkjmReX8jgSOEVKCjBBSR5+hNE/gJSGlyAghmReV8zsSeE5ISTJCSB19htI8gaeElCYjhGReVM7vSOAxISXKCCF19BlK8wQeCilVRgjJvKic35GACilZRgipo89QmiegQtLv33+8PXz/8dOc7v75Nwp4/5/4GwmQwAoJ6Ebn+0QZ3WV9T0gDy/vhQAZksGoHUmWEkN4yulVHx12PdzNZRggJIfFJ0KgD6TK6E9L/uiW3Gxsaa9IAAAAASUVORK5CYII=;" vertex="1" parent="1">
          <mxGeometry x="-630" y="1.5" width="292" height="227" as="geometry" />
        </mxCell>
        <mxCell id="uAtIhjqp2DDbtPSCuf9U-14" value="&lt;h2&gt;归还数据库服务器&lt;/h2&gt;" style="text;html=1;strokeColor=none;fillColor=none;align=center;verticalAlign=middle;whiteSpace=wrap;rounded=0;" vertex="1" parent="1">
          <mxGeometry x="-570" y="21.5" width="150" height="30" as="geometry" />
        </mxCell>
        <mxCell id="uAtIhjqp2DDbtPSCuf9U-20" value="" style="shape=image;verticalLabelPosition=bottom;labelBackgroundColor=#ffffff;verticalAlign=top;aspect=fixed;imageAspect=0;image=data:image/png,iVBORw0KGgoAAAANSUhEUgAAASQAAADjCAYAAAAsY2lUAAAM2klEQVR4Ae2XPW6UWRREvSw2Q8IK2MAkE0I80YgVWJpoVjCaBBDRrAYIeuTgSmXjn3Z3f1+/qjpI1jMiuadcdWjfHML//P3Pf4c3bz/wRQZ0wKADN8k+QkaImP+MvDoQKyRk5FVExMHP664DkUJ6KKP3H28P33/8TP4wCBsJWCXw51//PvordJyQkJFVLzm2MIGnZBT3CQkZFbYbZKsEHsro3W+f7n1SivmEhIysesmxhQk8JqPPX77mCQkZFbYbZKsEnpLRt2/fsoSEjKx6ybGFCTwnoyghIaPCdoNslcBLMooREjKy6iXHFiZwjIwihISMCtsNslUCx8rIXkjIyKqXHFuYwGtkZC0kZFTYbpCtEnitjGyFhIysesmxhQmcIiNLISGjwnaDbJXAqTKyExIysuolxxYmcI6MrISEjArbDbJVAufKyEZIyMiqlxxbmMAlZGQhJGRU2G6QrRK4lIyWFxIysuolxxYmcEkZLS0kZFTYbpCtEri0jJYVEjKy6iXHFiawhYyWFBIyKmw3yFYJbCWj5YSEjKx6ybGFCWwpo6WEhIwK2w2yVQJby2gZISEjq15ybGECe8hoCSEho8J2g2yVwF4yurqQkJFVLzm2MIE9ZXRVISGjwnaDbJXA3jK6mpCQkVUvObYwgWvI6CpCQkaF7QbZKoFryWh3ISEjq15ybGEC15TRrkJCRoXtBtkqgWvLaDchISOrXnJsYQIryGgXISGjwnaDbJXAKjLaXEjIyKqXHFuYwEoy2lRIyKiw3SBbJbCajDYTEjKy6iXHFiawoow2ERIyKmw3yFYJrCqjiwsJGVn1kmMLE1hZRhcVEjIqbDfIVgmsLqOLCQkZWfWSYwsTcJDRRYSEjArbDbJVAi4yOltIyMiqlxxbmICTjM4SEjIqbDfIVgm4yehkISEjq15ybGECjjI6SUjIqLDdIFsl4CqjVwsJGVn1kmMLE3CW0auEhIwK2w2yVQLuMjpaSMjIqpccW5hAgoyOEhIyKmw3yFYJpMjoRSEhI6tecmxhAkkyelZIyKiw3SBbJZAmoyeFhIysesmxhQkkyuhRISGjwnaDbJVAqox+EdJDGb15++HAFxnQgXU78O63T4fPX74e7sac8KVdu9G/8P26JeRnw8/mrgNpMvrlExJFp+h0wKcDSZ+M5tOd9u/eJySrX6o5lgRKEtDBzoiTXuVDSCWlBtM3AR1skoiGRfkQkm9PubwkAR3sjDjpVT6EVFJqMH0T0MEmiWhYlA8h+faUy0sS0MHOiJNe5UNIJaUG0zcBHWySiIZF+RCSb0+5vCQBHeyMOOlVPoRUUmowfRPQwSaJaFiUDyH59pTLSxLQwc6Ik17lQ0glpQbTNwEdbJKIhkX5EJJvT7m8JAEd7Iw46VU+hFRSajB9E9DBJoloWJQPIfn2lMtLEtDBzoiTXuVDSCWlBtM3AR1skoiGRfkQkm9PubwkAR3sjDjpVT6EVFJqMH0T0MEmiWhYlA8h+faUy0sS0MHOiJNe5UNIJaUG0zcBHWySiIZF+RCSb0+5vCQBHeyMOOlVPoRUUmowfRPQwSaJaFiUDyH59pTLSxLQwc6Ik17lQ0glpQbTNwEdbJKIhkX5EJJvT7m8JAEd7Iw46VU+hFRSajB9E9DBJoloWJQPIfn2lMtLEtDBzoiTXuVDSCWlBtM3AR1skoiGRfkQkm9PubwkAR3sjDjpVT6EVFJqMH0T0MEmiWhYlA8h+faUy0sS0MHOiJNe5UNIJaUG0zcBHWySiIZF+RCSb0+5vCQBHeyMOOlVPoRUUmowfRPQwSaJaFiUDyH59pTLSxLQwc6Ik17lQ0glpQbTNwEdbJKIhkX5EJJvT7m8JAEd7Iw46VU+hFRSajB9E9DBJoloWJQPIfn2lMtLEtDBzoiTXuVDSCWlBtM3AR1skoiGRfkQkm9PubwkAR3sjDjpVT6EVFJqMH0T0MEmiWhYlA8h+faUy0sS0MHOiJNe5UNIJaUG0zcBHWySiIZF+RCSb0+5vCQBHeyMOOlVPoRUUmowfRPQwSaJaFiUDyH59pTLSxLQwc6Ik17lQ0glpQbTNwEdbJKIhkX5EJJvT7m8JAEd7Iw46VU+hFRSajB9E9DBJoloWJQPIfn2lMtLEtDBzoiTXuVDSCWlBtM3AR1skoiGRfkQkm9PubwkAR3sjDjpVT6EVFJqMH0T0MEmiWhYlA8h+faUy0sS0MHOiJNe5UNIJaUG0zcBHWySiIZF+RCSb0+5vCQBHeyMOOlVPoRUUmowfRPQwSaJaFiUDyH59pTLSxLQwc6Ik17lQ0glpQbTNwEdbJKIhkX5EJJvT7m8JAEd7Iw46VU+hFRSajB9E9DBJoloWJQPIfn2lMtLEtDBzoiTXuVDSCWlBtM3AR1skoiGRfkQkm9PubwkAR3sjDjpVT6EVFJqMH0T0MEmiWhYlA8h+faUy0sS0MHOiJNe5UNIJaUG0zcBHWySiIZF+RCSb0+5vCQBHeyMOOlVPoRUUmowfRPQwSaJaFiUDyH59pTLSxLQwc6Ik17lQ0glpQbTNwEdbJKIhkX5EJJvT7m8JAEd7Iw46VU+hFRSajB9E9DBJoloWJQPIfn2lMtLEtDBzoiTXuVDSCWlBtM3AR1skoiGRfkQkm9PubwkAR3sjDjpVT6EVFJqMH0T0MEmiWhYlA8h+faUy0sS0MHOiJNe5UNIJaUG0zcBHWySiIZF+RCSb0+5vCQBHeyMOOlVPoRUUmowfRPQwSaJaFiUDyH59pTLSxLQwc6Ik17lQ0glpQbTNwEdbJKIhkX5EJJvT7m8JAEd7Iw46VU+hFRSajB9E9DBJoloWJQPIfn2lMtLEtDBzoiTXuVDSCWlBtM3AR1skoiGRfkQkm9PubwkAR3sjDjpVT6EVFJqMH0T0MEmiWhYlA8h+faUy0sS0MHOiJNe5UNIJaUG0zcBHWySiIZF+RCSb0+5vCQBHeyMOOlVPoRUUmowfRPQwSaJaFiUDyH59pTLSxLQwc6Ik17lQ0glpQbTNwEdbJKIhkX5EJJvT7m8JAEd7Iw46VU+hFRSajB9E9DBJoloWJQPIfn2lMtLEtDBzoiTXuVDSCWlBtM3AR1skoiGRfkQkm9PubwkAR3sjDjpVT6EVFJqMH0T0MEmiWhYlA8h+faUy0sS0MHOiJNe5UNIJaUG0zcBHWySiIZF+RCSb0+5vCQBHeyMOOlVPoRUUmowfRPQwSaJaFiUDyH59pTLSxLQwc6Ik17lQ0glpQbTNwEdbJKIhkX5EJJvT7m8JAEd7Iw46VU+hFRSajB9E9DBJoloWJQPIfn2lMtLEtDBzoiTXuVDSCWlBtM3AR1skoiGRfkQkm9PubwkAR3sjDjl/f2P24PyIaSSUoPpm4AONkVEdxwPZfT+4+0BIfn2lMtLEkgU0mMy+v7jJ0Iq6TSYxgmkCekpGd39iPiEZFxUTu9IIElIz8kIIXX0GUrzBFKE9JKMEJJ5UTm/I4EEIR0jI4TU0WcozRNwF9KxMkJI5kXl/I4EnIX0GhkhpI4+Q2megKuQXisjhGReVM7vSMBRSKfICCF19BlK8wTchHSqjBCSeVE5vyMBJyGdIyOE1NFnKM0TcBHSuTJCSOZF5fyOBByEdAkZIaSOPkNpnsDqQrqUjBCSeVE5vyOBlYV0SRkhpI4+Q2mewKpCurSMEJJ5UTm/I4EVhbSFjBBSR5+hNE9gNSFtJSOEZF5Uzu9IYCUhbSkjhNTRZyjNE1hFSFvLCCGZF5XzOxJYQUh7yAghdfQZSvMEri2kvWSEkMyLyvkdCVxTSHvKCCF19BlK8wSuJaS9ZYSQzIvK+R0JXENI15ARQuroM5TmCewtpGvJCCGZF5XzOxLYU0jXlBFC6ugzlOYJ7CWka8sIIZkXlfM7EthDSCvICCF19BlK8wS2FtIqMkJI5kXl/I4EthTSSjJCSB19htI8ga2EtJqMEJJ5UTm/I4EthLSijBBSR5+hNE/g0kJaVUYIybyonN+RwCWFtLKMEFJHn6E0T+BSQlpdRgjJvKic35HAJYTkICOE1NFnKM0TOFdILjJCSOZF5fyOBM4RkpOMEFJHn6E0T+BUIbnJCCGZF5XzOxI4RUiOMkJIHX2G0jyB1wrJVUYIybyonN+RwGuE5CwjhNTRZyjNEzhWSO4yQkjmReX8jgSOEVKCjBBSR5+hNE/gJSGlyAghmReV8zsSeE5ISTJCSB19htI8gaeElCYjhGReVM7vSOAxISXKCCF19BlK8wQeCilVRgjJvKic35GACilZRgipo89QmiegQtLv33+8PXz/8dOc7v75Nwp4/5/4GwmQwAoJ6Ebn+0QZ3WV9T0gDy/vhQAZksGoHUmWEkN4yulVHx12PdzNZRggJIfFJ0KgD6TK6E9L/uiW3Gxsaa9IAAAAASUVORK5CYII=;" vertex="1" parent="1">
          <mxGeometry x="-630" y="241.5" width="292" height="227" as="geometry" />
        </mxCell>
        <mxCell id="uAtIhjqp2DDbtPSCuf9U-21" value="&lt;h2&gt;预约数据库服务器&lt;/h2&gt;" style="text;html=1;strokeColor=none;fillColor=none;align=center;verticalAlign=middle;whiteSpace=wrap;rounded=0;" vertex="1" parent="1">
          <mxGeometry x="-570" y="261.5" width="150" height="30" as="geometry" />
        </mxCell>
        <mxCell id="uAtIhjqp2DDbtPSCuf9U-23" value="" style="shape=image;verticalLabelPosition=bottom;labelBackgroundColor=#ffffff;verticalAlign=top;aspect=fixed;imageAspect=0;image=data:image/png,iVBORw0KGgoAAAANSUhEUgAAASQAAADjCAYAAAAsY2lUAAAM2klEQVR4Ae2XPW6UWRREvSw2Q8IK2MAkE0I80YgVWJpoVjCaBBDRrAYIeuTgSmXjn3Z3f1+/qjpI1jMiuadcdWjfHML//P3Pf4c3bz/wRQZ0wKADN8k+QkaImP+MvDoQKyRk5FVExMHP664DkUJ6KKP3H28P33/8TP4wCBsJWCXw51//PvordJyQkJFVLzm2MIGnZBT3CQkZFbYbZKsEHsro3W+f7n1SivmEhIysesmxhQk8JqPPX77mCQkZFbYbZKsEnpLRt2/fsoSEjKx6ybGFCTwnoyghIaPCdoNslcBLMooREjKy6iXHFiZwjIwihISMCtsNslUCx8rIXkjIyKqXHFuYwGtkZC0kZFTYbpCtEnitjGyFhIysesmxhQmcIiNLISGjwnaDbJXAqTKyExIysuolxxYmcI6MrISEjArbDbJVAufKyEZIyMiqlxxbmMAlZGQhJGRU2G6QrRK4lIyWFxIysuolxxYmcEkZLS0kZFTYbpCtEri0jJYVEjKy6iXHFiawhYyWFBIyKmw3yFYJbCWj5YSEjKx6ybGFCWwpo6WEhIwK2w2yVQJby2gZISEjq15ybGECe8hoCSEho8J2g2yVwF4yurqQkJFVLzm2MIE9ZXRVISGjwnaDbJXA3jK6mpCQkVUvObYwgWvI6CpCQkaF7QbZKoFryWh3ISEjq15ybGEC15TRrkJCRoXtBtkqgWvLaDchISOrXnJsYQIryGgXISGjwnaDbJXAKjLaXEjIyKqXHFuYwEoy2lRIyKiw3SBbJbCajDYTEjKy6iXHFiawoow2ERIyKmw3yFYJrCqjiwsJGVn1kmMLE1hZRhcVEjIqbDfIVgmsLqOLCQkZWfWSYwsTcJDRRYSEjArbDbJVAi4yOltIyMiqlxxbmICTjM4SEjIqbDfIVgm4yehkISEjq15ybGECjjI6SUjIqLDdIFsl4CqjVwsJGVn1kmMLE3CW0auEhIwK2w2yVQLuMjpaSMjIqpccW5hAgoyOEhIyKmw3yFYJpMjoRSEhI6tecmxhAkkyelZIyKiw3SBbJZAmoyeFhIysesmxhQkkyuhRISGjwnaDbJVAqox+EdJDGb15++HAFxnQgXU78O63T4fPX74e7sac8KVdu9G/8P26JeRnw8/mrgNpMvrlExJFp+h0wKcDSZ+M5tOd9u/eJySrX6o5lgRKEtDBzoiTXuVDSCWlBtM3AR1skoiGRfkQkm9PubwkAR3sjDjpVT6EVFJqMH0T0MEmiWhYlA8h+faUy0sS0MHOiJNe5UNIJaUG0zcBHWySiIZF+RCSb0+5vCQBHeyMOOlVPoRUUmowfRPQwSaJaFiUDyH59pTLSxLQwc6Ik17lQ0glpQbTNwEdbJKIhkX5EJJvT7m8JAEd7Iw46VU+hFRSajB9E9DBJoloWJQPIfn2lMtLEtDBzoiTXuVDSCWlBtM3AR1skoiGRfkQkm9PubwkAR3sjDjpVT6EVFJqMH0T0MEmiWhYlA8h+faUy0sS0MHOiJNe5UNIJaUG0zcBHWySiIZF+RCSb0+5vCQBHeyMOOlVPoRUUmowfRPQwSaJaFiUDyH59pTLSxLQwc6Ik17lQ0glpQbTNwEdbJKIhkX5EJJvT7m8JAEd7Iw46VU+hFRSajB9E9DBJoloWJQPIfn2lMtLEtDBzoiTXuVDSCWlBtM3AR1skoiGRfkQkm9PubwkAR3sjDjpVT6EVFJqMH0T0MEmiWhYlA8h+faUy0sS0MHOiJNe5UNIJaUG0zcBHWySiIZF+RCSb0+5vCQBHeyMOOlVPoRUUmowfRPQwSaJaFiUDyH59pTLSxLQwc6Ik17lQ0glpQbTNwEdbJKIhkX5EJJvT7m8JAEd7Iw46VU+hFRSajB9E9DBJoloWJQPIfn2lMtLEtDBzoiTXuVDSCWlBtM3AR1skoiGRfkQkm9PubwkAR3sjDjpVT6EVFJqMH0T0MEmiWhYlA8h+faUy0sS0MHOiJNe5UNIJaUG0zcBHWySiIZF+RCSb0+5vCQBHeyMOOlVPoRUUmowfRPQwSaJaFiUDyH59pTLSxLQwc6Ik17lQ0glpQbTNwEdbJKIhkX5EJJvT7m8JAEd7Iw46VU+hFRSajB9E9DBJoloWJQPIfn2lMtLEtDBzoiTXuVDSCWlBtM3AR1skoiGRfkQkm9PubwkAR3sjDjpVT6EVFJqMH0T0MEmiWhYlA8h+faUy0sS0MHOiJNe5UNIJaUG0zcBHWySiIZF+RCSb0+5vCQBHeyMOOlVPoRUUmowfRPQwSaJaFiUDyH59pTLSxLQwc6Ik17lQ0glpQbTNwEdbJKIhkX5EJJvT7m8JAEd7Iw46VU+hFRSajB9E9DBJoloWJQPIfn2lMtLEtDBzoiTXuVDSCWlBtM3AR1skoiGRfkQkm9PubwkAR3sjDjpVT6EVFJqMH0T0MEmiWhYlA8h+faUy0sS0MHOiJNe5UNIJaUG0zcBHWySiIZF+RCSb0+5vCQBHeyMOOlVPoRUUmowfRPQwSaJaFiUDyH59pTLSxLQwc6Ik17lQ0glpQbTNwEdbJKIhkX5EJJvT7m8JAEd7Iw46VU+hFRSajB9E9DBJoloWJQPIfn2lMtLEtDBzoiTXuVDSCWlBtM3AR1skoiGRfkQkm9PubwkAR3sjDjpVT6EVFJqMH0T0MEmiWhYlA8h+faUy0sS0MHOiJNe5UNIJaUG0zcBHWySiIZF+RCSb0+5vCQBHeyMOOlVPoRUUmowfRPQwSaJaFiUDyH59pTLSxLQwc6Ik17lQ0glpQbTNwEdbJKIhkX5EJJvT7m8JAEd7Iw46VU+hFRSajB9E9DBJoloWJQPIfn2lMtLEtDBzoiTXuVDSCWlBtM3AR1skoiGRfkQkm9PubwkAR3sjDjpVT6EVFJqMH0T0MEmiWhYlA8h+faUy0sS0MHOiJNe5UNIJaUG0zcBHWySiIZF+RCSb0+5vCQBHeyMOOlVPoRUUmowfRPQwSaJaFiUDyH59pTLSxLQwc6Ik17lQ0glpQbTNwEdbJKIhkX5EJJvT7m8JAEd7Iw46VU+hFRSajB9E9DBJoloWJQPIfn2lMtLEtDBzoiTXuVDSCWlBtM3AR1skoiGRfkQkm9PubwkAR3sjDjpVT6EVFJqMH0T0MEmiWhYlA8h+faUy0sS0MHOiJNe5UNIJaUG0zcBHWySiIZF+RCSb0+5vCQBHeyMOOlVPoRUUmowfRPQwSaJaFiUDyH59pTLSxLQwc6Ik17lQ0glpQbTNwEdbJKIhkX5EJJvT7m8JAEd7Iw46VU+hFRSajB9E9DBJoloWJQPIfn2lMtLEtDBzoiTXuVDSCWlBtM3AR1skoiGRfkQkm9PubwkAR3sjDjl/f2P24PyIaSSUoPpm4AONkVEdxwPZfT+4+0BIfn2lMtLEkgU0mMy+v7jJ0Iq6TSYxgmkCekpGd39iPiEZFxUTu9IIElIz8kIIXX0GUrzBFKE9JKMEJJ5UTm/I4EEIR0jI4TU0WcozRNwF9KxMkJI5kXl/I4EnIX0GhkhpI4+Q2megKuQXisjhGReVM7vSMBRSKfICCF19BlK8wTchHSqjBCSeVE5vyMBJyGdIyOE1NFnKM0TcBHSuTJCSOZF5fyOBByEdAkZIaSOPkNpnsDqQrqUjBCSeVE5vyOBlYV0SRkhpI4+Q2mewKpCurSMEJJ5UTm/I4EVhbSFjBBSR5+hNE9gNSFtJSOEZF5Uzu9IYCUhbSkjhNTRZyjNE1hFSFvLCCGZF5XzOxJYQUh7yAghdfQZSvMEri2kvWSEkMyLyvkdCVxTSHvKCCF19BlK8wSuJaS9ZYSQzIvK+R0JXENI15ARQuroM5TmCewtpGvJCCGZF5XzOxLYU0jXlBFC6ugzlOYJ7CWka8sIIZkXlfM7EthDSCvICCF19BlK8wS2FtIqMkJI5kXl/I4EthTSSjJCSB19htI8ga2EtJqMEJJ5UTm/I4EthLSijBBSR5+hNE/g0kJaVUYIybyonN+RwCWFtLKMEFJHn6E0T+BSQlpdRgjJvKic35HAJYTkICOE1NFnKM0TOFdILjJCSOZF5fyOBM4RkpOMEFJHn6E0T+BUIbnJCCGZF5XzOxI4RUiOMkJIHX2G0jyB1wrJVUYIybyonN+RwGuE5CwjhNTRZyjNEzhWSO4yQkjmReX8jgSOEVKCjBBSR5+hNE/gJSGlyAghmReV8zsSeE5ISTJCSB19htI8gaeElCYjhGReVM7vSOAxISXKCCF19BlK8wQeCilVRgjJvKic35GACilZRgipo89QmiegQtLv33+8PXz/8dOc7v75Nwp4/5/4GwmQwAoJ6Ebn+0QZ3WV9T0gDy/vhQAZksGoHUmWEkN4yulVHx12PdzNZRggJIfFJ0KgD6TK6E9L/uiW3Gxsaa9IAAAAASUVORK5CYII=;" vertex="1" parent="1">
          <mxGeometry x="-630" y="481.5" width="292" height="227" as="geometry" />
        </mxCell>
        <mxCell id="uAtIhjqp2DDbtPSCuf9U-24" value="&lt;h2&gt;超期数据库服务器&lt;/h2&gt;" style="text;html=1;strokeColor=none;fillColor=none;align=center;verticalAlign=middle;whiteSpace=wrap;rounded=0;" vertex="1" parent="1">
          <mxGeometry x="-570" y="501.5" width="150" height="30" as="geometry" />
        </mxCell>
        <mxCell id="uAtIhjqp2DDbtPSCuf9U-25" value="&lt;h2&gt;&lt;span style=&quot;font-weight: 400&quot;&gt;Mysql&lt;/span&gt;&lt;/h2&gt;" style="rounded=0;whiteSpace=wrap;html=1;" vertex="1" parent="1">
          <mxGeometry x="-570" y="630" width="120" height="60" as="geometry" />
        </mxCell>
        <mxCell id="uAtIhjqp2DDbtPSCuf9U-26" value="&lt;h2&gt;&lt;span style=&quot;font-weight: 400&quot;&gt;Redis&lt;/span&gt;&lt;/h2&gt;" style="rounded=0;whiteSpace=wrap;html=1;" vertex="1" parent="1">
          <mxGeometry x="-570" y="555" width="120" height="60" as="geometry" />
        </mxCell>
        <mxCell id="uAtIhjqp2DDbtPSCuf9U-27" value="&lt;h2&gt;&lt;span style=&quot;font-weight: 400&quot;&gt;Redis&lt;/span&gt;&lt;/h2&gt;" style="rounded=0;whiteSpace=wrap;html=1;" vertex="1" parent="1">
          <mxGeometry x="-570" y="320" width="120" height="60" as="geometry" />
        </mxCell>
        <mxCell id="uAtIhjqp2DDbtPSCuf9U-28" value="&lt;h2&gt;&lt;span style=&quot;font-weight: 400&quot;&gt;Mysql&lt;/span&gt;&lt;/h2&gt;" style="rounded=0;whiteSpace=wrap;html=1;" vertex="1" parent="1">
          <mxGeometry x="-570" y="390" width="120" height="60" as="geometry" />
        </mxCell>
        <mxCell id="uAtIhjqp2DDbtPSCuf9U-29" value="&lt;h2&gt;&lt;span style=&quot;font-weight: 400&quot;&gt;Redis&lt;/span&gt;&lt;/h2&gt;" style="rounded=0;whiteSpace=wrap;html=1;" vertex="1" parent="1">
          <mxGeometry x="-570" y="80" width="120" height="60" as="geometry" />
        </mxCell>
        <mxCell id="uAtIhjqp2DDbtPSCuf9U-30" value="&lt;h2&gt;&lt;span style=&quot;font-weight: 400&quot;&gt;Mysql&lt;/span&gt;&lt;/h2&gt;" style="rounded=0;whiteSpace=wrap;html=1;" vertex="1" parent="1">
          <mxGeometry x="-570" y="150" width="120" height="60" as="geometry" />
        </mxCell>
        <mxCell id="uAtIhjqp2DDbtPSCuf9U-31" value="&lt;h2&gt;&lt;span style=&quot;font-weight: 400&quot;&gt;Redis&lt;/span&gt;&lt;/h2&gt;" style="rounded=0;whiteSpace=wrap;html=1;" vertex="1" parent="1">
          <mxGeometry x="-250" y="80" width="120" height="60" as="geometry" />
        </mxCell>
        <mxCell id="uAtIhjqp2DDbtPSCuf9U-32" value="&lt;h2&gt;&lt;span style=&quot;font-weight: 400&quot;&gt;Mysql&lt;/span&gt;&lt;/h2&gt;" style="rounded=0;whiteSpace=wrap;html=1;" vertex="1" parent="1">
          <mxGeometry x="-250" y="150" width="120" height="60" as="geometry" />
        </mxCell>
        <mxCell id="uAtIhjqp2DDbtPSCuf9U-33" value="&lt;h2&gt;&lt;span style=&quot;font-weight: 400&quot;&gt;Mysql&lt;/span&gt;&lt;/h2&gt;" style="rounded=0;whiteSpace=wrap;html=1;" vertex="1" parent="1">
          <mxGeometry x="-240" y="390" width="120" height="60" as="geometry" />
        </mxCell>
        <mxCell id="uAtIhjqp2DDbtPSCuf9U-34" value="&lt;h2&gt;&lt;span style=&quot;font-weight: 400&quot;&gt;Redis&lt;/span&gt;&lt;/h2&gt;" style="rounded=0;whiteSpace=wrap;html=1;" vertex="1" parent="1">
          <mxGeometry x="-240" y="320" width="120" height="60" as="geometry" />
        </mxCell>
        <mxCell id="uAtIhjqp2DDbtPSCuf9U-35" value="&lt;h2&gt;&lt;span style=&quot;font-weight: 400&quot;&gt;Redis&lt;/span&gt;&lt;/h2&gt;" style="rounded=0;whiteSpace=wrap;html=1;" vertex="1" parent="1">
          <mxGeometry x="-240" y="550" width="120" height="60" as="geometry" />
        </mxCell>
        <mxCell id="uAtIhjqp2DDbtPSCuf9U-37" value="&lt;h2&gt;&lt;span style=&quot;font-weight: 400&quot;&gt;Mysql&lt;/span&gt;&lt;/h2&gt;" style="rounded=0;whiteSpace=wrap;html=1;" vertex="1" parent="1">
          <mxGeometry x="-240" y="630" width="120" height="60" as="geometry" />
        </mxCell>
        <mxCell id="uAtIhjqp2DDbtPSCuf9U-38" value="" style="shape=image;verticalLabelPosition=bottom;labelBackgroundColor=#ffffff;verticalAlign=top;aspect=fixed;imageAspect=0;image=data:image/png,iVBORw0KGgoAAAANSUhEUgAAASQAAADjCAYAAAAsY2lUAAAM2klEQVR4Ae2XPW6UWRREvSw2Q8IK2MAkE0I80YgVWJpoVjCaBBDRrAYIeuTgSmXjn3Z3f1+/qjpI1jMiuadcdWjfHML//P3Pf4c3bz/wRQZ0wKADN8k+QkaImP+MvDoQKyRk5FVExMHP664DkUJ6KKP3H28P33/8TP4wCBsJWCXw51//PvordJyQkJFVLzm2MIGnZBT3CQkZFbYbZKsEHsro3W+f7n1SivmEhIysesmxhQk8JqPPX77mCQkZFbYbZKsEnpLRt2/fsoSEjKx6ybGFCTwnoyghIaPCdoNslcBLMooREjKy6iXHFiZwjIwihISMCtsNslUCx8rIXkjIyKqXHFuYwGtkZC0kZFTYbpCtEnitjGyFhIysesmxhQmcIiNLISGjwnaDbJXAqTKyExIysuolxxYmcI6MrISEjArbDbJVAufKyEZIyMiqlxxbmMAlZGQhJGRU2G6QrRK4lIyWFxIysuolxxYmcEkZLS0kZFTYbpCtEri0jJYVEjKy6iXHFiawhYyWFBIyKmw3yFYJbCWj5YSEjKx6ybGFCWwpo6WEhIwK2w2yVQJby2gZISEjq15ybGECe8hoCSEho8J2g2yVwF4yurqQkJFVLzm2MIE9ZXRVISGjwnaDbJXA3jK6mpCQkVUvObYwgWvI6CpCQkaF7QbZKoFryWh3ISEjq15ybGEC15TRrkJCRoXtBtkqgWvLaDchISOrXnJsYQIryGgXISGjwnaDbJXAKjLaXEjIyKqXHFuYwEoy2lRIyKiw3SBbJbCajDYTEjKy6iXHFiawoow2ERIyKmw3yFYJrCqjiwsJGVn1kmMLE1hZRhcVEjIqbDfIVgmsLqOLCQkZWfWSYwsTcJDRRYSEjArbDbJVAi4yOltIyMiqlxxbmICTjM4SEjIqbDfIVgm4yehkISEjq15ybGECjjI6SUjIqLDdIFsl4CqjVwsJGVn1kmMLE3CW0auEhIwK2w2yVQLuMjpaSMjIqpccW5hAgoyOEhIyKmw3yFYJpMjoRSEhI6tecmxhAkkyelZIyKiw3SBbJZAmoyeFhIysesmxhQkkyuhRISGjwnaDbJVAqox+EdJDGb15++HAFxnQgXU78O63T4fPX74e7sac8KVdu9G/8P26JeRnw8/mrgNpMvrlExJFp+h0wKcDSZ+M5tOd9u/eJySrX6o5lgRKEtDBzoiTXuVDSCWlBtM3AR1skoiGRfkQkm9PubwkAR3sjDjpVT6EVFJqMH0T0MEmiWhYlA8h+faUy0sS0MHOiJNe5UNIJaUG0zcBHWySiIZF+RCSb0+5vCQBHeyMOOlVPoRUUmowfRPQwSaJaFiUDyH59pTLSxLQwc6Ik17lQ0glpQbTNwEdbJKIhkX5EJJvT7m8JAEd7Iw46VU+hFRSajB9E9DBJoloWJQPIfn2lMtLEtDBzoiTXuVDSCWlBtM3AR1skoiGRfkQkm9PubwkAR3sjDjpVT6EVFJqMH0T0MEmiWhYlA8h+faUy0sS0MHOiJNe5UNIJaUG0zcBHWySiIZF+RCSb0+5vCQBHeyMOOlVPoRUUmowfRPQwSaJaFiUDyH59pTLSxLQwc6Ik17lQ0glpQbTNwEdbJKIhkX5EJJvT7m8JAEd7Iw46VU+hFRSajB9E9DBJoloWJQPIfn2lMtLEtDBzoiTXuVDSCWlBtM3AR1skoiGRfkQkm9PubwkAR3sjDjpVT6EVFJqMH0T0MEmiWhYlA8h+faUy0sS0MHOiJNe5UNIJaUG0zcBHWySiIZF+RCSb0+5vCQBHeyMOOlVPoRUUmowfRPQwSaJaFiUDyH59pTLSxLQwc6Ik17lQ0glpQbTNwEdbJKIhkX5EJJvT7m8JAEd7Iw46VU+hFRSajB9E9DBJoloWJQPIfn2lMtLEtDBzoiTXuVDSCWlBtM3AR1skoiGRfkQkm9PubwkAR3sjDjpVT6EVFJqMH0T0MEmiWhYlA8h+faUy0sS0MHOiJNe5UNIJaUG0zcBHWySiIZF+RCSb0+5vCQBHeyMOOlVPoRUUmowfRPQwSaJaFiUDyH59pTLSxLQwc6Ik17lQ0glpQbTNwEdbJKIhkX5EJJvT7m8JAEd7Iw46VU+hFRSajB9E9DBJoloWJQPIfn2lMtLEtDBzoiTXuVDSCWlBtM3AR1skoiGRfkQkm9PubwkAR3sjDjpVT6EVFJqMH0T0MEmiWhYlA8h+faUy0sS0MHOiJNe5UNIJaUG0zcBHWySiIZF+RCSb0+5vCQBHeyMOOlVPoRUUmowfRPQwSaJaFiUDyH59pTLSxLQwc6Ik17lQ0glpQbTNwEdbJKIhkX5EJJvT7m8JAEd7Iw46VU+hFRSajB9E9DBJoloWJQPIfn2lMtLEtDBzoiTXuVDSCWlBtM3AR1skoiGRfkQkm9PubwkAR3sjDjpVT6EVFJqMH0T0MEmiWhYlA8h+faUy0sS0MHOiJNe5UNIJaUG0zcBHWySiIZF+RCSb0+5vCQBHeyMOOlVPoRUUmowfRPQwSaJaFiUDyH59pTLSxLQwc6Ik17lQ0glpQbTNwEdbJKIhkX5EJJvT7m8JAEd7Iw46VU+hFRSajB9E9DBJoloWJQPIfn2lMtLEtDBzoiTXuVDSCWlBtM3AR1skoiGRfkQkm9PubwkAR3sjDjpVT6EVFJqMH0T0MEmiWhYlA8h+faUy0sS0MHOiJNe5UNIJaUG0zcBHWySiIZF+RCSb0+5vCQBHeyMOOlVPoRUUmowfRPQwSaJaFiUDyH59pTLSxLQwc6Ik17lQ0glpQbTNwEdbJKIhkX5EJJvT7m8JAEd7Iw46VU+hFRSajB9E9DBJoloWJQPIfn2lMtLEtDBzoiTXuVDSCWlBtM3AR1skoiGRfkQkm9PubwkAR3sjDjpVT6EVFJqMH0T0MEmiWhYlA8h+faUy0sS0MHOiJNe5UNIJaUG0zcBHWySiIZF+RCSb0+5vCQBHeyMOOlVPoRUUmowfRPQwSaJaFiUDyH59pTLSxLQwc6Ik17lQ0glpQbTNwEdbJKIhkX5EJJvT7m8JAEd7Iw46VU+hFRSajB9E9DBJoloWJQPIfn2lMtLEtDBzoiTXuVDSCWlBtM3AR1skoiGRfkQkm9PubwkAR3sjDjpVT6EVFJqMH0T0MEmiWhYlA8h+faUy0sS0MHOiJNe5UNIJaUG0zcBHWySiIZF+RCSb0+5vCQBHeyMOOlVPoRUUmowfRPQwSaJaFiUDyH59pTLSxLQwc6Ik17lQ0glpQbTNwEdbJKIhkX5EJJvT7m8JAEd7Iw46VU+hFRSajB9E9DBJoloWJQPIfn2lMtLEtDBzoiTXuVDSCWlBtM3AR1skoiGRfkQkm9PubwkAR3sjDjl/f2P24PyIaSSUoPpm4AONkVEdxwPZfT+4+0BIfn2lMtLEkgU0mMy+v7jJ0Iq6TSYxgmkCekpGd39iPiEZFxUTu9IIElIz8kIIXX0GUrzBFKE9JKMEJJ5UTm/I4EEIR0jI4TU0WcozRNwF9KxMkJI5kXl/I4EnIX0GhkhpI4+Q2megKuQXisjhGReVM7vSMBRSKfICCF19BlK8wTchHSqjBCSeVE5vyMBJyGdIyOE1NFnKM0TcBHSuTJCSOZF5fyOBByEdAkZIaSOPkNpnsDqQrqUjBCSeVE5vyOBlYV0SRkhpI4+Q2mewKpCurSMEJJ5UTm/I4EVhbSFjBBSR5+hNE9gNSFtJSOEZF5Uzu9IYCUhbSkjhNTRZyjNE1hFSFvLCCGZF5XzOxJYQUh7yAghdfQZSvMEri2kvWSEkMyLyvkdCVxTSHvKCCF19BlK8wSuJaS9ZYSQzIvK+R0JXENI15ARQuroM5TmCewtpGvJCCGZF5XzOxLYU0jXlBFC6ugzlOYJ7CWka8sIIZkXlfM7EthDSCvICCF19BlK8wS2FtIqMkJI5kXl/I4EthTSSjJCSB19htI8ga2EtJqMEJJ5UTm/I4EthLSijBBSR5+hNE/g0kJaVUYIybyonN+RwCWFtLKMEFJHn6E0T+BSQlpdRgjJvKic35HAJYTkICOE1NFnKM0TOFdILjJCSOZF5fyOBM4RkpOMEFJHn6E0T+BUIbnJCCGZF5XzOxI4RUiOMkJIHX2G0jyB1wrJVUYIybyonN+RwGuE5CwjhNTRZyjNEzhWSO4yQkjmReX8jgSOEVKCjBBSR5+hNE/gJSGlyAghmReV8zsSeE5ISTJCSB19htI8gaeElCYjhGReVM7vSOAxISXKCCF19BlK8wQeCilVRgjJvKic35GACilZRgipo89QmiegQtLv33+8PXz/8dOc7v75Nwp4/5/4GwmQwAoJ6Ebn+0QZ3WV9T0gDy/vhQAZksGoHUmWEkN4yulVHx12PdzNZRggJIfFJ0KgD6TK6E9L/uiW3Gxsaa9IAAAAASUVORK5CYII=;" vertex="1" parent="1">
          <mxGeometry x="42.68000000000001" y="-90" width="347.32" height="270" as="geometry" />
        </mxCell>
        <mxCell id="uAtIhjqp2DDbtPSCuf9U-39" value="&lt;h2&gt;应用服务器&lt;/h2&gt;" style="text;html=1;strokeColor=none;fillColor=none;align=center;verticalAlign=middle;whiteSpace=wrap;rounded=0;" vertex="1" parent="1">
          <mxGeometry x="96.68" y="-70" width="150" height="30" as="geometry" />
        </mxCell>
        <mxCell id="uAtIhjqp2DDbtPSCuf9U-40" value="&lt;h2&gt;&lt;span style=&quot;font-weight: 400&quot;&gt;图书服务&lt;/span&gt;&lt;/h2&gt;&lt;div&gt;&lt;h2&gt;&lt;span style=&quot;font-weight: 400&quot;&gt;（可执行文件）&lt;/span&gt;&lt;/h2&gt;&lt;/div&gt;" style="rounded=0;whiteSpace=wrap;html=1;" vertex="1" parent="1">
          <mxGeometry x="52.68000000000001" y="40" width="170" height="60" as="geometry" />
        </mxCell>
        <mxCell id="uAtIhjqp2DDbtPSCuf9U-41" value="&lt;h2&gt;&lt;span style=&quot;font-weight: 400&quot;&gt;Docker部署&lt;/span&gt;&lt;/h2&gt;" style="rounded=0;whiteSpace=wrap;html=1;" vertex="1" parent="1">
          <mxGeometry x="232.68" y="-10" width="76" height="170" as="geometry" />
        </mxCell>
        <mxCell id="uAtIhjqp2DDbtPSCuf9U-46" value="" style="shape=image;verticalLabelPosition=bottom;labelBackgroundColor=#ffffff;verticalAlign=top;aspect=fixed;imageAspect=0;image=data:image/png,iVBORw0KGgoAAAANSUhEUgAAASQAAADjCAYAAAAsY2lUAAAM2klEQVR4Ae2XPW6UWRREvSw2Q8IK2MAkE0I80YgVWJpoVjCaBBDRrAYIeuTgSmXjn3Z3f1+/qjpI1jMiuadcdWjfHML//P3Pf4c3bz/wRQZ0wKADN8k+QkaImP+MvDoQKyRk5FVExMHP664DkUJ6KKP3H28P33/8TP4wCBsJWCXw51//PvordJyQkJFVLzm2MIGnZBT3CQkZFbYbZKsEHsro3W+f7n1SivmEhIysesmxhQk8JqPPX77mCQkZFbYbZKsEnpLRt2/fsoSEjKx6ybGFCTwnoyghIaPCdoNslcBLMooREjKy6iXHFiZwjIwihISMCtsNslUCx8rIXkjIyKqXHFuYwGtkZC0kZFTYbpCtEnitjGyFhIysesmxhQmcIiNLISGjwnaDbJXAqTKyExIysuolxxYmcI6MrISEjArbDbJVAufKyEZIyMiqlxxbmMAlZGQhJGRU2G6QrRK4lIyWFxIysuolxxYmcEkZLS0kZFTYbpCtEri0jJYVEjKy6iXHFiawhYyWFBIyKmw3yFYJbCWj5YSEjKx6ybGFCWwpo6WEhIwK2w2yVQJby2gZISEjq15ybGECe8hoCSEho8J2g2yVwF4yurqQkJFVLzm2MIE9ZXRVISGjwnaDbJXA3jK6mpCQkVUvObYwgWvI6CpCQkaF7QbZKoFryWh3ISEjq15ybGEC15TRrkJCRoXtBtkqgWvLaDchISOrXnJsYQIryGgXISGjwnaDbJXAKjLaXEjIyKqXHFuYwEoy2lRIyKiw3SBbJbCajDYTEjKy6iXHFiawoow2ERIyKmw3yFYJrCqjiwsJGVn1kmMLE1hZRhcVEjIqbDfIVgmsLqOLCQkZWfWSYwsTcJDRRYSEjArbDbJVAi4yOltIyMiqlxxbmICTjM4SEjIqbDfIVgm4yehkISEjq15ybGECjjI6SUjIqLDdIFsl4CqjVwsJGVn1kmMLE3CW0auEhIwK2w2yVQLuMjpaSMjIqpccW5hAgoyOEhIyKmw3yFYJpMjoRSEhI6tecmxhAkkyelZIyKiw3SBbJZAmoyeFhIysesmxhQkkyuhRISGjwnaDbJVAqox+EdJDGb15++HAFxnQgXU78O63T4fPX74e7sac8KVdu9G/8P26JeRnw8/mrgNpMvrlExJFp+h0wKcDSZ+M5tOd9u/eJySrX6o5lgRKEtDBzoiTXuVDSCWlBtM3AR1skoiGRfkQkm9PubwkAR3sjDjpVT6EVFJqMH0T0MEmiWhYlA8h+faUy0sS0MHOiJNe5UNIJaUG0zcBHWySiIZF+RCSb0+5vCQBHeyMOOlVPoRUUmowfRPQwSaJaFiUDyH59pTLSxLQwc6Ik17lQ0glpQbTNwEdbJKIhkX5EJJvT7m8JAEd7Iw46VU+hFRSajB9E9DBJoloWJQPIfn2lMtLEtDBzoiTXuVDSCWlBtM3AR1skoiGRfkQkm9PubwkAR3sjDjpVT6EVFJqMH0T0MEmiWhYlA8h+faUy0sS0MHOiJNe5UNIJaUG0zcBHWySiIZF+RCSb0+5vCQBHeyMOOlVPoRUUmowfRPQwSaJaFiUDyH59pTLSxLQwc6Ik17lQ0glpQbTNwEdbJKIhkX5EJJvT7m8JAEd7Iw46VU+hFRSajB9E9DBJoloWJQPIfn2lMtLEtDBzoiTXuVDSCWlBtM3AR1skoiGRfkQkm9PubwkAR3sjDjpVT6EVFJqMH0T0MEmiWhYlA8h+faUy0sS0MHOiJNe5UNIJaUG0zcBHWySiIZF+RCSb0+5vCQBHeyMOOlVPoRUUmowfRPQwSaJaFiUDyH59pTLSxLQwc6Ik17lQ0glpQbTNwEdbJKIhkX5EJJvT7m8JAEd7Iw46VU+hFRSajB9E9DBJoloWJQPIfn2lMtLEtDBzoiTXuVDSCWlBtM3AR1skoiGRfkQkm9PubwkAR3sjDjpVT6EVFJqMH0T0MEmiWhYlA8h+faUy0sS0MHOiJNe5UNIJaUG0zcBHWySiIZF+RCSb0+5vCQBHeyMOOlVPoRUUmowfRPQwSaJaFiUDyH59pTLSxLQwc6Ik17lQ0glpQbTNwEdbJKIhkX5EJJvT7m8JAEd7Iw46VU+hFRSajB9E9DBJoloWJQPIfn2lMtLEtDBzoiTXuVDSCWlBtM3AR1skoiGRfkQkm9PubwkAR3sjDjpVT6EVFJqMH0T0MEmiWhYlA8h+faUy0sS0MHOiJNe5UNIJaUG0zcBHWySiIZF+RCSb0+5vCQBHeyMOOlVPoRUUmowfRPQwSaJaFiUDyH59pTLSxLQwc6Ik17lQ0glpQbTNwEdbJKIhkX5EJJvT7m8JAEd7Iw46VU+hFRSajB9E9DBJoloWJQPIfn2lMtLEtDBzoiTXuVDSCWlBtM3AR1skoiGRfkQkm9PubwkAR3sjDjpVT6EVFJqMH0T0MEmiWhYlA8h+faUy0sS0MHOiJNe5UNIJaUG0zcBHWySiIZF+RCSb0+5vCQBHeyMOOlVPoRUUmowfRPQwSaJaFiUDyH59pTLSxLQwc6Ik17lQ0glpQbTNwEdbJKIhkX5EJJvT7m8JAEd7Iw46VU+hFRSajB9E9DBJoloWJQPIfn2lMtLEtDBzoiTXuVDSCWlBtM3AR1skoiGRfkQkm9PubwkAR3sjDjpVT6EVFJqMH0T0MEmiWhYlA8h+faUy0sS0MHOiJNe5UNIJaUG0zcBHWySiIZF+RCSb0+5vCQBHeyMOOlVPoRUUmowfRPQwSaJaFiUDyH59pTLSxLQwc6Ik17lQ0glpQbTNwEdbJKIhkX5EJJvT7m8JAEd7Iw46VU+hFRSajB9E9DBJoloWJQPIfn2lMtLEtDBzoiTXuVDSCWlBtM3AR1skoiGRfkQkm9PubwkAR3sjDjpVT6EVFJqMH0T0MEmiWhYlA8h+faUy0sS0MHOiJNe5UNIJaUG0zcBHWySiIZF+RCSb0+5vCQBHeyMOOlVPoRUUmowfRPQwSaJaFiUDyH59pTLSxLQwc6Ik17lQ0glpQbTNwEdbJKIhkX5EJJvT7m8JAEd7Iw46VU+hFRSajB9E9DBJoloWJQPIfn2lMtLEtDBzoiTXuVDSCWlBtM3AR1skoiGRfkQkm9PubwkAR3sjDjpVT6EVFJqMH0T0MEmiWhYlA8h+faUy0sS0MHOiJNe5UNIJaUG0zcBHWySiIZF+RCSb0+5vCQBHeyMOOlVPoRUUmowfRPQwSaJaFiUDyH59pTLSxLQwc6Ik17lQ0glpQbTNwEdbJKIhkX5EJJvT7m8JAEd7Iw46VU+hFRSajB9E9DBJoloWJQPIfn2lMtLEtDBzoiTXuVDSCWlBtM3AR1skoiGRfkQkm9PubwkAR3sjDjl/f2P24PyIaSSUoPpm4AONkVEdxwPZfT+4+0BIfn2lMtLEkgU0mMy+v7jJ0Iq6TSYxgmkCekpGd39iPiEZFxUTu9IIElIz8kIIXX0GUrzBFKE9JKMEJJ5UTm/I4EEIR0jI4TU0WcozRNwF9KxMkJI5kXl/I4EnIX0GhkhpI4+Q2megKuQXisjhGReVM7vSMBRSKfICCF19BlK8wTchHSqjBCSeVE5vyMBJyGdIyOE1NFnKM0TcBHSuTJCSOZF5fyOBByEdAkZIaSOPkNpnsDqQrqUjBCSeVE5vyOBlYV0SRkhpI4+Q2mewKpCurSMEJJ5UTm/I4EVhbSFjBBSR5+hNE9gNSFtJSOEZF5Uzu9IYCUhbSkjhNTRZyjNE1hFSFvLCCGZF5XzOxJYQUh7yAghdfQZSvMEri2kvWSEkMyLyvkdCVxTSHvKCCF19BlK8wSuJaS9ZYSQzIvK+R0JXENI15ARQuroM5TmCewtpGvJCCGZF5XzOxLYU0jXlBFC6ugzlOYJ7CWka8sIIZkXlfM7EthDSCvICCF19BlK8wS2FtIqMkJI5kXl/I4EthTSSjJCSB19htI8ga2EtJqMEJJ5UTm/I4EthLSijBBSR5+hNE/g0kJaVUYIybyonN+RwCWFtLKMEFJHn6E0T+BSQlpdRgjJvKic35HAJYTkICOE1NFnKM0TOFdILjJCSOZF5fyOBM4RkpOMEFJHn6E0T+BUIbnJCCGZF5XzOxI4RUiOMkJIHX2G0jyB1wrJVUYIybyonN+RwGuE5CwjhNTRZyjNEzhWSO4yQkjmReX8jgSOEVKCjBBSR5+hNE/gJSGlyAghmReV8zsSeE5ISTJCSB19htI8gaeElCYjhGReVM7vSOAxISXKCCF19BlK8wQeCilVRgjJvKic35GACilZRgipo89QmiegQtLv33+8PXz/8dOc7v75Nwp4/5/4GwmQwAoJ6Ebn+0QZ3WV9T0gDy/vhQAZksGoHUmWEkN4yulVHx12PdzNZRggJIfFJ0KgD6TK6E9L/uiW3Gxsaa9IAAAAASUVORK5CYII=;" vertex="1" parent="1">
          <mxGeometry x="-1030" y="-70" width="347.32" height="270" as="geometry" />
        </mxCell>
        <mxCell id="uAtIhjqp2DDbtPSCuf9U-47" value="&lt;h2&gt;应用服务器&lt;/h2&gt;" style="text;html=1;strokeColor=none;fillColor=none;align=center;verticalAlign=middle;whiteSpace=wrap;rounded=0;" vertex="1" parent="1">
          <mxGeometry x="-976" y="-50" width="150" height="30" as="geometry" />
        </mxCell>
        <mxCell id="uAtIhjqp2DDbtPSCuf9U-48" value="&lt;h2&gt;&lt;span style=&quot;font-weight: 400&quot;&gt;归还服务&lt;/span&gt;&lt;/h2&gt;&lt;h2&gt;&lt;span style=&quot;font-weight: 400&quot;&gt;（可执行文件）&lt;/span&gt;&lt;/h2&gt;" style="rounded=0;whiteSpace=wrap;html=1;" vertex="1" parent="1">
          <mxGeometry x="-1020" y="60" width="170" height="60" as="geometry" />
        </mxCell>
        <mxCell id="uAtIhjqp2DDbtPSCuf9U-49" value="&lt;h2&gt;&lt;span style=&quot;font-weight: 400&quot;&gt;Docker部署&lt;/span&gt;&lt;/h2&gt;" style="rounded=0;whiteSpace=wrap;html=1;" vertex="1" parent="1">
          <mxGeometry x="-840" y="10" width="76" height="170" as="geometry" />
        </mxCell>
        <mxCell id="uAtIhjqp2DDbtPSCuf9U-50" value="" style="shape=image;verticalLabelPosition=bottom;labelBackgroundColor=#ffffff;verticalAlign=top;aspect=fixed;imageAspect=0;image=data:image/png,iVBORw0KGgoAAAANSUhEUgAAASQAAADjCAYAAAAsY2lUAAAM2klEQVR4Ae2XPW6UWRREvSw2Q8IK2MAkE0I80YgVWJpoVjCaBBDRrAYIeuTgSmXjn3Z3f1+/qjpI1jMiuadcdWjfHML//P3Pf4c3bz/wRQZ0wKADN8k+QkaImP+MvDoQKyRk5FVExMHP664DkUJ6KKP3H28P33/8TP4wCBsJWCXw51//PvordJyQkJFVLzm2MIGnZBT3CQkZFbYbZKsEHsro3W+f7n1SivmEhIysesmxhQk8JqPPX77mCQkZFbYbZKsEnpLRt2/fsoSEjKx6ybGFCTwnoyghIaPCdoNslcBLMooREjKy6iXHFiZwjIwihISMCtsNslUCx8rIXkjIyKqXHFuYwGtkZC0kZFTYbpCtEnitjGyFhIysesmxhQmcIiNLISGjwnaDbJXAqTKyExIysuolxxYmcI6MrISEjArbDbJVAufKyEZIyMiqlxxbmMAlZGQhJGRU2G6QrRK4lIyWFxIysuolxxYmcEkZLS0kZFTYbpCtEri0jJYVEjKy6iXHFiawhYyWFBIyKmw3yFYJbCWj5YSEjKx6ybGFCWwpo6WEhIwK2w2yVQJby2gZISEjq15ybGECe8hoCSEho8J2g2yVwF4yurqQkJFVLzm2MIE9ZXRVISGjwnaDbJXA3jK6mpCQkVUvObYwgWvI6CpCQkaF7QbZKoFryWh3ISEjq15ybGEC15TRrkJCRoXtBtkqgWvLaDchISOrXnJsYQIryGgXISGjwnaDbJXAKjLaXEjIyKqXHFuYwEoy2lRIyKiw3SBbJbCajDYTEjKy6iXHFiawoow2ERIyKmw3yFYJrCqjiwsJGVn1kmMLE1hZRhcVEjIqbDfIVgmsLqOLCQkZWfWSYwsTcJDRRYSEjArbDbJVAi4yOltIyMiqlxxbmICTjM4SEjIqbDfIVgm4yehkISEjq15ybGECjjI6SUjIqLDdIFsl4CqjVwsJGVn1kmMLE3CW0auEhIwK2w2yVQLuMjpaSMjIqpccW5hAgoyOEhIyKmw3yFYJpMjoRSEhI6tecmxhAkkyelZIyKiw3SBbJZAmoyeFhIysesmxhQkkyuhRISGjwnaDbJVAqox+EdJDGb15++HAFxnQgXU78O63T4fPX74e7sac8KVdu9G/8P26JeRnw8/mrgNpMvrlExJFp+h0wKcDSZ+M5tOd9u/eJySrX6o5lgRKEtDBzoiTXuVDSCWlBtM3AR1skoiGRfkQkm9PubwkAR3sjDjpVT6EVFJqMH0T0MEmiWhYlA8h+faUy0sS0MHOiJNe5UNIJaUG0zcBHWySiIZF+RCSb0+5vCQBHeyMOOlVPoRUUmowfRPQwSaJaFiUDyH59pTLSxLQwc6Ik17lQ0glpQbTNwEdbJKIhkX5EJJvT7m8JAEd7Iw46VU+hFRSajB9E9DBJoloWJQPIfn2lMtLEtDBzoiTXuVDSCWlBtM3AR1skoiGRfkQkm9PubwkAR3sjDjpVT6EVFJqMH0T0MEmiWhYlA8h+faUy0sS0MHOiJNe5UNIJaUG0zcBHWySiIZF+RCSb0+5vCQBHeyMOOlVPoRUUmowfRPQwSaJaFiUDyH59pTLSxLQwc6Ik17lQ0glpQbTNwEdbJKIhkX5EJJvT7m8JAEd7Iw46VU+hFRSajB9E9DBJoloWJQPIfn2lMtLEtDBzoiTXuVDSCWlBtM3AR1skoiGRfkQkm9PubwkAR3sjDjpVT6EVFJqMH0T0MEmiWhYlA8h+faUy0sS0MHOiJNe5UNIJaUG0zcBHWySiIZF+RCSb0+5vCQBHeyMOOlVPoRUUmowfRPQwSaJaFiUDyH59pTLSxLQwc6Ik17lQ0glpQbTNwEdbJKIhkX5EJJvT7m8JAEd7Iw46VU+hFRSajB9E9DBJoloWJQPIfn2lMtLEtDBzoiTXuVDSCWlBtM3AR1skoiGRfkQkm9PubwkAR3sjDjpVT6EVFJqMH0T0MEmiWhYlA8h+faUy0sS0MHOiJNe5UNIJaUG0zcBHWySiIZF+RCSb0+5vCQBHeyMOOlVPoRUUmowfRPQwSaJaFiUDyH59pTLSxLQwc6Ik17lQ0glpQbTNwEdbJKIhkX5EJJvT7m8JAEd7Iw46VU+hFRSajB9E9DBJoloWJQPIfn2lMtLEtDBzoiTXuVDSCWlBtM3AR1skoiGRfkQkm9PubwkAR3sjDjpVT6EVFJqMH0T0MEmiWhYlA8h+faUy0sS0MHOiJNe5UNIJaUG0zcBHWySiIZF+RCSb0+5vCQBHeyMOOlVPoRUUmowfRPQwSaJaFiUDyH59pTLSxLQwc6Ik17lQ0glpQbTNwEdbJKIhkX5EJJvT7m8JAEd7Iw46VU+hFRSajB9E9DBJoloWJQPIfn2lMtLEtDBzoiTXuVDSCWlBtM3AR1skoiGRfkQkm9PubwkAR3sjDjpVT6EVFJqMH0T0MEmiWhYlA8h+faUy0sS0MHOiJNe5UNIJaUG0zcBHWySiIZF+RCSb0+5vCQBHeyMOOlVPoRUUmowfRPQwSaJaFiUDyH59pTLSxLQwc6Ik17lQ0glpQbTNwEdbJKIhkX5EJJvT7m8JAEd7Iw46VU+hFRSajB9E9DBJoloWJQPIfn2lMtLEtDBzoiTXuVDSCWlBtM3AR1skoiGRfkQkm9PubwkAR3sjDjpVT6EVFJqMH0T0MEmiWhYlA8h+faUy0sS0MHOiJNe5UNIJaUG0zcBHWySiIZF+RCSb0+5vCQBHeyMOOlVPoRUUmowfRPQwSaJaFiUDyH59pTLSxLQwc6Ik17lQ0glpQbTNwEdbJKIhkX5EJJvT7m8JAEd7Iw46VU+hFRSajB9E9DBJoloWJQPIfn2lMtLEtDBzoiTXuVDSCWlBtM3AR1skoiGRfkQkm9PubwkAR3sjDjpVT6EVFJqMH0T0MEmiWhYlA8h+faUy0sS0MHOiJNe5UNIJaUG0zcBHWySiIZF+RCSb0+5vCQBHeyMOOlVPoRUUmowfRPQwSaJaFiUDyH59pTLSxLQwc6Ik17lQ0glpQbTNwEdbJKIhkX5EJJvT7m8JAEd7Iw46VU+hFRSajB9E9DBJoloWJQPIfn2lMtLEtDBzoiTXuVDSCWlBtM3AR1skoiGRfkQkm9PubwkAR3sjDjpVT6EVFJqMH0T0MEmiWhYlA8h+faUy0sS0MHOiJNe5UNIJaUG0zcBHWySiIZF+RCSb0+5vCQBHeyMOOlVPoRUUmowfRPQwSaJaFiUDyH59pTLSxLQwc6Ik17lQ0glpQbTNwEdbJKIhkX5EJJvT7m8JAEd7Iw46VU+hFRSajB9E9DBJoloWJQPIfn2lMtLEtDBzoiTXuVDSCWlBtM3AR1skoiGRfkQkm9PubwkAR3sjDjl/f2P24PyIaSSUoPpm4AONkVEdxwPZfT+4+0BIfn2lMtLEkgU0mMy+v7jJ0Iq6TSYxgmkCekpGd39iPiEZFxUTu9IIElIz8kIIXX0GUrzBFKE9JKMEJJ5UTm/I4EEIR0jI4TU0WcozRNwF9KxMkJI5kXl/I4EnIX0GhkhpI4+Q2megKuQXisjhGReVM7vSMBRSKfICCF19BlK8wTchHSqjBCSeVE5vyMBJyGdIyOE1NFnKM0TcBHSuTJCSOZF5fyOBByEdAkZIaSOPkNpnsDqQrqUjBCSeVE5vyOBlYV0SRkhpI4+Q2mewKpCurSMEJJ5UTm/I4EVhbSFjBBSR5+hNE9gNSFtJSOEZF5Uzu9IYCUhbSkjhNTRZyjNE1hFSFvLCCGZF5XzOxJYQUh7yAghdfQZSvMEri2kvWSEkMyLyvkdCVxTSHvKCCF19BlK8wSuJaS9ZYSQzIvK+R0JXENI15ARQuroM5TmCewtpGvJCCGZF5XzOxLYU0jXlBFC6ugzlOYJ7CWka8sIIZkXlfM7EthDSCvICCF19BlK8wS2FtIqMkJI5kXl/I4EthTSSjJCSB19htI8ga2EtJqMEJJ5UTm/I4EthLSijBBSR5+hNE/g0kJaVUYIybyonN+RwCWFtLKMEFJHn6E0T+BSQlpdRgjJvKic35HAJYTkICOE1NFnKM0TOFdILjJCSOZF5fyOBM4RkpOMEFJHn6E0T+BUIbnJCCGZF5XzOxI4RUiOMkJIHX2G0jyB1wrJVUYIybyonN+RwGuE5CwjhNTRZyjNEzhWSO4yQkjmReX8jgSOEVKCjBBSR5+hNE/gJSGlyAghmReV8zsSeE5ISTJCSB19htI8gaeElCYjhGReVM7vSOAxISXKCCF19BlK8wQeCilVRgjJvKic35GACilZRgipo89QmiegQtLv33+8PXz/8dOc7v75Nwp4/5/4GwmQwAoJ6Ebn+0QZ3WV9T0gDy/vhQAZksGoHUmWEkN4yulVHx12PdzNZRggJIfFJ0KgD6TK6E9L/uiW3Gxsaa9IAAAAASUVORK5CYII=;" vertex="1" parent="1">
          <mxGeometry x="-1030" y="241.5" width="347.32" height="270" as="geometry" />
        </mxCell>
        <mxCell id="uAtIhjqp2DDbtPSCuf9U-51" value="&lt;h2&gt;应用服务器&lt;/h2&gt;" style="text;html=1;strokeColor=none;fillColor=none;align=center;verticalAlign=middle;whiteSpace=wrap;rounded=0;" vertex="1" parent="1">
          <mxGeometry x="-976.0000000000001" y="261.5" width="150" height="30" as="geometry" />
        </mxCell>
        <mxCell id="uAtIhjqp2DDbtPSCuf9U-52" value="&lt;h2&gt;&lt;span style=&quot;font-weight: 400&quot;&gt;预约服务&lt;/span&gt;&lt;/h2&gt;&lt;div&gt;&lt;h2&gt;&lt;span style=&quot;font-weight: 400&quot;&gt;（可执行文件）&lt;/span&gt;&lt;/h2&gt;&lt;/div&gt;" style="rounded=0;whiteSpace=wrap;html=1;" vertex="1" parent="1">
          <mxGeometry x="-1020.0000000000001" y="371.5" width="170" height="60" as="geometry" />
        </mxCell>
        <mxCell id="uAtIhjqp2DDbtPSCuf9U-53" value="&lt;h2&gt;&lt;span style=&quot;font-weight: 400&quot;&gt;Docker部署&lt;/span&gt;&lt;/h2&gt;" style="rounded=0;whiteSpace=wrap;html=1;" vertex="1" parent="1">
          <mxGeometry x="-840.0000000000001" y="321.5" width="76" height="170" as="geometry" />
        </mxCell>
        <mxCell id="uAtIhjqp2DDbtPSCuf9U-54" value="" style="shape=image;verticalLabelPosition=bottom;labelBackgroundColor=#ffffff;verticalAlign=top;aspect=fixed;imageAspect=0;image=data:image/png,iVBORw0KGgoAAAANSUhEUgAAASQAAADjCAYAAAAsY2lUAAAM2klEQVR4Ae2XPW6UWRREvSw2Q8IK2MAkE0I80YgVWJpoVjCaBBDRrAYIeuTgSmXjn3Z3f1+/qjpI1jMiuadcdWjfHML//P3Pf4c3bz/wRQZ0wKADN8k+QkaImP+MvDoQKyRk5FVExMHP664DkUJ6KKP3H28P33/8TP4wCBsJWCXw51//PvordJyQkJFVLzm2MIGnZBT3CQkZFbYbZKsEHsro3W+f7n1SivmEhIysesmxhQk8JqPPX77mCQkZFbYbZKsEnpLRt2/fsoSEjKx6ybGFCTwnoyghIaPCdoNslcBLMooREjKy6iXHFiZwjIwihISMCtsNslUCx8rIXkjIyKqXHFuYwGtkZC0kZFTYbpCtEnitjGyFhIysesmxhQmcIiNLISGjwnaDbJXAqTKyExIysuolxxYmcI6MrISEjArbDbJVAufKyEZIyMiqlxxbmMAlZGQhJGRU2G6QrRK4lIyWFxIysuolxxYmcEkZLS0kZFTYbpCtEri0jJYVEjKy6iXHFiawhYyWFBIyKmw3yFYJbCWj5YSEjKx6ybGFCWwpo6WEhIwK2w2yVQJby2gZISEjq15ybGECe8hoCSEho8J2g2yVwF4yurqQkJFVLzm2MIE9ZXRVISGjwnaDbJXA3jK6mpCQkVUvObYwgWvI6CpCQkaF7QbZKoFryWh3ISEjq15ybGEC15TRrkJCRoXtBtkqgWvLaDchISOrXnJsYQIryGgXISGjwnaDbJXAKjLaXEjIyKqXHFuYwEoy2lRIyKiw3SBbJbCajDYTEjKy6iXHFiawoow2ERIyKmw3yFYJrCqjiwsJGVn1kmMLE1hZRhcVEjIqbDfIVgmsLqOLCQkZWfWSYwsTcJDRRYSEjArbDbJVAi4yOltIyMiqlxxbmICTjM4SEjIqbDfIVgm4yehkISEjq15ybGECjjI6SUjIqLDdIFsl4CqjVwsJGVn1kmMLE3CW0auEhIwK2w2yVQLuMjpaSMjIqpccW5hAgoyOEhIyKmw3yFYJpMjoRSEhI6tecmxhAkkyelZIyKiw3SBbJZAmoyeFhIysesmxhQkkyuhRISGjwnaDbJVAqox+EdJDGb15++HAFxnQgXU78O63T4fPX74e7sac8KVdu9G/8P26JeRnw8/mrgNpMvrlExJFp+h0wKcDSZ+M5tOd9u/eJySrX6o5lgRKEtDBzoiTXuVDSCWlBtM3AR1skoiGRfkQkm9PubwkAR3sjDjpVT6EVFJqMH0T0MEmiWhYlA8h+faUy0sS0MHOiJNe5UNIJaUG0zcBHWySiIZF+RCSb0+5vCQBHeyMOOlVPoRUUmowfRPQwSaJaFiUDyH59pTLSxLQwc6Ik17lQ0glpQbTNwEdbJKIhkX5EJJvT7m8JAEd7Iw46VU+hFRSajB9E9DBJoloWJQPIfn2lMtLEtDBzoiTXuVDSCWlBtM3AR1skoiGRfkQkm9PubwkAR3sjDjpVT6EVFJqMH0T0MEmiWhYlA8h+faUy0sS0MHOiJNe5UNIJaUG0zcBHWySiIZF+RCSb0+5vCQBHeyMOOlVPoRUUmowfRPQwSaJaFiUDyH59pTLSxLQwc6Ik17lQ0glpQbTNwEdbJKIhkX5EJJvT7m8JAEd7Iw46VU+hFRSajB9E9DBJoloWJQPIfn2lMtLEtDBzoiTXuVDSCWlBtM3AR1skoiGRfkQkm9PubwkAR3sjDjpVT6EVFJqMH0T0MEmiWhYlA8h+faUy0sS0MHOiJNe5UNIJaUG0zcBHWySiIZF+RCSb0+5vCQBHeyMOOlVPoRUUmowfRPQwSaJaFiUDyH59pTLSxLQwc6Ik17lQ0glpQbTNwEdbJKIhkX5EJJvT7m8JAEd7Iw46VU+hFRSajB9E9DBJoloWJQPIfn2lMtLEtDBzoiTXuVDSCWlBtM3AR1skoiGRfkQkm9PubwkAR3sjDjpVT6EVFJqMH0T0MEmiWhYlA8h+faUy0sS0MHOiJNe5UNIJaUG0zcBHWySiIZF+RCSb0+5vCQBHeyMOOlVPoRUUmowfRPQwSaJaFiUDyH59pTLSxLQwc6Ik17lQ0glpQbTNwEdbJKIhkX5EJJvT7m8JAEd7Iw46VU+hFRSajB9E9DBJoloWJQPIfn2lMtLEtDBzoiTXuVDSCWlBtM3AR1skoiGRfkQkm9PubwkAR3sjDjpVT6EVFJqMH0T0MEmiWhYlA8h+faUy0sS0MHOiJNe5UNIJaUG0zcBHWySiIZF+RCSb0+5vCQBHeyMOOlVPoRUUmowfRPQwSaJaFiUDyH59pTLSxLQwc6Ik17lQ0glpQbTNwEdbJKIhkX5EJJvT7m8JAEd7Iw46VU+hFRSajB9E9DBJoloWJQPIfn2lMtLEtDBzoiTXuVDSCWlBtM3AR1skoiGRfkQkm9PubwkAR3sjDjpVT6EVFJqMH0T0MEmiWhYlA8h+faUy0sS0MHOiJNe5UNIJaUG0zcBHWySiIZF+RCSb0+5vCQBHeyMOOlVPoRUUmowfRPQwSaJaFiUDyH59pTLSxLQwc6Ik17lQ0glpQbTNwEdbJKIhkX5EJJvT7m8JAEd7Iw46VU+hFRSajB9E9DBJoloWJQPIfn2lMtLEtDBzoiTXuVDSCWlBtM3AR1skoiGRfkQkm9PubwkAR3sjDjpVT6EVFJqMH0T0MEmiWhYlA8h+faUy0sS0MHOiJNe5UNIJaUG0zcBHWySiIZF+RCSb0+5vCQBHeyMOOlVPoRUUmowfRPQwSaJaFiUDyH59pTLSxLQwc6Ik17lQ0glpQbTNwEdbJKIhkX5EJJvT7m8JAEd7Iw46VU+hFRSajB9E9DBJoloWJQPIfn2lMtLEtDBzoiTXuVDSCWlBtM3AR1skoiGRfkQkm9PubwkAR3sjDjpVT6EVFJqMH0T0MEmiWhYlA8h+faUy0sS0MHOiJNe5UNIJaUG0zcBHWySiIZF+RCSb0+5vCQBHeyMOOlVPoRUUmowfRPQwSaJaFiUDyH59pTLSxLQwc6Ik17lQ0glpQbTNwEdbJKIhkX5EJJvT7m8JAEd7Iw46VU+hFRSajB9E9DBJoloWJQPIfn2lMtLEtDBzoiTXuVDSCWlBtM3AR1skoiGRfkQkm9PubwkAR3sjDjpVT6EVFJqMH0T0MEmiWhYlA8h+faUy0sS0MHOiJNe5UNIJaUG0zcBHWySiIZF+RCSb0+5vCQBHeyMOOlVPoRUUmowfRPQwSaJaFiUDyH59pTLSxLQwc6Ik17lQ0glpQbTNwEdbJKIhkX5EJJvT7m8JAEd7Iw46VU+hFRSajB9E9DBJoloWJQPIfn2lMtLEtDBzoiTXuVDSCWlBtM3AR1skoiGRfkQkm9PubwkAR3sjDjl/f2P24PyIaSSUoPpm4AONkVEdxwPZfT+4+0BIfn2lMtLEkgU0mMy+v7jJ0Iq6TSYxgmkCekpGd39iPiEZFxUTu9IIElIz8kIIXX0GUrzBFKE9JKMEJJ5UTm/I4EEIR0jI4TU0WcozRNwF9KxMkJI5kXl/I4EnIX0GhkhpI4+Q2megKuQXisjhGReVM7vSMBRSKfICCF19BlK8wTchHSqjBCSeVE5vyMBJyGdIyOE1NFnKM0TcBHSuTJCSOZF5fyOBByEdAkZIaSOPkNpnsDqQrqUjBCSeVE5vyOBlYV0SRkhpI4+Q2mewKpCurSMEJJ5UTm/I4EVhbSFjBBSR5+hNE9gNSFtJSOEZF5Uzu9IYCUhbSkjhNTRZyjNE1hFSFvLCCGZF5XzOxJYQUh7yAghdfQZSvMEri2kvWSEkMyLyvkdCVxTSHvKCCF19BlK8wSuJaS9ZYSQzIvK+R0JXENI15ARQuroM5TmCewtpGvJCCGZF5XzOxLYU0jXlBFC6ugzlOYJ7CWka8sIIZkXlfM7EthDSCvICCF19BlK8wS2FtIqMkJI5kXl/I4EthTSSjJCSB19htI8ga2EtJqMEJJ5UTm/I4EthLSijBBSR5+hNE/g0kJaVUYIybyonN+RwCWFtLKMEFJHn6E0T+BSQlpdRgjJvKic35HAJYTkICOE1NFnKM0TOFdILjJCSOZF5fyOBM4RkpOMEFJHn6E0T+BUIbnJCCGZF5XzOxI4RUiOMkJIHX2G0jyB1wrJVUYIybyonN+RwGuE5CwjhNTRZyjNEzhWSO4yQkjmReX8jgSOEVKCjBBSR5+hNE/gJSGlyAghmReV8zsSeE5ISTJCSB19htI8gaeElCYjhGReVM7vSOAxISXKCCF19BlK8wQeCilVRgjJvKic35GACilZRgipo89QmiegQtLv33+8PXz/8dOc7v75Nwp4/5/4GwmQwAoJ6Ebn+0QZ3WV9T0gDy/vhQAZksGoHUmWEkN4yulVHx12PdzNZRggJIfFJ0KgD6TK6E9L/uiW3Gxsaa9IAAAAASUVORK5CYII=;" vertex="1" parent="1">
          <mxGeometry x="40" y="208.5" width="347.32" height="270" as="geometry" />
        </mxCell>
        <mxCell id="uAtIhjqp2DDbtPSCuf9U-55" value="&lt;h2&gt;应用服务器&lt;/h2&gt;" style="text;html=1;strokeColor=none;fillColor=none;align=center;verticalAlign=middle;whiteSpace=wrap;rounded=0;" vertex="1" parent="1">
          <mxGeometry x="94" y="228.5" width="150" height="30" as="geometry" />
        </mxCell>
        <mxCell id="uAtIhjqp2DDbtPSCuf9U-56" value="&lt;h2&gt;&lt;span style=&quot;font-weight: 400&quot;&gt;用户服务&lt;/span&gt;&lt;/h2&gt;&lt;div&gt;&lt;h2&gt;&lt;span style=&quot;font-weight: 400&quot;&gt;（可执行文件）&lt;/span&gt;&lt;/h2&gt;&lt;/div&gt;" style="rounded=0;whiteSpace=wrap;html=1;" vertex="1" parent="1">
          <mxGeometry x="50" y="338.5" width="170" height="60" as="geometry" />
        </mxCell>
        <mxCell id="uAtIhjqp2DDbtPSCuf9U-57" value="&lt;h2&gt;&lt;span style=&quot;font-weight: 400&quot;&gt;Docker部署&lt;/span&gt;&lt;/h2&gt;" style="rounded=0;whiteSpace=wrap;html=1;" vertex="1" parent="1">
          <mxGeometry x="230" y="288.5" width="76" height="170" as="geometry" />
        </mxCell>
        <mxCell id="uAtIhjqp2DDbtPSCuf9U-58" value="" style="shape=image;verticalLabelPosition=bottom;labelBackgroundColor=#ffffff;verticalAlign=top;aspect=fixed;imageAspect=0;image=data:image/png,iVBORw0KGgoAAAANSUhEUgAAASQAAADjCAYAAAAsY2lUAAAM2klEQVR4Ae2XPW6UWRREvSw2Q8IK2MAkE0I80YgVWJpoVjCaBBDRrAYIeuTgSmXjn3Z3f1+/qjpI1jMiuadcdWjfHML//P3Pf4c3bz/wRQZ0wKADN8k+QkaImP+MvDoQKyRk5FVExMHP664DkUJ6KKP3H28P33/8TP4wCBsJWCXw51//PvordJyQkJFVLzm2MIGnZBT3CQkZFbYbZKsEHsro3W+f7n1SivmEhIysesmxhQk8JqPPX77mCQkZFbYbZKsEnpLRt2/fsoSEjKx6ybGFCTwnoyghIaPCdoNslcBLMooREjKy6iXHFiZwjIwihISMCtsNslUCx8rIXkjIyKqXHFuYwGtkZC0kZFTYbpCtEnitjGyFhIysesmxhQmcIiNLISGjwnaDbJXAqTKyExIysuolxxYmcI6MrISEjArbDbJVAufKyEZIyMiqlxxbmMAlZGQhJGRU2G6QrRK4lIyWFxIysuolxxYmcEkZLS0kZFTYbpCtEri0jJYVEjKy6iXHFiawhYyWFBIyKmw3yFYJbCWj5YSEjKx6ybGFCWwpo6WEhIwK2w2yVQJby2gZISEjq15ybGECe8hoCSEho8J2g2yVwF4yurqQkJFVLzm2MIE9ZXRVISGjwnaDbJXA3jK6mpCQkVUvObYwgWvI6CpCQkaF7QbZKoFryWh3ISEjq15ybGEC15TRrkJCRoXtBtkqgWvLaDchISOrXnJsYQIryGgXISGjwnaDbJXAKjLaXEjIyKqXHFuYwEoy2lRIyKiw3SBbJbCajDYTEjKy6iXHFiawoow2ERIyKmw3yFYJrCqjiwsJGVn1kmMLE1hZRhcVEjIqbDfIVgmsLqOLCQkZWfWSYwsTcJDRRYSEjArbDbJVAi4yOltIyMiqlxxbmICTjM4SEjIqbDfIVgm4yehkISEjq15ybGECjjI6SUjIqLDdIFsl4CqjVwsJGVn1kmMLE3CW0auEhIwK2w2yVQLuMjpaSMjIqpccW5hAgoyOEhIyKmw3yFYJpMjoRSEhI6tecmxhAkkyelZIyKiw3SBbJZAmoyeFhIysesmxhQkkyuhRISGjwnaDbJVAqox+EdJDGb15++HAFxnQgXU78O63T4fPX74e7sac8KVdu9G/8P26JeRnw8/mrgNpMvrlExJFp+h0wKcDSZ+M5tOd9u/eJySrX6o5lgRKEtDBzoiTXuVDSCWlBtM3AR1skoiGRfkQkm9PubwkAR3sjDjpVT6EVFJqMH0T0MEmiWhYlA8h+faUy0sS0MHOiJNe5UNIJaUG0zcBHWySiIZF+RCSb0+5vCQBHeyMOOlVPoRUUmowfRPQwSaJaFiUDyH59pTLSxLQwc6Ik17lQ0glpQbTNwEdbJKIhkX5EJJvT7m8JAEd7Iw46VU+hFRSajB9E9DBJoloWJQPIfn2lMtLEtDBzoiTXuVDSCWlBtM3AR1skoiGRfkQkm9PubwkAR3sjDjpVT6EVFJqMH0T0MEmiWhYlA8h+faUy0sS0MHOiJNe5UNIJaUG0zcBHWySiIZF+RCSb0+5vCQBHeyMOOlVPoRUUmowfRPQwSaJaFiUDyH59pTLSxLQwc6Ik17lQ0glpQbTNwEdbJKIhkX5EJJvT7m8JAEd7Iw46VU+hFRSajB9E9DBJoloWJQPIfn2lMtLEtDBzoiTXuVDSCWlBtM3AR1skoiGRfkQkm9PubwkAR3sjDjpVT6EVFJqMH0T0MEmiWhYlA8h+faUy0sS0MHOiJNe5UNIJaUG0zcBHWySiIZF+RCSb0+5vCQBHeyMOOlVPoRUUmowfRPQwSaJaFiUDyH59pTLSxLQwc6Ik17lQ0glpQbTNwEdbJKIhkX5EJJvT7m8JAEd7Iw46VU+hFRSajB9E9DBJoloWJQPIfn2lMtLEtDBzoiTXuVDSCWlBtM3AR1skoiGRfkQkm9PubwkAR3sjDjpVT6EVFJqMH0T0MEmiWhYlA8h+faUy0sS0MHOiJNe5UNIJaUG0zcBHWySiIZF+RCSb0+5vCQBHeyMOOlVPoRUUmowfRPQwSaJaFiUDyH59pTLSxLQwc6Ik17lQ0glpQbTNwEdbJKIhkX5EJJvT7m8JAEd7Iw46VU+hFRSajB9E9DBJoloWJQPIfn2lMtLEtDBzoiTXuVDSCWlBtM3AR1skoiGRfkQkm9PubwkAR3sjDjpVT6EVFJqMH0T0MEmiWhYlA8h+faUy0sS0MHOiJNe5UNIJaUG0zcBHWySiIZF+RCSb0+5vCQBHeyMOOlVPoRUUmowfRPQwSaJaFiUDyH59pTLSxLQwc6Ik17lQ0glpQbTNwEdbJKIhkX5EJJvT7m8JAEd7Iw46VU+hFRSajB9E9DBJoloWJQPIfn2lMtLEtDBzoiTXuVDSCWlBtM3AR1skoiGRfkQkm9PubwkAR3sjDjpVT6EVFJqMH0T0MEmiWhYlA8h+faUy0sS0MHOiJNe5UNIJaUG0zcBHWySiIZF+RCSb0+5vCQBHeyMOOlVPoRUUmowfRPQwSaJaFiUDyH59pTLSxLQwc6Ik17lQ0glpQbTNwEdbJKIhkX5EJJvT7m8JAEd7Iw46VU+hFRSajB9E9DBJoloWJQPIfn2lMtLEtDBzoiTXuVDSCWlBtM3AR1skoiGRfkQkm9PubwkAR3sjDjpVT6EVFJqMH0T0MEmiWhYlA8h+faUy0sS0MHOiJNe5UNIJaUG0zcBHWySiIZF+RCSb0+5vCQBHeyMOOlVPoRUUmowfRPQwSaJaFiUDyH59pTLSxLQwc6Ik17lQ0glpQbTNwEdbJKIhkX5EJJvT7m8JAEd7Iw46VU+hFRSajB9E9DBJoloWJQPIfn2lMtLEtDBzoiTXuVDSCWlBtM3AR1skoiGRfkQkm9PubwkAR3sjDjpVT6EVFJqMH0T0MEmiWhYlA8h+faUy0sS0MHOiJNe5UNIJaUG0zcBHWySiIZF+RCSb0+5vCQBHeyMOOlVPoRUUmowfRPQwSaJaFiUDyH59pTLSxLQwc6Ik17lQ0glpQbTNwEdbJKIhkX5EJJvT7m8JAEd7Iw46VU+hFRSajB9E9DBJoloWJQPIfn2lMtLEtDBzoiTXuVDSCWlBtM3AR1skoiGRfkQkm9PubwkAR3sjDjpVT6EVFJqMH0T0MEmiWhYlA8h+faUy0sS0MHOiJNe5UNIJaUG0zcBHWySiIZF+RCSb0+5vCQBHeyMOOlVPoRUUmowfRPQwSaJaFiUDyH59pTLSxLQwc6Ik17lQ0glpQbTNwEdbJKIhkX5EJJvT7m8JAEd7Iw46VU+hFRSajB9E9DBJoloWJQPIfn2lMtLEtDBzoiTXuVDSCWlBtM3AR1skoiGRfkQkm9PubwkAR3sjDjl/f2P24PyIaSSUoPpm4AONkVEdxwPZfT+4+0BIfn2lMtLEkgU0mMy+v7jJ0Iq6TSYxgmkCekpGd39iPiEZFxUTu9IIElIz8kIIXX0GUrzBFKE9JKMEJJ5UTm/I4EEIR0jI4TU0WcozRNwF9KxMkJI5kXl/I4EnIX0GhkhpI4+Q2megKuQXisjhGReVM7vSMBRSKfICCF19BlK8wTchHSqjBCSeVE5vyMBJyGdIyOE1NFnKM0TcBHSuTJCSOZF5fyOBByEdAkZIaSOPkNpnsDqQrqUjBCSeVE5vyOBlYV0SRkhpI4+Q2mewKpCurSMEJJ5UTm/I4EVhbSFjBBSR5+hNE9gNSFtJSOEZF5Uzu9IYCUhbSkjhNTRZyjNE1hFSFvLCCGZF5XzOxJYQUh7yAghdfQZSvMEri2kvWSEkMyLyvkdCVxTSHvKCCF19BlK8wSuJaS9ZYSQzIvK+R0JXENI15ARQuroM5TmCewtpGvJCCGZF5XzOxLYU0jXlBFC6ugzlOYJ7CWka8sIIZkXlfM7EthDSCvICCF19BlK8wS2FtIqMkJI5kXl/I4EthTSSjJCSB19htI8ga2EtJqMEJJ5UTm/I4EthLSijBBSR5+hNE/g0kJaVUYIybyonN+RwCWFtLKMEFJHn6E0T+BSQlpdRgjJvKic35HAJYTkICOE1NFnKM0TOFdILjJCSOZF5fyOBM4RkpOMEFJHn6E0T+BUIbnJCCGZF5XzOxI4RUiOMkJIHX2G0jyB1wrJVUYIybyonN+RwGuE5CwjhNTRZyjNEzhWSO4yQkjmReX8jgSOEVKCjBBSR5+hNE/gJSGlyAghmReV8zsSeE5ISTJCSB19htI8gaeElCYjhGReVM7vSOAxISXKCCF19BlK8wQeCilVRgjJvKic35GACilZRgipo89QmiegQtLv33+8PXz/8dOc7v75Nwp4/5/4GwmQwAoJ6Ebn+0QZ3WV9T0gDy/vhQAZksGoHUmWEkN4yulVHx12PdzNZRggJIfFJ0KgD6TK6E9L/uiW3Gxsaa9IAAAAASUVORK5CYII=;" vertex="1" parent="1">
          <mxGeometry x="40" y="501.5" width="347.32" height="270" as="geometry" />
        </mxCell>
        <mxCell id="uAtIhjqp2DDbtPSCuf9U-59" value="&lt;h2&gt;应用服务器&lt;/h2&gt;" style="text;html=1;strokeColor=none;fillColor=none;align=center;verticalAlign=middle;whiteSpace=wrap;rounded=0;" vertex="1" parent="1">
          <mxGeometry x="94" y="521.5" width="150" height="30" as="geometry" />
        </mxCell>
        <mxCell id="uAtIhjqp2DDbtPSCuf9U-60" value="&lt;h2&gt;&lt;span style=&quot;font-weight: 400&quot;&gt;借阅服务&lt;/span&gt;&lt;/h2&gt;&lt;div&gt;&lt;h2&gt;&lt;span style=&quot;font-weight: 400&quot;&gt;（可执行文件）&lt;/span&gt;&lt;/h2&gt;&lt;/div&gt;" style="rounded=0;whiteSpace=wrap;html=1;" vertex="1" parent="1">
          <mxGeometry x="50" y="631.5" width="170" height="60" as="geometry" />
        </mxCell>
        <mxCell id="uAtIhjqp2DDbtPSCuf9U-61" value="&lt;h2&gt;&lt;span style=&quot;font-weight: 400&quot;&gt;Docker部署&lt;/span&gt;&lt;/h2&gt;" style="rounded=0;whiteSpace=wrap;html=1;" vertex="1" parent="1">
          <mxGeometry x="230" y="581.5" width="76" height="170" as="geometry" />
        </mxCell>
        <mxCell id="uAtIhjqp2DDbtPSCuf9U-62" value="" style="shape=image;verticalLabelPosition=bottom;labelBackgroundColor=#ffffff;verticalAlign=top;aspect=fixed;imageAspect=0;image=data:image/png,iVBORw0KGgoAAAANSUhEUgAAASQAAADjCAYAAAAsY2lUAAAM2klEQVR4Ae2XPW6UWRREvSw2Q8IK2MAkE0I80YgVWJpoVjCaBBDRrAYIeuTgSmXjn3Z3f1+/qjpI1jMiuadcdWjfHML//P3Pf4c3bz/wRQZ0wKADN8k+QkaImP+MvDoQKyRk5FVExMHP664DkUJ6KKP3H28P33/8TP4wCBsJWCXw51//PvordJyQkJFVLzm2MIGnZBT3CQkZFbYbZKsEHsro3W+f7n1SivmEhIysesmxhQk8JqPPX77mCQkZFbYbZKsEnpLRt2/fsoSEjKx6ybGFCTwnoyghIaPCdoNslcBLMooREjKy6iXHFiZwjIwihISMCtsNslUCx8rIXkjIyKqXHFuYwGtkZC0kZFTYbpCtEnitjGyFhIysesmxhQmcIiNLISGjwnaDbJXAqTKyExIysuolxxYmcI6MrISEjArbDbJVAufKyEZIyMiqlxxbmMAlZGQhJGRU2G6QrRK4lIyWFxIysuolxxYmcEkZLS0kZFTYbpCtEri0jJYVEjKy6iXHFiawhYyWFBIyKmw3yFYJbCWj5YSEjKx6ybGFCWwpo6WEhIwK2w2yVQJby2gZISEjq15ybGECe8hoCSEho8J2g2yVwF4yurqQkJFVLzm2MIE9ZXRVISGjwnaDbJXA3jK6mpCQkVUvObYwgWvI6CpCQkaF7QbZKoFryWh3ISEjq15ybGEC15TRrkJCRoXtBtkqgWvLaDchISOrXnJsYQIryGgXISGjwnaDbJXAKjLaXEjIyKqXHFuYwEoy2lRIyKiw3SBbJbCajDYTEjKy6iXHFiawoow2ERIyKmw3yFYJrCqjiwsJGVn1kmMLE1hZRhcVEjIqbDfIVgmsLqOLCQkZWfWSYwsTcJDRRYSEjArbDbJVAi4yOltIyMiqlxxbmICTjM4SEjIqbDfIVgm4yehkISEjq15ybGECjjI6SUjIqLDdIFsl4CqjVwsJGVn1kmMLE3CW0auEhIwK2w2yVQLuMjpaSMjIqpccW5hAgoyOEhIyKmw3yFYJpMjoRSEhI6tecmxhAkkyelZIyKiw3SBbJZAmoyeFhIysesmxhQkkyuhRISGjwnaDbJVAqox+EdJDGb15++HAFxnQgXU78O63T4fPX74e7sac8KVdu9G/8P26JeRnw8/mrgNpMvrlExJFp+h0wKcDSZ+M5tOd9u/eJySrX6o5lgRKEtDBzoiTXuVDSCWlBtM3AR1skoiGRfkQkm9PubwkAR3sjDjpVT6EVFJqMH0T0MEmiWhYlA8h+faUy0sS0MHOiJNe5UNIJaUG0zcBHWySiIZF+RCSb0+5vCQBHeyMOOlVPoRUUmowfRPQwSaJaFiUDyH59pTLSxLQwc6Ik17lQ0glpQbTNwEdbJKIhkX5EJJvT7m8JAEd7Iw46VU+hFRSajB9E9DBJoloWJQPIfn2lMtLEtDBzoiTXuVDSCWlBtM3AR1skoiGRfkQkm9PubwkAR3sjDjpVT6EVFJqMH0T0MEmiWhYlA8h+faUy0sS0MHOiJNe5UNIJaUG0zcBHWySiIZF+RCSb0+5vCQBHeyMOOlVPoRUUmowfRPQwSaJaFiUDyH59pTLSxLQwc6Ik17lQ0glpQbTNwEdbJKIhkX5EJJvT7m8JAEd7Iw46VU+hFRSajB9E9DBJoloWJQPIfn2lMtLEtDBzoiTXuVDSCWlBtM3AR1skoiGRfkQkm9PubwkAR3sjDjpVT6EVFJqMH0T0MEmiWhYlA8h+faUy0sS0MHOiJNe5UNIJaUG0zcBHWySiIZF+RCSb0+5vCQBHeyMOOlVPoRUUmowfRPQwSaJaFiUDyH59pTLSxLQwc6Ik17lQ0glpQbTNwEdbJKIhkX5EJJvT7m8JAEd7Iw46VU+hFRSajB9E9DBJoloWJQPIfn2lMtLEtDBzoiTXuVDSCWlBtM3AR1skoiGRfkQkm9PubwkAR3sjDjpVT6EVFJqMH0T0MEmiWhYlA8h+faUy0sS0MHOiJNe5UNIJaUG0zcBHWySiIZF+RCSb0+5vCQBHeyMOOlVPoRUUmowfRPQwSaJaFiUDyH59pTLSxLQwc6Ik17lQ0glpQbTNwEdbJKIhkX5EJJvT7m8JAEd7Iw46VU+hFRSajB9E9DBJoloWJQPIfn2lMtLEtDBzoiTXuVDSCWlBtM3AR1skoiGRfkQkm9PubwkAR3sjDjpVT6EVFJqMH0T0MEmiWhYlA8h+faUy0sS0MHOiJNe5UNIJaUG0zcBHWySiIZF+RCSb0+5vCQBHeyMOOlVPoRUUmowfRPQwSaJaFiUDyH59pTLSxLQwc6Ik17lQ0glpQbTNwEdbJKIhkX5EJJvT7m8JAEd7Iw46VU+hFRSajB9E9DBJoloWJQPIfn2lMtLEtDBzoiTXuVDSCWlBtM3AR1skoiGRfkQkm9PubwkAR3sjDjpVT6EVFJqMH0T0MEmiWhYlA8h+faUy0sS0MHOiJNe5UNIJaUG0zcBHWySiIZF+RCSb0+5vCQBHeyMOOlVPoRUUmowfRPQwSaJaFiUDyH59pTLSxLQwc6Ik17lQ0glpQbTNwEdbJKIhkX5EJJvT7m8JAEd7Iw46VU+hFRSajB9E9DBJoloWJQPIfn2lMtLEtDBzoiTXuVDSCWlBtM3AR1skoiGRfkQkm9PubwkAR3sjDjpVT6EVFJqMH0T0MEmiWhYlA8h+faUy0sS0MHOiJNe5UNIJaUG0zcBHWySiIZF+RCSb0+5vCQBHeyMOOlVPoRUUmowfRPQwSaJaFiUDyH59pTLSxLQwc6Ik17lQ0glpQbTNwEdbJKIhkX5EJJvT7m8JAEd7Iw46VU+hFRSajB9E9DBJoloWJQPIfn2lMtLEtDBzoiTXuVDSCWlBtM3AR1skoiGRfkQkm9PubwkAR3sjDjpVT6EVFJqMH0T0MEmiWhYlA8h+faUy0sS0MHOiJNe5UNIJaUG0zcBHWySiIZF+RCSb0+5vCQBHeyMOOlVPoRUUmowfRPQwSaJaFiUDyH59pTLSxLQwc6Ik17lQ0glpQbTNwEdbJKIhkX5EJJvT7m8JAEd7Iw46VU+hFRSajB9E9DBJoloWJQPIfn2lMtLEtDBzoiTXuVDSCWlBtM3AR1skoiGRfkQkm9PubwkAR3sjDjpVT6EVFJqMH0T0MEmiWhYlA8h+faUy0sS0MHOiJNe5UNIJaUG0zcBHWySiIZF+RCSb0+5vCQBHeyMOOlVPoRUUmowfRPQwSaJaFiUDyH59pTLSxLQwc6Ik17lQ0glpQbTNwEdbJKIhkX5EJJvT7m8JAEd7Iw46VU+hFRSajB9E9DBJoloWJQPIfn2lMtLEtDBzoiTXuVDSCWlBtM3AR1skoiGRfkQkm9PubwkAR3sjDjl/f2P24PyIaSSUoPpm4AONkVEdxwPZfT+4+0BIfn2lMtLEkgU0mMy+v7jJ0Iq6TSYxgmkCekpGd39iPiEZFxUTu9IIElIz8kIIXX0GUrzBFKE9JKMEJJ5UTm/I4EEIR0jI4TU0WcozRNwF9KxMkJI5kXl/I4EnIX0GhkhpI4+Q2megKuQXisjhGReVM7vSMBRSKfICCF19BlK8wTchHSqjBCSeVE5vyMBJyGdIyOE1NFnKM0TcBHSuTJCSOZF5fyOBByEdAkZIaSOPkNpnsDqQrqUjBCSeVE5vyOBlYV0SRkhpI4+Q2mewKpCurSMEJJ5UTm/I4EVhbSFjBBSR5+hNE9gNSFtJSOEZF5Uzu9IYCUhbSkjhNTRZyjNE1hFSFvLCCGZF5XzOxJYQUh7yAghdfQZSvMEri2kvWSEkMyLyvkdCVxTSHvKCCF19BlK8wSuJaS9ZYSQzIvK+R0JXENI15ARQuroM5TmCewtpGvJCCGZF5XzOxLYU0jXlBFC6ugzlOYJ7CWka8sIIZkXlfM7EthDSCvICCF19BlK8wS2FtIqMkJI5kXl/I4EthTSSjJCSB19htI8ga2EtJqMEJJ5UTm/I4EthLSijBBSR5+hNE/g0kJaVUYIybyonN+RwCWFtLKMEFJHn6E0T+BSQlpdRgjJvKic35HAJYTkICOE1NFnKM0TOFdILjJCSOZF5fyOBM4RkpOMEFJHn6E0T+BUIbnJCCGZF5XzOxI4RUiOMkJIHX2G0jyB1wrJVUYIybyonN+RwGuE5CwjhNTRZyjNEzhWSO4yQkjmReX8jgSOEVKCjBBSR5+hNE/gJSGlyAghmReV8zsSeE5ISTJCSB19htI8gaeElCYjhGReVM7vSOAxISXKCCF19BlK8wQeCilVRgjJvKic35GACilZRgipo89QmiegQtLv33+8PXz/8dOc7v75Nwp4/5/4GwmQwAoJ6Ebn+0QZ3WV9T0gDy/vhQAZksGoHUmWEkN4yulVHx12PdzNZRggJIfFJ0KgD6TK6E9L/uiW3Gxsaa9IAAAAASUVORK5CYII=;" vertex="1" parent="1">
          <mxGeometry x="-1030" y="540" width="347.32" height="270" as="geometry" />
        </mxCell>
        <mxCell id="uAtIhjqp2DDbtPSCuf9U-63" value="&lt;h2&gt;应用服务器&lt;/h2&gt;" style="text;html=1;strokeColor=none;fillColor=none;align=center;verticalAlign=middle;whiteSpace=wrap;rounded=0;" vertex="1" parent="1">
          <mxGeometry x="-976.0000000000001" y="560" width="150" height="30" as="geometry" />
        </mxCell>
        <mxCell id="uAtIhjqp2DDbtPSCuf9U-64" value="&lt;h2&gt;&lt;span style=&quot;font-weight: 400&quot;&gt;超期服务&lt;/span&gt;&lt;/h2&gt;&lt;div&gt;&lt;h2&gt;&lt;span style=&quot;font-weight: 400&quot;&gt;（可执行文件）&lt;/span&gt;&lt;/h2&gt;&lt;/div&gt;" style="rounded=0;whiteSpace=wrap;html=1;" vertex="1" parent="1">
          <mxGeometry x="-1020.0000000000001" y="670" width="170" height="60" as="geometry" />
        </mxCell>
        <mxCell id="uAtIhjqp2DDbtPSCuf9U-65" value="&lt;h2&gt;&lt;span style=&quot;font-weight: 400&quot;&gt;Docker部署&lt;/span&gt;&lt;/h2&gt;" style="rounded=0;whiteSpace=wrap;html=1;" vertex="1" parent="1">
          <mxGeometry x="-840.0000000000001" y="620" width="76" height="170" as="geometry" />
        </mxCell>
        <mxCell id="uAtIhjqp2DDbtPSCuf9U-66" value="" style="endArrow=classic;html=1;rounded=0;entryX=0;entryY=0.5;entryDx=0;entryDy=0;" edge="1" parent="1" source="uAtIhjqp2DDbtPSCuf9U-46" target="uAtIhjqp2DDbtPSCuf9U-13">
          <mxGeometry width="50" height="50" relative="1" as="geometry">
            <mxPoint x="-800" y="270" as="sourcePoint" />
            <mxPoint x="-750" y="220" as="targetPoint" />
          </mxGeometry>
        </mxCell>
        <mxCell id="uAtIhjqp2DDbtPSCuf9U-67" value="" style="endArrow=classic;html=1;rounded=0;entryX=-0.011;entryY=0.624;entryDx=0;entryDy=0;entryPerimeter=0;exitX=1.01;exitY=0.45;exitDx=0;exitDy=0;exitPerimeter=0;" edge="1" parent="1" source="uAtIhjqp2DDbtPSCuf9U-50" target="uAtIhjqp2DDbtPSCuf9U-20">
          <mxGeometry width="50" height="50" relative="1" as="geometry">
            <mxPoint x="-790" y="280" as="sourcePoint" />
            <mxPoint x="-740" y="230" as="targetPoint" />
          </mxGeometry>
        </mxCell>
        <mxCell id="uAtIhjqp2DDbtPSCuf9U-68" value="" style="endArrow=classic;html=1;rounded=0;entryX=1;entryY=0.5;entryDx=0;entryDy=0;exitX=-0.004;exitY=0.596;exitDx=0;exitDy=0;exitPerimeter=0;" edge="1" parent="1" source="uAtIhjqp2DDbtPSCuf9U-54" target="uAtIhjqp2DDbtPSCuf9U-7">
          <mxGeometry width="50" height="50" relative="1" as="geometry">
            <mxPoint x="-780" y="290" as="sourcePoint" />
            <mxPoint x="-730" y="240" as="targetPoint" />
          </mxGeometry>
        </mxCell>
        <mxCell id="uAtIhjqp2DDbtPSCuf9U-69" value="" style="endArrow=classic;html=1;rounded=0;entryX=1;entryY=0.5;entryDx=0;entryDy=0;exitX=0;exitY=0.594;exitDx=0;exitDy=0;exitPerimeter=0;" edge="1" parent="1" source="uAtIhjqp2DDbtPSCuf9U-38" target="uAtIhjqp2DDbtPSCuf9U-1">
          <mxGeometry width="50" height="50" relative="1" as="geometry">
            <mxPoint x="-770" y="300" as="sourcePoint" />
            <mxPoint x="-720" y="250" as="targetPoint" />
          </mxGeometry>
        </mxCell>
        <mxCell id="uAtIhjqp2DDbtPSCuf9U-70" value="" style="endArrow=classic;html=1;rounded=0;exitX=-0.015;exitY=0.631;exitDx=0;exitDy=0;exitPerimeter=0;" edge="1" parent="1" source="uAtIhjqp2DDbtPSCuf9U-58" target="uAtIhjqp2DDbtPSCuf9U-10">
          <mxGeometry width="50" height="50" relative="1" as="geometry">
            <mxPoint x="-760" y="310" as="sourcePoint" />
            <mxPoint x="-710" y="260" as="targetPoint" />
          </mxGeometry>
        </mxCell>
        <mxCell id="uAtIhjqp2DDbtPSCuf9U-72" value="" style="endArrow=classic;html=1;rounded=0;entryX=-0.009;entryY=0.583;entryDx=0;entryDy=0;entryPerimeter=0;exitX=1;exitY=0.5;exitDx=0;exitDy=0;" edge="1" parent="1" source="uAtIhjqp2DDbtPSCuf9U-62" target="uAtIhjqp2DDbtPSCuf9U-23">
          <mxGeometry width="50" height="50" relative="1" as="geometry">
            <mxPoint x="-740" y="330" as="sourcePoint" />
            <mxPoint x="-690" y="280" as="targetPoint" />
          </mxGeometry>
        </mxCell>
        <mxCell id="uAtIhjqp2DDbtPSCuf9U-85" value="" style="rounded=0;whiteSpace=wrap;html=1;" vertex="1" parent="1">
          <mxGeometry x="-1110" y="-490" width="1630" height="330" as="geometry" />
        </mxCell>
        <mxCell id="uAtIhjqp2DDbtPSCuf9U-73" value="" style="shape=image;verticalLabelPosition=bottom;labelBackgroundColor=#ffffff;verticalAlign=top;aspect=fixed;imageAspect=0;image=data:image/png,iVBORw0KGgoAAAANSUhEUgAAASQAAADjCAYAAAAsY2lUAAAM2klEQVR4Ae2XPW6UWRREvSw2Q8IK2MAkE0I80YgVWJpoVjCaBBDRrAYIeuTgSmXjn3Z3f1+/qjpI1jMiuadcdWjfHML//P3Pf4c3bz/wRQZ0wKADN8k+QkaImP+MvDoQKyRk5FVExMHP664DkUJ6KKP3H28P33/8TP4wCBsJWCXw51//PvordJyQkJFVLzm2MIGnZBT3CQkZFbYbZKsEHsro3W+f7n1SivmEhIysesmxhQk8JqPPX77mCQkZFbYbZKsEnpLRt2/fsoSEjKx6ybGFCTwnoyghIaPCdoNslcBLMooREjKy6iXHFiZwjIwihISMCtsNslUCx8rIXkjIyKqXHFuYwGtkZC0kZFTYbpCtEnitjGyFhIysesmxhQmcIiNLISGjwnaDbJXAqTKyExIysuolxxYmcI6MrISEjArbDbJVAufKyEZIyMiqlxxbmMAlZGQhJGRU2G6QrRK4lIyWFxIysuolxxYmcEkZLS0kZFTYbpCtEri0jJYVEjKy6iXHFiawhYyWFBIyKmw3yFYJbCWj5YSEjKx6ybGFCWwpo6WEhIwK2w2yVQJby2gZISEjq15ybGECe8hoCSEho8J2g2yVwF4yurqQkJFVLzm2MIE9ZXRVISGjwnaDbJXA3jK6mpCQkVUvObYwgWvI6CpCQkaF7QbZKoFryWh3ISEjq15ybGEC15TRrkJCRoXtBtkqgWvLaDchISOrXnJsYQIryGgXISGjwnaDbJXAKjLaXEjIyKqXHFuYwEoy2lRIyKiw3SBbJbCajDYTEjKy6iXHFiawoow2ERIyKmw3yFYJrCqjiwsJGVn1kmMLE1hZRhcVEjIqbDfIVgmsLqOLCQkZWfWSYwsTcJDRRYSEjArbDbJVAi4yOltIyMiqlxxbmICTjM4SEjIqbDfIVgm4yehkISEjq15ybGECjjI6SUjIqLDdIFsl4CqjVwsJGVn1kmMLE3CW0auEhIwK2w2yVQLuMjpaSMjIqpccW5hAgoyOEhIyKmw3yFYJpMjoRSEhI6tecmxhAkkyelZIyKiw3SBbJZAmoyeFhIysesmxhQkkyuhRISGjwnaDbJVAqox+EdJDGb15++HAFxnQgXU78O63T4fPX74e7sac8KVdu9G/8P26JeRnw8/mrgNpMvrlExJFp+h0wKcDSZ+M5tOd9u/eJySrX6o5lgRKEtDBzoiTXuVDSCWlBtM3AR1skoiGRfkQkm9PubwkAR3sjDjpVT6EVFJqMH0T0MEmiWhYlA8h+faUy0sS0MHOiJNe5UNIJaUG0zcBHWySiIZF+RCSb0+5vCQBHeyMOOlVPoRUUmowfRPQwSaJaFiUDyH59pTLSxLQwc6Ik17lQ0glpQbTNwEdbJKIhkX5EJJvT7m8JAEd7Iw46VU+hFRSajB9E9DBJoloWJQPIfn2lMtLEtDBzoiTXuVDSCWlBtM3AR1skoiGRfkQkm9PubwkAR3sjDjpVT6EVFJqMH0T0MEmiWhYlA8h+faUy0sS0MHOiJNe5UNIJaUG0zcBHWySiIZF+RCSb0+5vCQBHeyMOOlVPoRUUmowfRPQwSaJaFiUDyH59pTLSxLQwc6Ik17lQ0glpQbTNwEdbJKIhkX5EJJvT7m8JAEd7Iw46VU+hFRSajB9E9DBJoloWJQPIfn2lMtLEtDBzoiTXuVDSCWlBtM3AR1skoiGRfkQkm9PubwkAR3sjDjpVT6EVFJqMH0T0MEmiWhYlA8h+faUy0sS0MHOiJNe5UNIJaUG0zcBHWySiIZF+RCSb0+5vCQBHeyMOOlVPoRUUmowfRPQwSaJaFiUDyH59pTLSxLQwc6Ik17lQ0glpQbTNwEdbJKIhkX5EJJvT7m8JAEd7Iw46VU+hFRSajB9E9DBJoloWJQPIfn2lMtLEtDBzoiTXuVDSCWlBtM3AR1skoiGRfkQkm9PubwkAR3sjDjpVT6EVFJqMH0T0MEmiWhYlA8h+faUy0sS0MHOiJNe5UNIJaUG0zcBHWySiIZF+RCSb0+5vCQBHeyMOOlVPoRUUmowfRPQwSaJaFiUDyH59pTLSxLQwc6Ik17lQ0glpQbTNwEdbJKIhkX5EJJvT7m8JAEd7Iw46VU+hFRSajB9E9DBJoloWJQPIfn2lMtLEtDBzoiTXuVDSCWlBtM3AR1skoiGRfkQkm9PubwkAR3sjDjpVT6EVFJqMH0T0MEmiWhYlA8h+faUy0sS0MHOiJNe5UNIJaUG0zcBHWySiIZF+RCSb0+5vCQBHeyMOOlVPoRUUmowfRPQwSaJaFiUDyH59pTLSxLQwc6Ik17lQ0glpQbTNwEdbJKIhkX5EJJvT7m8JAEd7Iw46VU+hFRSajB9E9DBJoloWJQPIfn2lMtLEtDBzoiTXuVDSCWlBtM3AR1skoiGRfkQkm9PubwkAR3sjDjpVT6EVFJqMH0T0MEmiWhYlA8h+faUy0sS0MHOiJNe5UNIJaUG0zcBHWySiIZF+RCSb0+5vCQBHeyMOOlVPoRUUmowfRPQwSaJaFiUDyH59pTLSxLQwc6Ik17lQ0glpQbTNwEdbJKIhkX5EJJvT7m8JAEd7Iw46VU+hFRSajB9E9DBJoloWJQPIfn2lMtLEtDBzoiTXuVDSCWlBtM3AR1skoiGRfkQkm9PubwkAR3sjDjpVT6EVFJqMH0T0MEmiWhYlA8h+faUy0sS0MHOiJNe5UNIJaUG0zcBHWySiIZF+RCSb0+5vCQBHeyMOOlVPoRUUmowfRPQwSaJaFiUDyH59pTLSxLQwc6Ik17lQ0glpQbTNwEdbJKIhkX5EJJvT7m8JAEd7Iw46VU+hFRSajB9E9DBJoloWJQPIfn2lMtLEtDBzoiTXuVDSCWlBtM3AR1skoiGRfkQkm9PubwkAR3sjDjpVT6EVFJqMH0T0MEmiWhYlA8h+faUy0sS0MHOiJNe5UNIJaUG0zcBHWySiIZF+RCSb0+5vCQBHeyMOOlVPoRUUmowfRPQwSaJaFiUDyH59pTLSxLQwc6Ik17lQ0glpQbTNwEdbJKIhkX5EJJvT7m8JAEd7Iw46VU+hFRSajB9E9DBJoloWJQPIfn2lMtLEtDBzoiTXuVDSCWlBtM3AR1skoiGRfkQkm9PubwkAR3sjDjpVT6EVFJqMH0T0MEmiWhYlA8h+faUy0sS0MHOiJNe5UNIJaUG0zcBHWySiIZF+RCSb0+5vCQBHeyMOOlVPoRUUmowfRPQwSaJaFiUDyH59pTLSxLQwc6Ik17lQ0glpQbTNwEdbJKIhkX5EJJvT7m8JAEd7Iw46VU+hFRSajB9E9DBJoloWJQPIfn2lMtLEtDBzoiTXuVDSCWlBtM3AR1skoiGRfkQkm9PubwkAR3sjDjl/f2P24PyIaSSUoPpm4AONkVEdxwPZfT+4+0BIfn2lMtLEkgU0mMy+v7jJ0Iq6TSYxgmkCekpGd39iPiEZFxUTu9IIElIz8kIIXX0GUrzBFKE9JKMEJJ5UTm/I4EEIR0jI4TU0WcozRNwF9KxMkJI5kXl/I4EnIX0GhkhpI4+Q2megKuQXisjhGReVM7vSMBRSKfICCF19BlK8wTchHSqjBCSeVE5vyMBJyGdIyOE1NFnKM0TcBHSuTJCSOZF5fyOBByEdAkZIaSOPkNpnsDqQrqUjBCSeVE5vyOBlYV0SRkhpI4+Q2mewKpCurSMEJJ5UTm/I4EVhbSFjBBSR5+hNE9gNSFtJSOEZF5Uzu9IYCUhbSkjhNTRZyjNE1hFSFvLCCGZF5XzOxJYQUh7yAghdfQZSvMEri2kvWSEkMyLyvkdCVxTSHvKCCF19BlK8wSuJaS9ZYSQzIvK+R0JXENI15ARQuroM5TmCewtpGvJCCGZF5XzOxLYU0jXlBFC6ugzlOYJ7CWka8sIIZkXlfM7EthDSCvICCF19BlK8wS2FtIqMkJI5kXl/I4EthTSSjJCSB19htI8ga2EtJqMEJJ5UTm/I4EthLSijBBSR5+hNE/g0kJaVUYIybyonN+RwCWFtLKMEFJHn6E0T+BSQlpdRgjJvKic35HAJYTkICOE1NFnKM0TOFdILjJCSOZF5fyOBM4RkpOMEFJHn6E0T+BUIbnJCCGZF5XzOxI4RUiOMkJIHX2G0jyB1wrJVUYIybyonN+RwGuE5CwjhNTRZyjNEzhWSO4yQkjmReX8jgSOEVKCjBBSR5+hNE/gJSGlyAghmReV8zsSeE5ISTJCSB19htI8gaeElCYjhGReVM7vSOAxISXKCCF19BlK8wQeCilVRgjJvKic35GACilZRgipo89QmiegQtLv33+8PXz/8dOc7v75Nwp4/5/4GwmQwAoJ6Ebn+0QZ3WV9T0gDy/vhQAZksGoHUmWEkN4yulVHx12PdzNZRggJIfFJ0KgD6TK6E9L/uiW3Gxsaa9IAAAAASUVORK5CYII=;" vertex="1" parent="1">
          <mxGeometry x="-1020" y="-450" width="347.32" height="270" as="geometry" />
        </mxCell>
        <mxCell id="uAtIhjqp2DDbtPSCuf9U-76" value="" style="shape=image;verticalLabelPosition=bottom;labelBackgroundColor=#ffffff;verticalAlign=top;aspect=fixed;imageAspect=0;image=data:image/png,iVBORw0KGgoAAAANSUhEUgAAASQAAADjCAYAAAAsY2lUAAAM2klEQVR4Ae2XPW6UWRREvSw2Q8IK2MAkE0I80YgVWJpoVjCaBBDRrAYIeuTgSmXjn3Z3f1+/qjpI1jMiuadcdWjfHML//P3Pf4c3bz/wRQZ0wKADN8k+QkaImP+MvDoQKyRk5FVExMHP664DkUJ6KKP3H28P33/8TP4wCBsJWCXw51//PvordJyQkJFVLzm2MIGnZBT3CQkZFbYbZKsEHsro3W+f7n1SivmEhIysesmxhQk8JqPPX77mCQkZFbYbZKsEnpLRt2/fsoSEjKx6ybGFCTwnoyghIaPCdoNslcBLMooREjKy6iXHFiZwjIwihISMCtsNslUCx8rIXkjIyKqXHFuYwGtkZC0kZFTYbpCtEnitjGyFhIysesmxhQmcIiNLISGjwnaDbJXAqTKyExIysuolxxYmcI6MrISEjArbDbJVAufKyEZIyMiqlxxbmMAlZGQhJGRU2G6QrRK4lIyWFxIysuolxxYmcEkZLS0kZFTYbpCtEri0jJYVEjKy6iXHFiawhYyWFBIyKmw3yFYJbCWj5YSEjKx6ybGFCWwpo6WEhIwK2w2yVQJby2gZISEjq15ybGECe8hoCSEho8J2g2yVwF4yurqQkJFVLzm2MIE9ZXRVISGjwnaDbJXA3jK6mpCQkVUvObYwgWvI6CpCQkaF7QbZKoFryWh3ISEjq15ybGEC15TRrkJCRoXtBtkqgWvLaDchISOrXnJsYQIryGgXISGjwnaDbJXAKjLaXEjIyKqXHFuYwEoy2lRIyKiw3SBbJbCajDYTEjKy6iXHFiawoow2ERIyKmw3yFYJrCqjiwsJGVn1kmMLE1hZRhcVEjIqbDfIVgmsLqOLCQkZWfWSYwsTcJDRRYSEjArbDbJVAi4yOltIyMiqlxxbmICTjM4SEjIqbDfIVgm4yehkISEjq15ybGECjjI6SUjIqLDdIFsl4CqjVwsJGVn1kmMLE3CW0auEhIwK2w2yVQLuMjpaSMjIqpccW5hAgoyOEhIyKmw3yFYJpMjoRSEhI6tecmxhAkkyelZIyKiw3SBbJZAmoyeFhIysesmxhQkkyuhRISGjwnaDbJVAqox+EdJDGb15++HAFxnQgXU78O63T4fPX74e7sac8KVdu9G/8P26JeRnw8/mrgNpMvrlExJFp+h0wKcDSZ+M5tOd9u/eJySrX6o5lgRKEtDBzoiTXuVDSCWlBtM3AR1skoiGRfkQkm9PubwkAR3sjDjpVT6EVFJqMH0T0MEmiWhYlA8h+faUy0sS0MHOiJNe5UNIJaUG0zcBHWySiIZF+RCSb0+5vCQBHeyMOOlVPoRUUmowfRPQwSaJaFiUDyH59pTLSxLQwc6Ik17lQ0glpQbTNwEdbJKIhkX5EJJvT7m8JAEd7Iw46VU+hFRSajB9E9DBJoloWJQPIfn2lMtLEtDBzoiTXuVDSCWlBtM3AR1skoiGRfkQkm9PubwkAR3sjDjpVT6EVFJqMH0T0MEmiWhYlA8h+faUy0sS0MHOiJNe5UNIJaUG0zcBHWySiIZF+RCSb0+5vCQBHeyMOOlVPoRUUmowfRPQwSaJaFiUDyH59pTLSxLQwc6Ik17lQ0glpQbTNwEdbJKIhkX5EJJvT7m8JAEd7Iw46VU+hFRSajB9E9DBJoloWJQPIfn2lMtLEtDBzoiTXuVDSCWlBtM3AR1skoiGRfkQkm9PubwkAR3sjDjpVT6EVFJqMH0T0MEmiWhYlA8h+faUy0sS0MHOiJNe5UNIJaUG0zcBHWySiIZF+RCSb0+5vCQBHeyMOOlVPoRUUmowfRPQwSaJaFiUDyH59pTLSxLQwc6Ik17lQ0glpQbTNwEdbJKIhkX5EJJvT7m8JAEd7Iw46VU+hFRSajB9E9DBJoloWJQPIfn2lMtLEtDBzoiTXuVDSCWlBtM3AR1skoiGRfkQkm9PubwkAR3sjDjpVT6EVFJqMH0T0MEmiWhYlA8h+faUy0sS0MHOiJNe5UNIJaUG0zcBHWySiIZF+RCSb0+5vCQBHeyMOOlVPoRUUmowfRPQwSaJaFiUDyH59pTLSxLQwc6Ik17lQ0glpQbTNwEdbJKIhkX5EJJvT7m8JAEd7Iw46VU+hFRSajB9E9DBJoloWJQPIfn2lMtLEtDBzoiTXuVDSCWlBtM3AR1skoiGRfkQkm9PubwkAR3sjDjpVT6EVFJqMH0T0MEmiWhYlA8h+faUy0sS0MHOiJNe5UNIJaUG0zcBHWySiIZF+RCSb0+5vCQBHeyMOOlVPoRUUmowfRPQwSaJaFiUDyH59pTLSxLQwc6Ik17lQ0glpQbTNwEdbJKIhkX5EJJvT7m8JAEd7Iw46VU+hFRSajB9E9DBJoloWJQPIfn2lMtLEtDBzoiTXuVDSCWlBtM3AR1skoiGRfkQkm9PubwkAR3sjDjpVT6EVFJqMH0T0MEmiWhYlA8h+faUy0sS0MHOiJNe5UNIJaUG0zcBHWySiIZF+RCSb0+5vCQBHeyMOOlVPoRUUmowfRPQwSaJaFiUDyH59pTLSxLQwc6Ik17lQ0glpQbTNwEdbJKIhkX5EJJvT7m8JAEd7Iw46VU+hFRSajB9E9DBJoloWJQPIfn2lMtLEtDBzoiTXuVDSCWlBtM3AR1skoiGRfkQkm9PubwkAR3sjDjpVT6EVFJqMH0T0MEmiWhYlA8h+faUy0sS0MHOiJNe5UNIJaUG0zcBHWySiIZF+RCSb0+5vCQBHeyMOOlVPoRUUmowfRPQwSaJaFiUDyH59pTLSxLQwc6Ik17lQ0glpQbTNwEdbJKIhkX5EJJvT7m8JAEd7Iw46VU+hFRSajB9E9DBJoloWJQPIfn2lMtLEtDBzoiTXuVDSCWlBtM3AR1skoiGRfkQkm9PubwkAR3sjDjpVT6EVFJqMH0T0MEmiWhYlA8h+faUy0sS0MHOiJNe5UNIJaUG0zcBHWySiIZF+RCSb0+5vCQBHeyMOOlVPoRUUmowfRPQwSaJaFiUDyH59pTLSxLQwc6Ik17lQ0glpQbTNwEdbJKIhkX5EJJvT7m8JAEd7Iw46VU+hFRSajB9E9DBJoloWJQPIfn2lMtLEtDBzoiTXuVDSCWlBtM3AR1skoiGRfkQkm9PubwkAR3sjDjpVT6EVFJqMH0T0MEmiWhYlA8h+faUy0sS0MHOiJNe5UNIJaUG0zcBHWySiIZF+RCSb0+5vCQBHeyMOOlVPoRUUmowfRPQwSaJaFiUDyH59pTLSxLQwc6Ik17lQ0glpQbTNwEdbJKIhkX5EJJvT7m8JAEd7Iw46VU+hFRSajB9E9DBJoloWJQPIfn2lMtLEtDBzoiTXuVDSCWlBtM3AR1skoiGRfkQkm9PubwkAR3sjDjl/f2P24PyIaSSUoPpm4AONkVEdxwPZfT+4+0BIfn2lMtLEkgU0mMy+v7jJ0Iq6TSYxgmkCekpGd39iPiEZFxUTu9IIElIz8kIIXX0GUrzBFKE9JKMEJJ5UTm/I4EEIR0jI4TU0WcozRNwF9KxMkJI5kXl/I4EnIX0GhkhpI4+Q2megKuQXisjhGReVM7vSMBRSKfICCF19BlK8wTchHSqjBCSeVE5vyMBJyGdIyOE1NFnKM0TcBHSuTJCSOZF5fyOBByEdAkZIaSOPkNpnsDqQrqUjBCSeVE5vyOBlYV0SRkhpI4+Q2mewKpCurSMEJJ5UTm/I4EVhbSFjBBSR5+hNE9gNSFtJSOEZF5Uzu9IYCUhbSkjhNTRZyjNE1hFSFvLCCGZF5XzOxJYQUh7yAghdfQZSvMEri2kvWSEkMyLyvkdCVxTSHvKCCF19BlK8wSuJaS9ZYSQzIvK+R0JXENI15ARQuroM5TmCewtpGvJCCGZF5XzOxLYU0jXlBFC6ugzlOYJ7CWka8sIIZkXlfM7EthDSCvICCF19BlK8wS2FtIqMkJI5kXl/I4EthTSSjJCSB19htI8ga2EtJqMEJJ5UTm/I4EthLSijBBSR5+hNE/g0kJaVUYIybyonN+RwCWFtLKMEFJHn6E0T+BSQlpdRgjJvKic35HAJYTkICOE1NFnKM0TOFdILjJCSOZF5fyOBM4RkpOMEFJHn6E0T+BUIbnJCCGZF5XzOxI4RUiOMkJIHX2G0jyB1wrJVUYIybyonN+RwGuE5CwjhNTRZyjNEzhWSO4yQkjmReX8jgSOEVKCjBBSR5+hNE/gJSGlyAghmReV8zsSeE5ISTJCSB19htI8gaeElCYjhGReVM7vSOAxISXKCCF19BlK8wQeCilVRgjJvKic35GACilZRgipo89QmiegQtLv33+8PXz/8dOc7v75Nwp4/5/4GwmQwAoJ6Ebn+0QZ3WV9T0gDy/vhQAZksGoHUmWEkN4yulVHx12PdzNZRggJIfFJ0KgD6TK6E9L/uiW3Gxsaa9IAAAAASUVORK5CYII=;" vertex="1" parent="1">
          <mxGeometry x="80" y="-460" width="347.32" height="270" as="geometry" />
        </mxCell>
        <mxCell id="uAtIhjqp2DDbtPSCuf9U-77" value="" style="shape=image;verticalLabelPosition=bottom;labelBackgroundColor=#ffffff;verticalAlign=top;aspect=fixed;imageAspect=0;image=data:image/png,iVBORw0KGgoAAAANSUhEUgAAASQAAADjCAYAAAAsY2lUAAAM2klEQVR4Ae2XPW6UWRREvSw2Q8IK2MAkE0I80YgVWJpoVjCaBBDRrAYIeuTgSmXjn3Z3f1+/qjpI1jMiuadcdWjfHML//P3Pf4c3bz/wRQZ0wKADN8k+QkaImP+MvDoQKyRk5FVExMHP664DkUJ6KKP3H28P33/8TP4wCBsJWCXw51//PvordJyQkJFVLzm2MIGnZBT3CQkZFbYbZKsEHsro3W+f7n1SivmEhIysesmxhQk8JqPPX77mCQkZFbYbZKsEnpLRt2/fsoSEjKx6ybGFCTwnoyghIaPCdoNslcBLMooREjKy6iXHFiZwjIwihISMCtsNslUCx8rIXkjIyKqXHFuYwGtkZC0kZFTYbpCtEnitjGyFhIysesmxhQmcIiNLISGjwnaDbJXAqTKyExIysuolxxYmcI6MrISEjArbDbJVAufKyEZIyMiqlxxbmMAlZGQhJGRU2G6QrRK4lIyWFxIysuolxxYmcEkZLS0kZFTYbpCtEri0jJYVEjKy6iXHFiawhYyWFBIyKmw3yFYJbCWj5YSEjKx6ybGFCWwpo6WEhIwK2w2yVQJby2gZISEjq15ybGECe8hoCSEho8J2g2yVwF4yurqQkJFVLzm2MIE9ZXRVISGjwnaDbJXA3jK6mpCQkVUvObYwgWvI6CpCQkaF7QbZKoFryWh3ISEjq15ybGEC15TRrkJCRoXtBtkqgWvLaDchISOrXnJsYQIryGgXISGjwnaDbJXAKjLaXEjIyKqXHFuYwEoy2lRIyKiw3SBbJbCajDYTEjKy6iXHFiawoow2ERIyKmw3yFYJrCqjiwsJGVn1kmMLE1hZRhcVEjIqbDfIVgmsLqOLCQkZWfWSYwsTcJDRRYSEjArbDbJVAi4yOltIyMiqlxxbmICTjM4SEjIqbDfIVgm4yehkISEjq15ybGECjjI6SUjIqLDdIFsl4CqjVwsJGVn1kmMLE3CW0auEhIwK2w2yVQLuMjpaSMjIqpccW5hAgoyOEhIyKmw3yFYJpMjoRSEhI6tecmxhAkkyelZIyKiw3SBbJZAmoyeFhIysesmxhQkkyuhRISGjwnaDbJVAqox+EdJDGb15++HAFxnQgXU78O63T4fPX74e7sac8KVdu9G/8P26JeRnw8/mrgNpMvrlExJFp+h0wKcDSZ+M5tOd9u/eJySrX6o5lgRKEtDBzoiTXuVDSCWlBtM3AR1skoiGRfkQkm9PubwkAR3sjDjpVT6EVFJqMH0T0MEmiWhYlA8h+faUy0sS0MHOiJNe5UNIJaUG0zcBHWySiIZF+RCSb0+5vCQBHeyMOOlVPoRUUmowfRPQwSaJaFiUDyH59pTLSxLQwc6Ik17lQ0glpQbTNwEdbJKIhkX5EJJvT7m8JAEd7Iw46VU+hFRSajB9E9DBJoloWJQPIfn2lMtLEtDBzoiTXuVDSCWlBtM3AR1skoiGRfkQkm9PubwkAR3sjDjpVT6EVFJqMH0T0MEmiWhYlA8h+faUy0sS0MHOiJNe5UNIJaUG0zcBHWySiIZF+RCSb0+5vCQBHeyMOOlVPoRUUmowfRPQwSaJaFiUDyH59pTLSxLQwc6Ik17lQ0glpQbTNwEdbJKIhkX5EJJvT7m8JAEd7Iw46VU+hFRSajB9E9DBJoloWJQPIfn2lMtLEtDBzoiTXuVDSCWlBtM3AR1skoiGRfkQkm9PubwkAR3sjDjpVT6EVFJqMH0T0MEmiWhYlA8h+faUy0sS0MHOiJNe5UNIJaUG0zcBHWySiIZF+RCSb0+5vCQBHeyMOOlVPoRUUmowfRPQwSaJaFiUDyH59pTLSxLQwc6Ik17lQ0glpQbTNwEdbJKIhkX5EJJvT7m8JAEd7Iw46VU+hFRSajB9E9DBJoloWJQPIfn2lMtLEtDBzoiTXuVDSCWlBtM3AR1skoiGRfkQkm9PubwkAR3sjDjpVT6EVFJqMH0T0MEmiWhYlA8h+faUy0sS0MHOiJNe5UNIJaUG0zcBHWySiIZF+RCSb0+5vCQBHeyMOOlVPoRUUmowfRPQwSaJaFiUDyH59pTLSxLQwc6Ik17lQ0glpQbTNwEdbJKIhkX5EJJvT7m8JAEd7Iw46VU+hFRSajB9E9DBJoloWJQPIfn2lMtLEtDBzoiTXuVDSCWlBtM3AR1skoiGRfkQkm9PubwkAR3sjDjpVT6EVFJqMH0T0MEmiWhYlA8h+faUy0sS0MHOiJNe5UNIJaUG0zcBHWySiIZF+RCSb0+5vCQBHeyMOOlVPoRUUmowfRPQwSaJaFiUDyH59pTLSxLQwc6Ik17lQ0glpQbTNwEdbJKIhkX5EJJvT7m8JAEd7Iw46VU+hFRSajB9E9DBJoloWJQPIfn2lMtLEtDBzoiTXuVDSCWlBtM3AR1skoiGRfkQkm9PubwkAR3sjDjpVT6EVFJqMH0T0MEmiWhYlA8h+faUy0sS0MHOiJNe5UNIJaUG0zcBHWySiIZF+RCSb0+5vCQBHeyMOOlVPoRUUmowfRPQwSaJaFiUDyH59pTLSxLQwc6Ik17lQ0glpQbTNwEdbJKIhkX5EJJvT7m8JAEd7Iw46VU+hFRSajB9E9DBJoloWJQPIfn2lMtLEtDBzoiTXuVDSCWlBtM3AR1skoiGRfkQkm9PubwkAR3sjDjpVT6EVFJqMH0T0MEmiWhYlA8h+faUy0sS0MHOiJNe5UNIJaUG0zcBHWySiIZF+RCSb0+5vCQBHeyMOOlVPoRUUmowfRPQwSaJaFiUDyH59pTLSxLQwc6Ik17lQ0glpQbTNwEdbJKIhkX5EJJvT7m8JAEd7Iw46VU+hFRSajB9E9DBJoloWJQPIfn2lMtLEtDBzoiTXuVDSCWlBtM3AR1skoiGRfkQkm9PubwkAR3sjDjpVT6EVFJqMH0T0MEmiWhYlA8h+faUy0sS0MHOiJNe5UNIJaUG0zcBHWySiIZF+RCSb0+5vCQBHeyMOOlVPoRUUmowfRPQwSaJaFiUDyH59pTLSxLQwc6Ik17lQ0glpQbTNwEdbJKIhkX5EJJvT7m8JAEd7Iw46VU+hFRSajB9E9DBJoloWJQPIfn2lMtLEtDBzoiTXuVDSCWlBtM3AR1skoiGRfkQkm9PubwkAR3sjDjpVT6EVFJqMH0T0MEmiWhYlA8h+faUy0sS0MHOiJNe5UNIJaUG0zcBHWySiIZF+RCSb0+5vCQBHeyMOOlVPoRUUmowfRPQwSaJaFiUDyH59pTLSxLQwc6Ik17lQ0glpQbTNwEdbJKIhkX5EJJvT7m8JAEd7Iw46VU+hFRSajB9E9DBJoloWJQPIfn2lMtLEtDBzoiTXuVDSCWlBtM3AR1skoiGRfkQkm9PubwkAR3sjDjl/f2P24PyIaSSUoPpm4AONkVEdxwPZfT+4+0BIfn2lMtLEkgU0mMy+v7jJ0Iq6TSYxgmkCekpGd39iPiEZFxUTu9IIElIz8kIIXX0GUrzBFKE9JKMEJJ5UTm/I4EEIR0jI4TU0WcozRNwF9KxMkJI5kXl/I4EnIX0GhkhpI4+Q2megKuQXisjhGReVM7vSMBRSKfICCF19BlK8wTchHSqjBCSeVE5vyMBJyGdIyOE1NFnKM0TcBHSuTJCSOZF5fyOBByEdAkZIaSOPkNpnsDqQrqUjBCSeVE5vyOBlYV0SRkhpI4+Q2mewKpCurSMEJJ5UTm/I4EVhbSFjBBSR5+hNE9gNSFtJSOEZF5Uzu9IYCUhbSkjhNTRZyjNE1hFSFvLCCGZF5XzOxJYQUh7yAghdfQZSvMEri2kvWSEkMyLyvkdCVxTSHvKCCF19BlK8wSuJaS9ZYSQzIvK+R0JXENI15ARQuroM5TmCewtpGvJCCGZF5XzOxLYU0jXlBFC6ugzlOYJ7CWka8sIIZkXlfM7EthDSCvICCF19BlK8wS2FtIqMkJI5kXl/I4EthTSSjJCSB19htI8ga2EtJqMEJJ5UTm/I4EthLSijBBSR5+hNE/g0kJaVUYIybyonN+RwCWFtLKMEFJHn6E0T+BSQlpdRgjJvKic35HAJYTkICOE1NFnKM0TOFdILjJCSOZF5fyOBM4RkpOMEFJHn6E0T+BUIbnJCCGZF5XzOxI4RUiOMkJIHX2G0jyB1wrJVUYIybyonN+RwGuE5CwjhNTRZyjNEzhWSO4yQkjmReX8jgSOEVKCjBBSR5+hNE/gJSGlyAghmReV8zsSeE5ISTJCSB19htI8gaeElCYjhGReVM7vSOAxISXKCCF19BlK8wQeCilVRgjJvKic35GACilZRgipo89QmiegQtLv33+8PXz/8dOc7v75Nwp4/5/4GwmQwAoJ6Ebn+0QZ3WV9T0gDy/vhQAZksGoHUmWEkN4yulVHx12PdzNZRggJIfFJ0KgD6TK6E9L/uiW3Gxsaa9IAAAAASUVORK5CYII=;" vertex="1" parent="1">
          <mxGeometry x="-283.5" y="-460" width="347.32" height="270" as="geometry" />
        </mxCell>
        <mxCell id="uAtIhjqp2DDbtPSCuf9U-78" value="" style="shape=image;verticalLabelPosition=bottom;labelBackgroundColor=#ffffff;verticalAlign=top;aspect=fixed;imageAspect=0;image=data:image/png,iVBORw0KGgoAAAANSUhEUgAAASQAAADjCAYAAAAsY2lUAAAM2klEQVR4Ae2XPW6UWRREvSw2Q8IK2MAkE0I80YgVWJpoVjCaBBDRrAYIeuTgSmXjn3Z3f1+/qjpI1jMiuadcdWjfHML//P3Pf4c3bz/wRQZ0wKADN8k+QkaImP+MvDoQKyRk5FVExMHP664DkUJ6KKP3H28P33/8TP4wCBsJWCXw51//PvordJyQkJFVLzm2MIGnZBT3CQkZFbYbZKsEHsro3W+f7n1SivmEhIysesmxhQk8JqPPX77mCQkZFbYbZKsEnpLRt2/fsoSEjKx6ybGFCTwnoyghIaPCdoNslcBLMooREjKy6iXHFiZwjIwihISMCtsNslUCx8rIXkjIyKqXHFuYwGtkZC0kZFTYbpCtEnitjGyFhIysesmxhQmcIiNLISGjwnaDbJXAqTKyExIysuolxxYmcI6MrISEjArbDbJVAufKyEZIyMiqlxxbmMAlZGQhJGRU2G6QrRK4lIyWFxIysuolxxYmcEkZLS0kZFTYbpCtEri0jJYVEjKy6iXHFiawhYyWFBIyKmw3yFYJbCWj5YSEjKx6ybGFCWwpo6WEhIwK2w2yVQJby2gZISEjq15ybGECe8hoCSEho8J2g2yVwF4yurqQkJFVLzm2MIE9ZXRVISGjwnaDbJXA3jK6mpCQkVUvObYwgWvI6CpCQkaF7QbZKoFryWh3ISEjq15ybGEC15TRrkJCRoXtBtkqgWvLaDchISOrXnJsYQIryGgXISGjwnaDbJXAKjLaXEjIyKqXHFuYwEoy2lRIyKiw3SBbJbCajDYTEjKy6iXHFiawoow2ERIyKmw3yFYJrCqjiwsJGVn1kmMLE1hZRhcVEjIqbDfIVgmsLqOLCQkZWfWSYwsTcJDRRYSEjArbDbJVAi4yOltIyMiqlxxbmICTjM4SEjIqbDfIVgm4yehkISEjq15ybGECjjI6SUjIqLDdIFsl4CqjVwsJGVn1kmMLE3CW0auEhIwK2w2yVQLuMjpaSMjIqpccW5hAgoyOEhIyKmw3yFYJpMjoRSEhI6tecmxhAkkyelZIyKiw3SBbJZAmoyeFhIysesmxhQkkyuhRISGjwnaDbJVAqox+EdJDGb15++HAFxnQgXU78O63T4fPX74e7sac8KVdu9G/8P26JeRnw8/mrgNpMvrlExJFp+h0wKcDSZ+M5tOd9u/eJySrX6o5lgRKEtDBzoiTXuVDSCWlBtM3AR1skoiGRfkQkm9PubwkAR3sjDjpVT6EVFJqMH0T0MEmiWhYlA8h+faUy0sS0MHOiJNe5UNIJaUG0zcBHWySiIZF+RCSb0+5vCQBHeyMOOlVPoRUUmowfRPQwSaJaFiUDyH59pTLSxLQwc6Ik17lQ0glpQbTNwEdbJKIhkX5EJJvT7m8JAEd7Iw46VU+hFRSajB9E9DBJoloWJQPIfn2lMtLEtDBzoiTXuVDSCWlBtM3AR1skoiGRfkQkm9PubwkAR3sjDjpVT6EVFJqMH0T0MEmiWhYlA8h+faUy0sS0MHOiJNe5UNIJaUG0zcBHWySiIZF+RCSb0+5vCQBHeyMOOlVPoRUUmowfRPQwSaJaFiUDyH59pTLSxLQwc6Ik17lQ0glpQbTNwEdbJKIhkX5EJJvT7m8JAEd7Iw46VU+hFRSajB9E9DBJoloWJQPIfn2lMtLEtDBzoiTXuVDSCWlBtM3AR1skoiGRfkQkm9PubwkAR3sjDjpVT6EVFJqMH0T0MEmiWhYlA8h+faUy0sS0MHOiJNe5UNIJaUG0zcBHWySiIZF+RCSb0+5vCQBHeyMOOlVPoRUUmowfRPQwSaJaFiUDyH59pTLSxLQwc6Ik17lQ0glpQbTNwEdbJKIhkX5EJJvT7m8JAEd7Iw46VU+hFRSajB9E9DBJoloWJQPIfn2lMtLEtDBzoiTXuVDSCWlBtM3AR1skoiGRfkQkm9PubwkAR3sjDjpVT6EVFJqMH0T0MEmiWhYlA8h+faUy0sS0MHOiJNe5UNIJaUG0zcBHWySiIZF+RCSb0+5vCQBHeyMOOlVPoRUUmowfRPQwSaJaFiUDyH59pTLSxLQwc6Ik17lQ0glpQbTNwEdbJKIhkX5EJJvT7m8JAEd7Iw46VU+hFRSajB9E9DBJoloWJQPIfn2lMtLEtDBzoiTXuVDSCWlBtM3AR1skoiGRfkQkm9PubwkAR3sjDjpVT6EVFJqMH0T0MEmiWhYlA8h+faUy0sS0MHOiJNe5UNIJaUG0zcBHWySiIZF+RCSb0+5vCQBHeyMOOlVPoRUUmowfRPQwSaJaFiUDyH59pTLSxLQwc6Ik17lQ0glpQbTNwEdbJKIhkX5EJJvT7m8JAEd7Iw46VU+hFRSajB9E9DBJoloWJQPIfn2lMtLEtDBzoiTXuVDSCWlBtM3AR1skoiGRfkQkm9PubwkAR3sjDjpVT6EVFJqMH0T0MEmiWhYlA8h+faUy0sS0MHOiJNe5UNIJaUG0zcBHWySiIZF+RCSb0+5vCQBHeyMOOlVPoRUUmowfRPQwSaJaFiUDyH59pTLSxLQwc6Ik17lQ0glpQbTNwEdbJKIhkX5EJJvT7m8JAEd7Iw46VU+hFRSajB9E9DBJoloWJQPIfn2lMtLEtDBzoiTXuVDSCWlBtM3AR1skoiGRfkQkm9PubwkAR3sjDjpVT6EVFJqMH0T0MEmiWhYlA8h+faUy0sS0MHOiJNe5UNIJaUG0zcBHWySiIZF+RCSb0+5vCQBHeyMOOlVPoRUUmowfRPQwSaJaFiUDyH59pTLSxLQwc6Ik17lQ0glpQbTNwEdbJKIhkX5EJJvT7m8JAEd7Iw46VU+hFRSajB9E9DBJoloWJQPIfn2lMtLEtDBzoiTXuVDSCWlBtM3AR1skoiGRfkQkm9PubwkAR3sjDjpVT6EVFJqMH0T0MEmiWhYlA8h+faUy0sS0MHOiJNe5UNIJaUG0zcBHWySiIZF+RCSb0+5vCQBHeyMOOlVPoRUUmowfRPQwSaJaFiUDyH59pTLSxLQwc6Ik17lQ0glpQbTNwEdbJKIhkX5EJJvT7m8JAEd7Iw46VU+hFRSajB9E9DBJoloWJQPIfn2lMtLEtDBzoiTXuVDSCWlBtM3AR1skoiGRfkQkm9PubwkAR3sjDjpVT6EVFJqMH0T0MEmiWhYlA8h+faUy0sS0MHOiJNe5UNIJaUG0zcBHWySiIZF+RCSb0+5vCQBHeyMOOlVPoRUUmowfRPQwSaJaFiUDyH59pTLSxLQwc6Ik17lQ0glpQbTNwEdbJKIhkX5EJJvT7m8JAEd7Iw46VU+hFRSajB9E9DBJoloWJQPIfn2lMtLEtDBzoiTXuVDSCWlBtM3AR1skoiGRfkQkm9PubwkAR3sjDjl/f2P24PyIaSSUoPpm4AONkVEdxwPZfT+4+0BIfn2lMtLEkgU0mMy+v7jJ0Iq6TSYxgmkCekpGd39iPiEZFxUTu9IIElIz8kIIXX0GUrzBFKE9JKMEJJ5UTm/I4EEIR0jI4TU0WcozRNwF9KxMkJI5kXl/I4EnIX0GhkhpI4+Q2megKuQXisjhGReVM7vSMBRSKfICCF19BlK8wTchHSqjBCSeVE5vyMBJyGdIyOE1NFnKM0TcBHSuTJCSOZF5fyOBByEdAkZIaSOPkNpnsDqQrqUjBCSeVE5vyOBlYV0SRkhpI4+Q2mewKpCurSMEJJ5UTm/I4EVhbSFjBBSR5+hNE9gNSFtJSOEZF5Uzu9IYCUhbSkjhNTRZyjNE1hFSFvLCCGZF5XzOxJYQUh7yAghdfQZSvMEri2kvWSEkMyLyvkdCVxTSHvKCCF19BlK8wSuJaS9ZYSQzIvK+R0JXENI15ARQuroM5TmCewtpGvJCCGZF5XzOxLYU0jXlBFC6ugzlOYJ7CWka8sIIZkXlfM7EthDSCvICCF19BlK8wS2FtIqMkJI5kXl/I4EthTSSjJCSB19htI8ga2EtJqMEJJ5UTm/I4EthLSijBBSR5+hNE/g0kJaVUYIybyonN+RwCWFtLKMEFJHn6E0T+BSQlpdRgjJvKic35HAJYTkICOE1NFnKM0TOFdILjJCSOZF5fyOBM4RkpOMEFJHn6E0T+BUIbnJCCGZF5XzOxI4RUiOMkJIHX2G0jyB1wrJVUYIybyonN+RwGuE5CwjhNTRZyjNEzhWSO4yQkjmReX8jgSOEVKCjBBSR5+hNE/gJSGlyAghmReV8zsSeE5ISTJCSB19htI8gaeElCYjhGReVM7vSOAxISXKCCF19BlK8wQeCilVRgjJvKic35GACilZRgipo89QmiegQtLv33+8PXz/8dOc7v75Nwp4/5/4GwmQwAoJ6Ebn+0QZ3WV9T0gDy/vhQAZksGoHUmWEkN4yulVHx12PdzNZRggJIfFJ0KgD6TK6E9L/uiW3Gxsaa9IAAAAASUVORK5CYII=;" vertex="1" parent="1">
          <mxGeometry x="-652.6800000000001" y="-460" width="347.32" height="270" as="geometry" />
        </mxCell>
        <mxCell id="uAtIhjqp2DDbtPSCuf9U-79" value="&lt;h1&gt;BFF网关服务&lt;/h1&gt;" style="text;html=1;strokeColor=none;fillColor=none;align=center;verticalAlign=middle;whiteSpace=wrap;rounded=0;" vertex="1" parent="1">
          <mxGeometry x="-1040" y="-300" width="230" height="30" as="geometry" />
        </mxCell>
        <mxCell id="uAtIhjqp2DDbtPSCuf9U-80" value="&lt;h1&gt;BFF网关服务&lt;/h1&gt;" style="text;html=1;strokeColor=none;fillColor=none;align=center;verticalAlign=middle;whiteSpace=wrap;rounded=0;" vertex="1" parent="1">
          <mxGeometry x="-672.68" y="-300" width="230" height="30" as="geometry" />
        </mxCell>
        <mxCell id="uAtIhjqp2DDbtPSCuf9U-81" value="&lt;h1&gt;BFF网关服务&lt;/h1&gt;" style="text;html=1;strokeColor=none;fillColor=none;align=center;verticalAlign=middle;whiteSpace=wrap;rounded=0;" vertex="1" parent="1">
          <mxGeometry x="-305.36" y="-300" width="230" height="30" as="geometry" />
        </mxCell>
        <mxCell id="uAtIhjqp2DDbtPSCuf9U-82" value="&lt;h1&gt;BFF网关服务&lt;/h1&gt;" style="text;html=1;strokeColor=none;fillColor=none;align=center;verticalAlign=middle;whiteSpace=wrap;rounded=0;" vertex="1" parent="1">
          <mxGeometry x="56.68" y="-310" width="230" height="30" as="geometry" />
        </mxCell>
        <mxCell id="uAtIhjqp2DDbtPSCuf9U-87" value="&lt;h1&gt;API网关服务&lt;/h1&gt;" style="text;html=1;strokeColor=none;fillColor=none;align=center;verticalAlign=middle;whiteSpace=wrap;rounded=0;" vertex="1" parent="1">
          <mxGeometry x="-470" y="-684" width="158" height="30" as="geometry" />
        </mxCell>
        <mxCell id="uAtIhjqp2DDbtPSCuf9U-88" value="&lt;h2&gt;&lt;span style=&quot;font-weight: 400&quot;&gt;Docker部署&lt;/span&gt;&lt;/h2&gt;" style="rounded=0;whiteSpace=wrap;html=1;" vertex="1" parent="1">
          <mxGeometry x="-826" y="-370" width="76" height="170" as="geometry" />
        </mxCell>
        <mxCell id="uAtIhjqp2DDbtPSCuf9U-89" value="&lt;h2&gt;&lt;span style=&quot;font-weight: 400&quot;&gt;Docker部署&lt;/span&gt;&lt;/h2&gt;" style="rounded=0;whiteSpace=wrap;html=1;" vertex="1" parent="1">
          <mxGeometry x="-460" y="-370" width="76" height="170" as="geometry" />
        </mxCell>
        <mxCell id="uAtIhjqp2DDbtPSCuf9U-90" value="&lt;h2&gt;&lt;span style=&quot;font-weight: 400&quot;&gt;Docker部署&lt;/span&gt;&lt;/h2&gt;" style="rounded=0;whiteSpace=wrap;html=1;" vertex="1" parent="1">
          <mxGeometry x="-90" y="-370" width="76" height="170" as="geometry" />
        </mxCell>
        <mxCell id="uAtIhjqp2DDbtPSCuf9U-91" value="&lt;h2&gt;&lt;span style=&quot;font-weight: 400&quot;&gt;Docker部署&lt;/span&gt;&lt;/h2&gt;" style="rounded=0;whiteSpace=wrap;html=1;" vertex="1" parent="1">
          <mxGeometry x="270" y="-370" width="76" height="170" as="geometry" />
        </mxCell>
        <mxCell id="uAtIhjqp2DDbtPSCuf9U-92" value="" style="shape=image;verticalLabelPosition=bottom;labelBackgroundColor=#ffffff;verticalAlign=top;aspect=fixed;imageAspect=0;image=data:image/png,iVBORw0KGgoAAAANSUhEUgAAASQAAADjCAYAAAAsY2lUAAAM2klEQVR4Ae2XPW6UWRREvSw2Q8IK2MAkE0I80YgVWJpoVjCaBBDRrAYIeuTgSmXjn3Z3f1+/qjpI1jMiuadcdWjfHML//P3Pf4c3bz/wRQZ0wKADN8k+QkaImP+MvDoQKyRk5FVExMHP664DkUJ6KKP3H28P33/8TP4wCBsJWCXw51//PvordJyQkJFVLzm2MIGnZBT3CQkZFbYbZKsEHsro3W+f7n1SivmEhIysesmxhQk8JqPPX77mCQkZFbYbZKsEnpLRt2/fsoSEjKx6ybGFCTwnoyghIaPCdoNslcBLMooREjKy6iXHFiZwjIwihISMCtsNslUCx8rIXkjIyKqXHFuYwGtkZC0kZFTYbpCtEnitjGyFhIysesmxhQmcIiNLISGjwnaDbJXAqTKyExIysuolxxYmcI6MrISEjArbDbJVAufKyEZIyMiqlxxbmMAlZGQhJGRU2G6QrRK4lIyWFxIysuolxxYmcEkZLS0kZFTYbpCtEri0jJYVEjKy6iXHFiawhYyWFBIyKmw3yFYJbCWj5YSEjKx6ybGFCWwpo6WEhIwK2w2yVQJby2gZISEjq15ybGECe8hoCSEho8J2g2yVwF4yurqQkJFVLzm2MIE9ZXRVISGjwnaDbJXA3jK6mpCQkVUvObYwgWvI6CpCQkaF7QbZKoFryWh3ISEjq15ybGEC15TRrkJCRoXtBtkqgWvLaDchISOrXnJsYQIryGgXISGjwnaDbJXAKjLaXEjIyKqXHFuYwEoy2lRIyKiw3SBbJbCajDYTEjKy6iXHFiawoow2ERIyKmw3yFYJrCqjiwsJGVn1kmMLE1hZRhcVEjIqbDfIVgmsLqOLCQkZWfWSYwsTcJDRRYSEjArbDbJVAi4yOltIyMiqlxxbmICTjM4SEjIqbDfIVgm4yehkISEjq15ybGECjjI6SUjIqLDdIFsl4CqjVwsJGVn1kmMLE3CW0auEhIwK2w2yVQLuMjpaSMjIqpccW5hAgoyOEhIyKmw3yFYJpMjoRSEhI6tecmxhAkkyelZIyKiw3SBbJZAmoyeFhIysesmxhQkkyuhRISGjwnaDbJVAqox+EdJDGb15++HAFxnQgXU78O63T4fPX74e7sac8KVdu9G/8P26JeRnw8/mrgNpMvrlExJFp+h0wKcDSZ+M5tOd9u/eJySrX6o5lgRKEtDBzoiTXuVDSCWlBtM3AR1skoiGRfkQkm9PubwkAR3sjDjpVT6EVFJqMH0T0MEmiWhYlA8h+faUy0sS0MHOiJNe5UNIJaUG0zcBHWySiIZF+RCSb0+5vCQBHeyMOOlVPoRUUmowfRPQwSaJaFiUDyH59pTLSxLQwc6Ik17lQ0glpQbTNwEdbJKIhkX5EJJvT7m8JAEd7Iw46VU+hFRSajB9E9DBJoloWJQPIfn2lMtLEtDBzoiTXuVDSCWlBtM3AR1skoiGRfkQkm9PubwkAR3sjDjpVT6EVFJqMH0T0MEmiWhYlA8h+faUy0sS0MHOiJNe5UNIJaUG0zcBHWySiIZF+RCSb0+5vCQBHeyMOOlVPoRUUmowfRPQwSaJaFiUDyH59pTLSxLQwc6Ik17lQ0glpQbTNwEdbJKIhkX5EJJvT7m8JAEd7Iw46VU+hFRSajB9E9DBJoloWJQPIfn2lMtLEtDBzoiTXuVDSCWlBtM3AR1skoiGRfkQkm9PubwkAR3sjDjpVT6EVFJqMH0T0MEmiWhYlA8h+faUy0sS0MHOiJNe5UNIJaUG0zcBHWySiIZF+RCSb0+5vCQBHeyMOOlVPoRUUmowfRPQwSaJaFiUDyH59pTLSxLQwc6Ik17lQ0glpQbTNwEdbJKIhkX5EJJvT7m8JAEd7Iw46VU+hFRSajB9E9DBJoloWJQPIfn2lMtLEtDBzoiTXuVDSCWlBtM3AR1skoiGRfkQkm9PubwkAR3sjDjpVT6EVFJqMH0T0MEmiWhYlA8h+faUy0sS0MHOiJNe5UNIJaUG0zcBHWySiIZF+RCSb0+5vCQBHeyMOOlVPoRUUmowfRPQwSaJaFiUDyH59pTLSxLQwc6Ik17lQ0glpQbTNwEdbJKIhkX5EJJvT7m8JAEd7Iw46VU+hFRSajB9E9DBJoloWJQPIfn2lMtLEtDBzoiTXuVDSCWlBtM3AR1skoiGRfkQkm9PubwkAR3sjDjpVT6EVFJqMH0T0MEmiWhYlA8h+faUy0sS0MHOiJNe5UNIJaUG0zcBHWySiIZF+RCSb0+5vCQBHeyMOOlVPoRUUmowfRPQwSaJaFiUDyH59pTLSxLQwc6Ik17lQ0glpQbTNwEdbJKIhkX5EJJvT7m8JAEd7Iw46VU+hFRSajB9E9DBJoloWJQPIfn2lMtLEtDBzoiTXuVDSCWlBtM3AR1skoiGRfkQkm9PubwkAR3sjDjpVT6EVFJqMH0T0MEmiWhYlA8h+faUy0sS0MHOiJNe5UNIJaUG0zcBHWySiIZF+RCSb0+5vCQBHeyMOOlVPoRUUmowfRPQwSaJaFiUDyH59pTLSxLQwc6Ik17lQ0glpQbTNwEdbJKIhkX5EJJvT7m8JAEd7Iw46VU+hFRSajB9E9DBJoloWJQPIfn2lMtLEtDBzoiTXuVDSCWlBtM3AR1skoiGRfkQkm9PubwkAR3sjDjpVT6EVFJqMH0T0MEmiWhYlA8h+faUy0sS0MHOiJNe5UNIJaUG0zcBHWySiIZF+RCSb0+5vCQBHeyMOOlVPoRUUmowfRPQwSaJaFiUDyH59pTLSxLQwc6Ik17lQ0glpQbTNwEdbJKIhkX5EJJvT7m8JAEd7Iw46VU+hFRSajB9E9DBJoloWJQPIfn2lMtLEtDBzoiTXuVDSCWlBtM3AR1skoiGRfkQkm9PubwkAR3sjDjpVT6EVFJqMH0T0MEmiWhYlA8h+faUy0sS0MHOiJNe5UNIJaUG0zcBHWySiIZF+RCSb0+5vCQBHeyMOOlVPoRUUmowfRPQwSaJaFiUDyH59pTLSxLQwc6Ik17lQ0glpQbTNwEdbJKIhkX5EJJvT7m8JAEd7Iw46VU+hFRSajB9E9DBJoloWJQPIfn2lMtLEtDBzoiTXuVDSCWlBtM3AR1skoiGRfkQkm9PubwkAR3sjDjpVT6EVFJqMH0T0MEmiWhYlA8h+faUy0sS0MHOiJNe5UNIJaUG0zcBHWySiIZF+RCSb0+5vCQBHeyMOOlVPoRUUmowfRPQwSaJaFiUDyH59pTLSxLQwc6Ik17lQ0glpQbTNwEdbJKIhkX5EJJvT7m8JAEd7Iw46VU+hFRSajB9E9DBJoloWJQPIfn2lMtLEtDBzoiTXuVDSCWlBtM3AR1skoiGRfkQkm9PubwkAR3sjDjl/f2P24PyIaSSUoPpm4AONkVEdxwPZfT+4+0BIfn2lMtLEkgU0mMy+v7jJ0Iq6TSYxgmkCekpGd39iPiEZFxUTu9IIElIz8kIIXX0GUrzBFKE9JKMEJJ5UTm/I4EEIR0jI4TU0WcozRNwF9KxMkJI5kXl/I4EnIX0GhkhpI4+Q2megKuQXisjhGReVM7vSMBRSKfICCF19BlK8wTchHSqjBCSeVE5vyMBJyGdIyOE1NFnKM0TcBHSuTJCSOZF5fyOBByEdAkZIaSOPkNpnsDqQrqUjBCSeVE5vyOBlYV0SRkhpI4+Q2mewKpCurSMEJJ5UTm/I4EVhbSFjBBSR5+hNE9gNSFtJSOEZF5Uzu9IYCUhbSkjhNTRZyjNE1hFSFvLCCGZF5XzOxJYQUh7yAghdfQZSvMEri2kvWSEkMyLyvkdCVxTSHvKCCF19BlK8wSuJaS9ZYSQzIvK+R0JXENI15ARQuroM5TmCewtpGvJCCGZF5XzOxLYU0jXlBFC6ugzlOYJ7CWka8sIIZkXlfM7EthDSCvICCF19BlK8wS2FtIqMkJI5kXl/I4EthTSSjJCSB19htI8ga2EtJqMEJJ5UTm/I4EthLSijBBSR5+hNE/g0kJaVUYIybyonN+RwCWFtLKMEFJHn6E0T+BSQlpdRgjJvKic35HAJYTkICOE1NFnKM0TOFdILjJCSOZF5fyOBM4RkpOMEFJHn6E0T+BUIbnJCCGZF5XzOxI4RUiOMkJIHX2G0jyB1wrJVUYIybyonN+RwGuE5CwjhNTRZyjNEzhWSO4yQkjmReX8jgSOEVKCjBBSR5+hNE/gJSGlyAghmReV8zsSeE5ISTJCSB19htI8gaeElCYjhGReVM7vSOAxISXKCCF19BlK8wQeCilVRgjJvKic35GACilZRgipo89QmiegQtLv33+8PXz/8dOc7v75Nwp4/5/4GwmQwAoJ6Ebn+0QZ3WV9T0gDy/vhQAZksGoHUmWEkN4yulVHx12PdzNZRggJIfFJ0KgD6TK6E9L/uiW3Gxsaa9IAAAAASUVORK5CYII=;" vertex="1" parent="1">
          <mxGeometry x="-524.66" y="-1170" width="347.32" height="270" as="geometry" />
        </mxCell>
        <mxCell id="uAtIhjqp2DDbtPSCuf9U-93" value="" style="shape=image;verticalLabelPosition=bottom;labelBackgroundColor=#ffffff;verticalAlign=top;aspect=fixed;imageAspect=0;image=data:image/png,iVBORw0KGgoAAAANSUhEUgAAASQAAADjCAYAAAAsY2lUAAAM2klEQVR4Ae2XPW6UWRREvSw2Q8IK2MAkE0I80YgVWJpoVjCaBBDRrAYIeuTgSmXjn3Z3f1+/qjpI1jMiuadcdWjfHML//P3Pf4c3bz/wRQZ0wKADN8k+QkaImP+MvDoQKyRk5FVExMHP664DkUJ6KKP3H28P33/8TP4wCBsJWCXw51//PvordJyQkJFVLzm2MIGnZBT3CQkZFbYbZKsEHsro3W+f7n1SivmEhIysesmxhQk8JqPPX77mCQkZFbYbZKsEnpLRt2/fsoSEjKx6ybGFCTwnoyghIaPCdoNslcBLMooREjKy6iXHFiZwjIwihISMCtsNslUCx8rIXkjIyKqXHFuYwGtkZC0kZFTYbpCtEnitjGyFhIysesmxhQmcIiNLISGjwnaDbJXAqTKyExIysuolxxYmcI6MrISEjArbDbJVAufKyEZIyMiqlxxbmMAlZGQhJGRU2G6QrRK4lIyWFxIysuolxxYmcEkZLS0kZFTYbpCtEri0jJYVEjKy6iXHFiawhYyWFBIyKmw3yFYJbCWj5YSEjKx6ybGFCWwpo6WEhIwK2w2yVQJby2gZISEjq15ybGECe8hoCSEho8J2g2yVwF4yurqQkJFVLzm2MIE9ZXRVISGjwnaDbJXA3jK6mpCQkVUvObYwgWvI6CpCQkaF7QbZKoFryWh3ISEjq15ybGEC15TRrkJCRoXtBtkqgWvLaDchISOrXnJsYQIryGgXISGjwnaDbJXAKjLaXEjIyKqXHFuYwEoy2lRIyKiw3SBbJbCajDYTEjKy6iXHFiawoow2ERIyKmw3yFYJrCqjiwsJGVn1kmMLE1hZRhcVEjIqbDfIVgmsLqOLCQkZWfWSYwsTcJDRRYSEjArbDbJVAi4yOltIyMiqlxxbmICTjM4SEjIqbDfIVgm4yehkISEjq15ybGECjjI6SUjIqLDdIFsl4CqjVwsJGVn1kmMLE3CW0auEhIwK2w2yVQLuMjpaSMjIqpccW5hAgoyOEhIyKmw3yFYJpMjoRSEhI6tecmxhAkkyelZIyKiw3SBbJZAmoyeFhIysesmxhQkkyuhRISGjwnaDbJVAqox+EdJDGb15++HAFxnQgXU78O63T4fPX74e7sac8KVdu9G/8P26JeRnw8/mrgNpMvrlExJFp+h0wKcDSZ+M5tOd9u/eJySrX6o5lgRKEtDBzoiTXuVDSCWlBtM3AR1skoiGRfkQkm9PubwkAR3sjDjpVT6EVFJqMH0T0MEmiWhYlA8h+faUy0sS0MHOiJNe5UNIJaUG0zcBHWySiIZF+RCSb0+5vCQBHeyMOOlVPoRUUmowfRPQwSaJaFiUDyH59pTLSxLQwc6Ik17lQ0glpQbTNwEdbJKIhkX5EJJvT7m8JAEd7Iw46VU+hFRSajB9E9DBJoloWJQPIfn2lMtLEtDBzoiTXuVDSCWlBtM3AR1skoiGRfkQkm9PubwkAR3sjDjpVT6EVFJqMH0T0MEmiWhYlA8h+faUy0sS0MHOiJNe5UNIJaUG0zcBHWySiIZF+RCSb0+5vCQBHeyMOOlVPoRUUmowfRPQwSaJaFiUDyH59pTLSxLQwc6Ik17lQ0glpQbTNwEdbJKIhkX5EJJvT7m8JAEd7Iw46VU+hFRSajB9E9DBJoloWJQPIfn2lMtLEtDBzoiTXuVDSCWlBtM3AR1skoiGRfkQkm9PubwkAR3sjDjpVT6EVFJqMH0T0MEmiWhYlA8h+faUy0sS0MHOiJNe5UNIJaUG0zcBHWySiIZF+RCSb0+5vCQBHeyMOOlVPoRUUmowfRPQwSaJaFiUDyH59pTLSxLQwc6Ik17lQ0glpQbTNwEdbJKIhkX5EJJvT7m8JAEd7Iw46VU+hFRSajB9E9DBJoloWJQPIfn2lMtLEtDBzoiTXuVDSCWlBtM3AR1skoiGRfkQkm9PubwkAR3sjDjpVT6EVFJqMH0T0MEmiWhYlA8h+faUy0sS0MHOiJNe5UNIJaUG0zcBHWySiIZF+RCSb0+5vCQBHeyMOOlVPoRUUmowfRPQwSaJaFiUDyH59pTLSxLQwc6Ik17lQ0glpQbTNwEdbJKIhkX5EJJvT7m8JAEd7Iw46VU+hFRSajB9E9DBJoloWJQPIfn2lMtLEtDBzoiTXuVDSCWlBtM3AR1skoiGRfkQkm9PubwkAR3sjDjpVT6EVFJqMH0T0MEmiWhYlA8h+faUy0sS0MHOiJNe5UNIJaUG0zcBHWySiIZF+RCSb0+5vCQBHeyMOOlVPoRUUmowfRPQwSaJaFiUDyH59pTLSxLQwc6Ik17lQ0glpQbTNwEdbJKIhkX5EJJvT7m8JAEd7Iw46VU+hFRSajB9E9DBJoloWJQPIfn2lMtLEtDBzoiTXuVDSCWlBtM3AR1skoiGRfkQkm9PubwkAR3sjDjpVT6EVFJqMH0T0MEmiWhYlA8h+faUy0sS0MHOiJNe5UNIJaUG0zcBHWySiIZF+RCSb0+5vCQBHeyMOOlVPoRUUmowfRPQwSaJaFiUDyH59pTLSxLQwc6Ik17lQ0glpQbTNwEdbJKIhkX5EJJvT7m8JAEd7Iw46VU+hFRSajB9E9DBJoloWJQPIfn2lMtLEtDBzoiTXuVDSCWlBtM3AR1skoiGRfkQkm9PubwkAR3sjDjpVT6EVFJqMH0T0MEmiWhYlA8h+faUy0sS0MHOiJNe5UNIJaUG0zcBHWySiIZF+RCSb0+5vCQBHeyMOOlVPoRUUmowfRPQwSaJaFiUDyH59pTLSxLQwc6Ik17lQ0glpQbTNwEdbJKIhkX5EJJvT7m8JAEd7Iw46VU+hFRSajB9E9DBJoloWJQPIfn2lMtLEtDBzoiTXuVDSCWlBtM3AR1skoiGRfkQkm9PubwkAR3sjDjpVT6EVFJqMH0T0MEmiWhYlA8h+faUy0sS0MHOiJNe5UNIJaUG0zcBHWySiIZF+RCSb0+5vCQBHeyMOOlVPoRUUmowfRPQwSaJaFiUDyH59pTLSxLQwc6Ik17lQ0glpQbTNwEdbJKIhkX5EJJvT7m8JAEd7Iw46VU+hFRSajB9E9DBJoloWJQPIfn2lMtLEtDBzoiTXuVDSCWlBtM3AR1skoiGRfkQkm9PubwkAR3sjDjpVT6EVFJqMH0T0MEmiWhYlA8h+faUy0sS0MHOiJNe5UNIJaUG0zcBHWySiIZF+RCSb0+5vCQBHeyMOOlVPoRUUmowfRPQwSaJaFiUDyH59pTLSxLQwc6Ik17lQ0glpQbTNwEdbJKIhkX5EJJvT7m8JAEd7Iw46VU+hFRSajB9E9DBJoloWJQPIfn2lMtLEtDBzoiTXuVDSCWlBtM3AR1skoiGRfkQkm9PubwkAR3sjDjl/f2P24PyIaSSUoPpm4AONkVEdxwPZfT+4+0BIfn2lMtLEkgU0mMy+v7jJ0Iq6TSYxgmkCekpGd39iPiEZFxUTu9IIElIz8kIIXX0GUrzBFKE9JKMEJJ5UTm/I4EEIR0jI4TU0WcozRNwF9KxMkJI5kXl/I4EnIX0GhkhpI4+Q2megKuQXisjhGReVM7vSMBRSKfICCF19BlK8wTchHSqjBCSeVE5vyMBJyGdIyOE1NFnKM0TcBHSuTJCSOZF5fyOBByEdAkZIaSOPkNpnsDqQrqUjBCSeVE5vyOBlYV0SRkhpI4+Q2mewKpCurSMEJJ5UTm/I4EVhbSFjBBSR5+hNE9gNSFtJSOEZF5Uzu9IYCUhbSkjhNTRZyjNE1hFSFvLCCGZF5XzOxJYQUh7yAghdfQZSvMEri2kvWSEkMyLyvkdCVxTSHvKCCF19BlK8wSuJaS9ZYSQzIvK+R0JXENI15ARQuroM5TmCewtpGvJCCGZF5XzOxLYU0jXlBFC6ugzlOYJ7CWka8sIIZkXlfM7EthDSCvICCF19BlK8wS2FtIqMkJI5kXl/I4EthTSSjJCSB19htI8ga2EtJqMEJJ5UTm/I4EthLSijBBSR5+hNE/g0kJaVUYIybyonN+RwCWFtLKMEFJHn6E0T+BSQlpdRgjJvKic35HAJYTkICOE1NFnKM0TOFdILjJCSOZF5fyOBM4RkpOMEFJHn6E0T+BUIbnJCCGZF5XzOxI4RUiOMkJIHX2G0jyB1wrJVUYIybyonN+RwGuE5CwjhNTRZyjNEzhWSO4yQkjmReX8jgSOEVKCjBBSR5+hNE/gJSGlyAghmReV8zsSeE5ISTJCSB19htI8gaeElCYjhGReVM7vSOAxISXKCCF19BlK8wQeCilVRgjJvKic35GACilZRgipo89QmiegQtLv33+8PXz/8dOc7v75Nwp4/5/4GwmQwAoJ6Ebn+0QZ3WV9T0gDy/vhQAZksGoHUmWEkN4yulVHx12PdzNZRggJIfFJ0KgD6TK6E9L/uiW3Gxsaa9IAAAAASUVORK5CYII=;" vertex="1" parent="1">
          <mxGeometry x="-142.67999999999995" y="-1180" width="347.32" height="270" as="geometry" />
        </mxCell>
        <mxCell id="uAtIhjqp2DDbtPSCuf9U-94" value="&lt;h2&gt;应用服务器&lt;/h2&gt;" style="text;html=1;strokeColor=none;fillColor=none;align=center;verticalAlign=middle;whiteSpace=wrap;rounded=0;" vertex="1" parent="1">
          <mxGeometry x="-940" y="-430" width="150" height="30" as="geometry" />
        </mxCell>
        <mxCell id="uAtIhjqp2DDbtPSCuf9U-95" value="&lt;h2&gt;应用服务器&lt;/h2&gt;" style="text;html=1;strokeColor=none;fillColor=none;align=center;verticalAlign=middle;whiteSpace=wrap;rounded=0;" vertex="1" parent="1">
          <mxGeometry x="-580" y="-440" width="150" height="30" as="geometry" />
        </mxCell>
        <mxCell id="uAtIhjqp2DDbtPSCuf9U-96" value="&lt;h2&gt;应用服务器&lt;/h2&gt;" style="text;html=1;strokeColor=none;fillColor=none;align=center;verticalAlign=middle;whiteSpace=wrap;rounded=0;" vertex="1" parent="1">
          <mxGeometry x="-210" y="-440" width="150" height="30" as="geometry" />
        </mxCell>
        <mxCell id="uAtIhjqp2DDbtPSCuf9U-97" value="&lt;h2&gt;应用服务器&lt;/h2&gt;" style="text;html=1;strokeColor=none;fillColor=none;align=center;verticalAlign=middle;whiteSpace=wrap;rounded=0;" vertex="1" parent="1">
          <mxGeometry x="-400" y="-820" width="150" height="30" as="geometry" />
        </mxCell>
        <mxCell id="uAtIhjqp2DDbtPSCuf9U-99" value="&lt;h1&gt;前端服务&lt;/h1&gt;" style="text;html=1;strokeColor=none;fillColor=none;align=center;verticalAlign=middle;whiteSpace=wrap;rounded=0;" vertex="1" parent="1">
          <mxGeometry x="-900" y="-1020" width="158" height="30" as="geometry" />
        </mxCell>
        <mxCell id="uAtIhjqp2DDbtPSCuf9U-100" value="&lt;h2&gt;应用服务器&lt;/h2&gt;" style="text;html=1;strokeColor=none;fillColor=none;align=center;verticalAlign=middle;whiteSpace=wrap;rounded=0;" vertex="1" parent="1">
          <mxGeometry x="-822.6800000000001" y="-1150" width="150" height="30" as="geometry" />
        </mxCell>
        <mxCell id="uAtIhjqp2DDbtPSCuf9U-101" value="&lt;h1&gt;前端服务&lt;/h1&gt;" style="text;html=1;strokeColor=none;fillColor=none;align=center;verticalAlign=middle;whiteSpace=wrap;rounded=0;" vertex="1" parent="1">
          <mxGeometry x="-524.6600000000001" y="-1020" width="158" height="30" as="geometry" />
        </mxCell>
        <mxCell id="uAtIhjqp2DDbtPSCuf9U-103" value="&lt;h1&gt;前端服务&lt;/h1&gt;" style="text;html=1;strokeColor=none;fillColor=none;align=center;verticalAlign=middle;whiteSpace=wrap;rounded=0;" vertex="1" parent="1">
          <mxGeometry x="-142.68000000000006" y="-1020" width="158" height="30" as="geometry" />
        </mxCell>
        <mxCell id="uAtIhjqp2DDbtPSCuf9U-104" value="&lt;h2&gt;&lt;span style=&quot;font-weight: 400&quot;&gt;Docker部署&lt;/span&gt;&lt;/h2&gt;" style="rounded=0;whiteSpace=wrap;html=1;" vertex="1" parent="1">
          <mxGeometry x="-300" y="-754" width="76" height="170" as="geometry" />
        </mxCell>
        <mxCell id="uAtIhjqp2DDbtPSCuf9U-105" value="&lt;h2&gt;&lt;span style=&quot;font-weight: 400&quot;&gt;Docker部署&lt;/span&gt;&lt;/h2&gt;" style="rounded=0;whiteSpace=wrap;html=1;" vertex="1" parent="1">
          <mxGeometry x="-742" y="-1080" width="76" height="170" as="geometry" />
        </mxCell>
        <mxCell id="uAtIhjqp2DDbtPSCuf9U-106" value="&lt;h2&gt;&lt;span style=&quot;font-weight: 400&quot;&gt;Docker部署&lt;/span&gt;&lt;/h2&gt;" style="rounded=0;whiteSpace=wrap;html=1;" vertex="1" parent="1">
          <mxGeometry x="-350" y="-1080" width="76" height="170" as="geometry" />
        </mxCell>
        <mxCell id="uAtIhjqp2DDbtPSCuf9U-107" value="&lt;h2&gt;&lt;span style=&quot;font-weight: 400&quot;&gt;Docker部署&lt;/span&gt;&lt;/h2&gt;" style="rounded=0;whiteSpace=wrap;html=1;" vertex="1" parent="1">
          <mxGeometry x="30" y="-1090" width="76" height="170" as="geometry" />
        </mxCell>
      </root>
    </mxGraphModel>
  </diagram>
</mxfile>
